<svg width="156" height="222" viewBox="0 0 156 222" fill="none" xmlns="http://www.w3.org/2000/svg">
<rect width="63.9603" height="15.5321" transform="matrix(0.999994 -0.00356403 -0.00352056 0.999994 43.7812 189.75)" fill="white"/>
<path d="M56.6247 96.0673L67.2285 91.1653C67.2285 91.1653 67.4635 86.9303 67.5661 84.0484C67.6878 80.6269 67.5242 78.0268 67.0278 74.7313C65.6248 65.4172 63.9865 66.4974 63.6506 60.7647C63.3101 54.9529 63.5948 51.3035 65.4157 46.0032C66.4397 43.0227 67.1919 41.3793 68.8668 39.0016C70.7569 36.3184 74.5966 33.5451 74.5966 33.5451L74.6322 23.4493L71.2057 23.4615L71.2249 18.0253L74.6513 18.0131L74.665 14.1301L77.5203 14.1199L76.8683 189.631L75.7039 189.636L75.692 189.636L51.0017 189.724C51.0017 189.724 48.9208 186.973 48.6663 184.868C48.4039 182.697 48.1699 180.305 48.6893 178.179C49.99 172.855 51.1473 170.45 54.0259 166C57.5738 160.515 62.1831 153.184 67.0867 131.422C69.8536 119.143 68.6398 103.459 68.6398 103.459L65.2162 102.695L65.2298 98.8119L56.6247 96.0673Z" fill="white"/>
<path d="M96.6977 95.9248L86.1282 91.0982C86.1282 91.0982 85.923 86.8647 85.8407 83.9835C85.743 80.5628 85.925 77.9614 86.4446 74.6623C87.9133 65.338 89.544 66.4065 89.9202 60.6713C90.3017 54.857 90.0427 51.2095 88.259 45.922C87.2559 42.9488 86.5154 41.3107 84.8572 38.9449C82.9859 36.275 79.1656 33.529 79.1656 33.529L79.2011 23.4332L82.6276 23.421L82.6467 17.9848L79.2203 17.997L79.234 14.1141L76.3786 14.1242L75.7949 189.635L76.9592 189.631L76.9711 189.631L101.661 189.543C101.661 189.543 103.762 186.778 104.031 184.671C104.309 182.498 104.56 180.105 104.055 177.982C102.792 172.667 101.652 170.27 98.8042 165.84C95.2948 160.381 90.737 153.082 85.9865 131.355C83.3061 119.095 84.6302 103.403 84.6302 103.403L88.0594 102.614L88.0731 98.7307L96.6977 95.9248Z" fill="white"/>
</svg>
