<svg width="111" height="48" viewBox="0 0 111 48" fill="none" xmlns="http://www.w3.org/2000/svg">
<path d="M110 1V41.6234H12.7279L1 47V1H110Z" fill="black" stroke="black"/>
<path d="M12.1289 8.8125V8.25391H15.2812V8.8125H14V14H13.4141V8.8125H12.1289ZM16.0156 8.10938H16.5625V10.5117C16.7839 10.2201 17.0273 10.0026 17.293 9.85938C17.5586 9.71354 17.8464 9.64062 18.1562 9.64062C18.474 9.64062 18.7552 9.72135 19 9.88281C19.2474 10.0443 19.4297 10.2617 19.5469 10.5352C19.6641 10.806 19.7227 11.2318 19.7227 11.8125V14H19.1758V11.9727C19.1758 11.4831 19.1562 11.1562 19.1172 10.9922C19.0495 10.7109 18.9258 10.5 18.7461 10.3594C18.569 10.2161 18.3359 10.1445 18.0469 10.1445C17.7161 10.1445 17.4193 10.2539 17.1562 10.4727C16.8958 10.6914 16.724 10.9622 16.6406 11.2852C16.5885 11.4935 16.5625 11.8789 16.5625 12.4414V14H16.0156V8.10938ZM25.1328 9.75V14H24.5938V13.2695C24.3646 13.5482 24.1068 13.7578 23.8203 13.8984C23.5365 14.0391 23.2253 14.1094 22.8867 14.1094C22.2852 14.1094 21.7708 13.8919 21.3438 13.457C20.9193 13.0195 20.707 12.4883 20.707 11.8633C20.707 11.2513 20.9219 10.7279 21.3516 10.293C21.7812 9.85807 22.2982 9.64062 22.9023 9.64062C23.2513 9.64062 23.5664 9.71484 23.8477 9.86328C24.1315 10.0117 24.3802 10.2344 24.5938 10.5312V9.75H25.1328ZM22.9453 10.168C22.6406 10.168 22.3594 10.2435 22.1016 10.3945C21.8438 10.543 21.638 10.7526 21.4844 11.0234C21.3333 11.2943 21.2578 11.5807 21.2578 11.8828C21.2578 12.1823 21.3346 12.4688 21.4883 12.7422C21.6419 13.0156 21.8477 13.2292 22.1055 13.3828C22.3659 13.5339 22.6445 13.6094 22.9414 13.6094C23.2409 13.6094 23.5247 13.5339 23.793 13.3828C24.0612 13.2318 24.2669 13.0273 24.4102 12.7695C24.556 12.5117 24.6289 12.2214 24.6289 11.8984C24.6289 11.4062 24.4661 10.9948 24.1406 10.6641C23.8177 10.3333 23.4193 10.168 22.9453 10.168ZM26.8438 8.17188H27.3945V9.75H28.2617V10.2188H27.3945V14H26.8438V10.2188H26.0977V9.75H26.8438V8.17188ZM29.4609 9.91797H29.0586L28.9727 8.10938H29.5508L29.4609 9.91797ZM32.8008 10.2148L32.4492 10.5781C32.1576 10.2943 31.8724 10.1523 31.5938 10.1523C31.4167 10.1523 31.2643 10.2109 31.1367 10.3281C31.0117 10.4453 30.9492 10.582 30.9492 10.7383C30.9492 10.8763 31.0013 11.0078 31.1055 11.1328C31.2096 11.2604 31.4284 11.4102 31.7617 11.582C32.168 11.793 32.444 11.9961 32.5898 12.1914C32.7331 12.3893 32.8047 12.612 32.8047 12.8594C32.8047 13.2083 32.6823 13.5039 32.4375 13.7461C32.1927 13.9883 31.8867 14.1094 31.5195 14.1094C31.2747 14.1094 31.0404 14.056 30.8164 13.9492C30.5951 13.8424 30.4115 13.6953 30.2656 13.5078L30.6094 13.1172C30.888 13.4323 31.1836 13.5898 31.4961 13.5898C31.7148 13.5898 31.901 13.5195 32.0547 13.3789C32.2083 13.2383 32.2852 13.0729 32.2852 12.8828C32.2852 12.7266 32.2344 12.5872 32.1328 12.4648C32.0312 12.3451 31.8021 12.194 31.4453 12.0117C31.0625 11.8138 30.8021 11.6185 30.6641 11.4258C30.526 11.2331 30.457 11.013 30.457 10.7656C30.457 10.4427 30.5664 10.1745 30.7852 9.96094C31.0065 9.7474 31.2852 9.64062 31.6211 9.64062C32.0117 9.64062 32.4049 9.83203 32.8008 10.2148ZM40.2266 9.75V14H39.6875V13.2695C39.4583 13.5482 39.2005 13.7578 38.9141 13.8984C38.6302 14.0391 38.319 14.1094 37.9805 14.1094C37.3789 14.1094 36.8646 13.8919 36.4375 13.457C36.013 13.0195 35.8008 12.4883 35.8008 11.8633C35.8008 11.2513 36.0156 10.7279 36.4453 10.293C36.875 9.85807 37.3919 9.64062 37.9961 9.64062C38.3451 9.64062 38.6602 9.71484 38.9414 9.86328C39.2253 10.0117 39.474 10.2344 39.6875 10.5312V9.75H40.2266ZM38.0391 10.168C37.7344 10.168 37.4531 10.2435 37.1953 10.3945C36.9375 10.543 36.7318 10.7526 36.5781 11.0234C36.4271 11.2943 36.3516 11.5807 36.3516 11.8828C36.3516 12.1823 36.4284 12.4688 36.582 12.7422C36.7357 13.0156 36.9414 13.2292 37.1992 13.3828C37.4596 13.5339 37.7383 13.6094 38.0352 13.6094C38.3346 13.6094 38.6185 13.5339 38.8867 13.3828C39.1549 13.2318 39.3607 13.0273 39.5039 12.7695C39.6497 12.5117 39.7227 12.2214 39.7227 11.8984C39.7227 11.4062 39.5599 10.9948 39.2344 10.6641C38.9115 10.3333 38.513 10.168 38.0391 10.168ZM40.8867 9.75H41.4492L42.75 12.8359L44.1133 9.75H44.2109L45.5703 12.8359L46.8945 9.75H47.4648L45.6211 14H45.5156L44.1641 10.957L42.8008 14H42.6992L40.8867 9.75ZM51.6875 12.5898L52.1484 12.832C51.9974 13.1289 51.8229 13.3685 51.625 13.5508C51.4271 13.7331 51.2044 13.8724 50.957 13.9688C50.7096 14.0625 50.4297 14.1094 50.1172 14.1094C49.4245 14.1094 48.8828 13.8828 48.4922 13.4297C48.1016 12.974 47.9062 12.4596 47.9062 11.8867C47.9062 11.3477 48.0716 10.8672 48.4023 10.4453C48.8216 9.90885 49.3828 9.64062 50.0859 9.64062C50.8099 9.64062 51.388 9.91536 51.8203 10.4648C52.1276 10.8529 52.2839 11.3372 52.2891 11.918H48.4688C48.4792 12.4128 48.6367 12.819 48.9414 13.1367C49.2461 13.4518 49.6224 13.6094 50.0703 13.6094C50.2865 13.6094 50.4961 13.5716 50.6992 13.4961C50.9049 13.4206 51.0794 13.3203 51.2227 13.1953C51.3659 13.0703 51.5208 12.8685 51.6875 12.5898ZM51.6875 11.4453C51.6146 11.1536 51.5078 10.9206 51.3672 10.7461C51.2292 10.5716 51.0456 10.431 50.8164 10.3242C50.5872 10.2174 50.3464 10.1641 50.0938 10.1641C49.6771 10.1641 49.319 10.2982 49.0195 10.5664C48.8008 10.7617 48.6354 11.0547 48.5234 11.4453H51.6875ZM55.4492 10.2148L55.0977 10.5781C54.806 10.2943 54.5208 10.1523 54.2422 10.1523C54.0651 10.1523 53.9128 10.2109 53.7852 10.3281C53.6602 10.4453 53.5977 10.582 53.5977 10.7383C53.5977 10.8763 53.6497 11.0078 53.7539 11.1328C53.8581 11.2604 54.0768 11.4102 54.4102 11.582C54.8164 11.793 55.0924 11.9961 55.2383 12.1914C55.3815 12.3893 55.4531 12.612 55.4531 12.8594C55.4531 13.2083 55.3307 13.5039 55.0859 13.7461C54.8411 13.9883 54.5352 14.1094 54.168 14.1094C53.9232 14.1094 53.6888 14.056 53.4648 13.9492C53.2435 13.8424 53.0599 13.6953 52.9141 13.5078L53.2578 13.1172C53.5365 13.4323 53.832 13.5898 54.1445 13.5898C54.3633 13.5898 54.5495 13.5195 54.7031 13.3789C54.8568 13.2383 54.9336 13.0729 54.9336 12.8828C54.9336 12.7266 54.8828 12.5872 54.7812 12.4648C54.6797 12.3451 54.4505 12.194 54.0938 12.0117C53.7109 11.8138 53.4505 11.6185 53.3125 11.4258C53.1745 11.2331 53.1055 11.013 53.1055 10.7656C53.1055 10.4427 53.2148 10.1745 53.4336 9.96094C53.6549 9.7474 53.9336 9.64062 54.2695 9.64062C54.6602 9.64062 55.0534 9.83203 55.4492 10.2148ZM58.4336 9.64062C59.0872 9.64062 59.6289 9.8776 60.0586 10.3516C60.4492 10.7839 60.6445 11.2956 60.6445 11.8867C60.6445 12.4805 60.4375 13 60.0234 13.4453C59.612 13.888 59.082 14.1094 58.4336 14.1094C57.7826 14.1094 57.25 13.888 56.8359 13.4453C56.4245 13 56.2188 12.4805 56.2188 11.8867C56.2188 11.2982 56.4141 10.7878 56.8047 10.3555C57.2344 9.87891 57.7773 9.64062 58.4336 9.64062ZM58.4336 10.1758C57.9805 10.1758 57.5911 10.3438 57.2656 10.6797C56.9401 11.0156 56.7773 11.4219 56.7773 11.8984C56.7773 12.2057 56.8516 12.4922 57 12.7578C57.1484 13.0234 57.349 13.2292 57.6016 13.375C57.8542 13.5182 58.1315 13.5898 58.4336 13.5898C58.7357 13.5898 59.013 13.5182 59.2656 13.375C59.5182 13.2292 59.7188 13.0234 59.8672 12.7578C60.0156 12.4922 60.0898 12.2057 60.0898 11.8984C60.0898 11.4219 59.9258 11.0156 59.5977 10.6797C59.2721 10.3438 58.8841 10.1758 58.4336 10.1758ZM61.6602 9.75H62.2031V10.4844C62.3932 10.2135 62.5885 10.0156 62.7891 9.89062C63.0651 9.72396 63.3555 9.64062 63.6602 9.64062C63.8659 9.64062 64.0612 9.68099 64.2461 9.76172C64.431 9.84245 64.582 9.95052 64.6992 10.0859C64.8164 10.2188 64.918 10.4102 65.0039 10.6602C65.1862 10.3268 65.4141 10.0742 65.6875 9.90234C65.9609 9.72786 66.2552 9.64062 66.5703 9.64062C66.8646 9.64062 67.1237 9.71484 67.3477 9.86328C67.5742 10.0117 67.7422 10.2188 67.8516 10.4844C67.9609 10.75 68.0156 11.1484 68.0156 11.6797V14H67.457V11.6797C67.457 11.224 67.4245 10.9115 67.3594 10.7422C67.2943 10.5703 67.1823 10.4323 67.0234 10.3281C66.8672 10.224 66.6797 10.1719 66.4609 10.1719C66.1953 10.1719 65.9518 10.25 65.7305 10.4062C65.5117 10.5625 65.3516 10.7708 65.25 11.0312C65.1484 11.2917 65.0977 11.7266 65.0977 12.3359V14H64.5547V11.8242C64.5547 11.3112 64.5221 10.9635 64.457 10.7812C64.3945 10.5964 64.2839 10.4492 64.125 10.3398C63.9661 10.2279 63.7773 10.1719 63.5586 10.1719C63.306 10.1719 63.069 10.2487 62.8477 10.4023C62.6289 10.5534 62.4661 10.7578 62.3594 11.0156C62.2552 11.2734 62.2031 11.668 62.2031 12.1992V14H61.6602V9.75ZM72.75 12.5898L73.2109 12.832C73.0599 13.1289 72.8854 13.3685 72.6875 13.5508C72.4896 13.7331 72.2669 13.8724 72.0195 13.9688C71.7721 14.0625 71.4922 14.1094 71.1797 14.1094C70.487 14.1094 69.9453 13.8828 69.5547 13.4297C69.1641 12.974 68.9688 12.4596 68.9688 11.8867C68.9688 11.3477 69.1341 10.8672 69.4648 10.4453C69.8841 9.90885 70.4453 9.64062 71.1484 9.64062C71.8724 9.64062 72.4505 9.91536 72.8828 10.4648C73.1901 10.8529 73.3464 11.3372 73.3516 11.918H69.5312C69.5417 12.4128 69.6992 12.819 70.0039 13.1367C70.3086 13.4518 70.6849 13.6094 71.1328 13.6094C71.349 13.6094 71.5586 13.5716 71.7617 13.4961C71.9674 13.4206 72.1419 13.3203 72.2852 13.1953C72.4284 13.0703 72.5833 12.8685 72.75 12.5898ZM72.75 11.4453C72.6771 11.1536 72.5703 10.9206 72.4297 10.7461C72.2917 10.5716 72.1081 10.431 71.8789 10.3242C71.6497 10.2174 71.4089 10.1641 71.1562 10.1641C70.7396 10.1641 70.3815 10.2982 70.082 10.5664C69.8633 10.7617 69.6979 11.0547 69.5859 11.4453H72.75ZM74.9766 13.1406C75.1094 13.1406 75.2227 13.1875 75.3164 13.2812C75.4102 13.375 75.457 13.4896 75.457 13.625C75.457 13.7578 75.4102 13.8724 75.3164 13.9688C75.2227 14.0625 75.1094 14.1094 74.9766 14.1094C74.8438 14.1094 74.7305 14.0625 74.6367 13.9688C74.543 13.8724 74.4961 13.7578 74.4961 13.625C74.4961 13.4896 74.543 13.375 74.6367 13.2812C74.7305 13.1875 74.8438 13.1406 74.9766 13.1406ZM78.8203 8.25391H79.3945V14H78.8203V8.25391ZM81.1016 8.17188H81.6523V9.75H82.5195V10.2188H81.6523V14H81.1016V10.2188H80.3555V9.75H81.1016V8.17188ZM83.7188 9.91797H83.3164L83.2305 8.10938H83.8086L83.7188 9.91797ZM87.0586 10.2148L86.707 10.5781C86.4154 10.2943 86.1302 10.1523 85.8516 10.1523C85.6745 10.1523 85.5221 10.2109 85.3945 10.3281C85.2695 10.4453 85.207 10.582 85.207 10.7383C85.207 10.8763 85.2591 11.0078 85.3633 11.1328C85.4674 11.2604 85.6862 11.4102 86.0195 11.582C86.4258 11.793 86.7018 11.9961 86.8477 12.1914C86.9909 12.3893 87.0625 12.612 87.0625 12.8594C87.0625 13.2083 86.9401 13.5039 86.6953 13.7461C86.4505 13.9883 86.1445 14.1094 85.7773 14.1094C85.5326 14.1094 85.2982 14.056 85.0742 13.9492C84.8529 13.8424 84.6693 13.6953 84.5234 13.5078L84.8672 13.1172C85.1458 13.4323 85.4414 13.5898 85.7539 13.5898C85.9727 13.5898 86.1589 13.5195 86.3125 13.3789C86.4661 13.2383 86.543 13.0729 86.543 12.8828C86.543 12.7266 86.4922 12.5872 86.3906 12.4648C86.2891 12.3451 86.0599 12.194 85.7031 12.0117C85.3203 11.8138 85.0599 11.6185 84.9219 11.4258C84.7839 11.2331 84.7148 11.013 84.7148 10.7656C84.7148 10.4427 84.8242 10.1745 85.043 9.96094C85.2643 9.7474 85.543 9.64062 85.8789 9.64062C86.2695 9.64062 86.6628 9.83203 87.0586 10.2148ZM16.8438 19.75V24H16.3047V23.2695C16.0755 23.5482 15.8177 23.7578 15.5312 23.8984C15.2474 24.0391 14.9362 24.1094 14.5977 24.1094C13.9961 24.1094 13.4818 23.8919 13.0547 23.457C12.6302 23.0195 12.418 22.4883 12.418 21.8633C12.418 21.2513 12.6328 20.7279 13.0625 20.293C13.4922 19.8581 14.0091 19.6406 14.6133 19.6406C14.9622 19.6406 15.2773 19.7148 15.5586 19.8633C15.8424 20.0117 16.0911 20.2344 16.3047 20.5312V19.75H16.8438ZM14.6562 20.168C14.3516 20.168 14.0703 20.2435 13.8125 20.3945C13.5547 20.543 13.349 20.7526 13.1953 21.0234C13.0443 21.2943 12.9688 21.5807 12.9688 21.8828C12.9688 22.1823 13.0456 22.4688 13.1992 22.7422C13.3529 23.0156 13.5586 23.2292 13.8164 23.3828C14.0768 23.5339 14.3555 23.6094 14.6523 23.6094C14.9518 23.6094 15.2357 23.5339 15.5039 23.3828C15.7721 23.2318 15.9779 23.0273 16.1211 22.7695C16.2669 22.5117 16.3398 22.2214 16.3398 21.8984C16.3398 21.4062 16.1771 20.9948 15.8516 20.6641C15.5286 20.3333 15.1302 20.168 14.6562 20.168ZM17.9961 18.1094H18.543V24H17.9961V18.1094ZM19.1055 19.75H19.668L20.9688 22.8359L22.332 19.75H22.4297L23.7891 22.8359L25.1133 19.75H25.6836L23.8398 24H23.7344L22.3828 20.957L21.0195 24H20.918L19.1055 19.75ZM30.5625 19.75V24H30.0234V23.2695C29.7943 23.5482 29.5365 23.7578 29.25 23.8984C28.9661 24.0391 28.6549 24.1094 28.3164 24.1094C27.7148 24.1094 27.2005 23.8919 26.7734 23.457C26.349 23.0195 26.1367 22.4883 26.1367 21.8633C26.1367 21.2513 26.3516 20.7279 26.7812 20.293C27.2109 19.8581 27.7279 19.6406 28.332 19.6406C28.681 19.6406 28.9961 19.7148 29.2773 19.8633C29.5612 20.0117 29.8099 20.2344 30.0234 20.5312V19.75H30.5625ZM28.375 20.168C28.0703 20.168 27.7891 20.2435 27.5312 20.3945C27.2734 20.543 27.0677 20.7526 26.9141 21.0234C26.763 21.2943 26.6875 21.5807 26.6875 21.8828C26.6875 22.1823 26.7643 22.4688 26.918 22.7422C27.0716 23.0156 27.2773 23.2292 27.5352 23.3828C27.7956 23.5339 28.0742 23.6094 28.3711 23.6094C28.6706 23.6094 28.9544 23.5339 29.2227 23.3828C29.4909 23.2318 29.6966 23.0273 29.8398 22.7695C29.9857 22.5117 30.0586 22.2214 30.0586 21.8984C30.0586 21.4062 29.8958 20.9948 29.5703 20.6641C29.2474 20.3333 28.849 20.168 28.375 20.168ZM31.3398 19.75H31.918L33.3789 23.0234L34.7969 19.75H35.3789L32.8438 25.5547H32.2656L33.0859 23.6797L31.3398 19.75ZM38.2227 20.2148L37.8711 20.5781C37.5794 20.2943 37.2943 20.1523 37.0156 20.1523C36.8385 20.1523 36.6862 20.2109 36.5586 20.3281C36.4336 20.4453 36.3711 20.582 36.3711 20.7383C36.3711 20.8763 36.4232 21.0078 36.5273 21.1328C36.6315 21.2604 36.8503 21.4102 37.1836 21.582C37.5898 21.793 37.8659 21.9961 38.0117 22.1914C38.1549 22.3893 38.2266 22.612 38.2266 22.8594C38.2266 23.2083 38.1042 23.5039 37.8594 23.7461C37.6146 23.9883 37.3086 24.1094 36.9414 24.1094C36.6966 24.1094 36.4622 24.056 36.2383 23.9492C36.0169 23.8424 35.8333 23.6953 35.6875 23.5078L36.0312 23.1172C36.3099 23.4323 36.6055 23.5898 36.918 23.5898C37.1367 23.5898 37.3229 23.5195 37.4766 23.3789C37.6302 23.2383 37.707 23.0729 37.707 22.8828C37.707 22.7266 37.6562 22.5872 37.5547 22.4648C37.4531 22.3451 37.224 22.194 36.8672 22.0117C36.4844 21.8138 36.224 21.6185 36.0859 21.4258C35.9479 21.2331 35.8789 21.013 35.8789 20.7656C35.8789 20.4427 35.9883 20.1745 36.207 19.9609C36.4284 19.7474 36.707 19.6406 37.043 19.6406C37.4336 19.6406 37.8268 19.832 38.2227 20.2148ZM45.0742 19.75H45.625V23.1367C45.625 23.7331 45.5729 24.1693 45.4688 24.4453C45.3255 24.8359 45.0768 25.1367 44.7227 25.3477C44.3685 25.5586 43.9427 25.6641 43.4453 25.6641C43.0807 25.6641 42.7526 25.612 42.4609 25.5078C42.1719 25.4062 41.9362 25.2682 41.7539 25.0938C41.5716 24.9219 41.4036 24.6693 41.25 24.3359H41.8438C42.0052 24.6172 42.2135 24.8255 42.4688 24.9609C42.724 25.0964 43.0404 25.1641 43.418 25.1641C43.7904 25.1641 44.1042 25.0938 44.3594 24.9531C44.6172 24.8151 44.8008 24.6406 44.9102 24.4297C45.0195 24.2188 45.0742 23.8789 45.0742 23.4102V23.1914C44.8685 23.4518 44.6172 23.6523 44.3203 23.793C44.0234 23.931 43.7083 24 43.375 24C42.9844 24 42.6172 23.9036 42.2734 23.7109C41.9297 23.5156 41.6641 23.2539 41.4766 22.9258C41.2891 22.5977 41.1953 22.237 41.1953 21.8438C41.1953 21.4505 41.293 21.0846 41.4883 20.7461C41.6836 20.4049 41.9531 20.1354 42.2969 19.9375C42.6432 19.7396 43.0078 19.6406 43.3906 19.6406C43.7083 19.6406 44.0039 19.707 44.2773 19.8398C44.5534 19.9701 44.819 20.1862 45.0742 20.4883V19.75ZM43.4609 20.168C43.151 20.168 42.8633 20.2435 42.5977 20.3945C42.332 20.543 42.1237 20.75 41.9727 21.0156C41.8216 21.2786 41.7461 21.5638 41.7461 21.8711C41.7461 22.3372 41.9023 22.7227 42.2148 23.0273C42.5273 23.332 42.9323 23.4844 43.4297 23.4844C43.9323 23.4844 44.3359 23.3333 44.6406 23.0312C44.9479 22.7292 45.1016 22.332 45.1016 21.8398C45.1016 21.5195 45.0312 21.2344 44.8906 20.9844C44.75 20.7318 44.5508 20.5326 44.293 20.3867C44.0352 20.2409 43.7578 20.168 43.4609 20.168ZM48.8086 19.6406C49.4622 19.6406 50.0039 19.8776 50.4336 20.3516C50.8242 20.7839 51.0195 21.2956 51.0195 21.8867C51.0195 22.4805 50.8125 23 50.3984 23.4453C49.987 23.888 49.457 24.1094 48.8086 24.1094C48.1576 24.1094 47.625 23.888 47.2109 23.4453C46.7995 23 46.5938 22.4805 46.5938 21.8867C46.5938 21.2982 46.7891 20.7878 47.1797 20.3555C47.6094 19.8789 48.1523 19.6406 48.8086 19.6406ZM48.8086 20.1758C48.3555 20.1758 47.9661 20.3438 47.6406 20.6797C47.3151 21.0156 47.1523 21.4219 47.1523 21.8984C47.1523 22.2057 47.2266 22.4922 47.375 22.7578C47.5234 23.0234 47.724 23.2292 47.9766 23.375C48.2292 23.5182 48.5065 23.5898 48.8086 23.5898C49.1107 23.5898 49.388 23.5182 49.6406 23.375C49.8932 23.2292 50.0938 23.0234 50.2422 22.7578C50.3906 22.4922 50.4648 22.2057 50.4648 21.8984C50.4648 21.4219 50.3008 21.0156 49.9727 20.6797C49.6471 20.3438 49.2591 20.1758 48.8086 20.1758ZM54.0508 19.6406C54.7044 19.6406 55.2461 19.8776 55.6758 20.3516C56.0664 20.7839 56.2617 21.2956 56.2617 21.8867C56.2617 22.4805 56.0547 23 55.6406 23.4453C55.2292 23.888 54.6992 24.1094 54.0508 24.1094C53.3997 24.1094 52.8672 23.888 52.4531 23.4453C52.0417 23 51.8359 22.4805 51.8359 21.8867C51.8359 21.2982 52.0312 20.7878 52.4219 20.3555C52.8516 19.8789 53.3945 19.6406 54.0508 19.6406ZM54.0508 20.1758C53.5977 20.1758 53.2083 20.3438 52.8828 20.6797C52.5573 21.0156 52.3945 21.4219 52.3945 21.8984C52.3945 22.2057 52.4688 22.4922 52.6172 22.7578C52.7656 23.0234 52.9661 23.2292 53.2188 23.375C53.4714 23.5182 53.7487 23.5898 54.0508 23.5898C54.3529 23.5898 54.6302 23.5182 54.8828 23.375C55.1354 23.2292 55.3359 23.0234 55.4844 22.7578C55.6328 22.4922 55.707 22.2057 55.707 21.8984C55.707 21.4219 55.543 21.0156 55.2148 20.6797C54.8893 20.3438 54.5013 20.1758 54.0508 20.1758ZM61.5234 18.1094V24H60.9844V23.2695C60.7552 23.5482 60.4974 23.7578 60.2109 23.8984C59.9271 24.0391 59.6159 24.1094 59.2773 24.1094C58.6758 24.1094 58.1615 23.8919 57.7344 23.457C57.3099 23.0195 57.0977 22.4883 57.0977 21.8633C57.0977 21.2513 57.3125 20.7279 57.7422 20.293C58.1719 19.8581 58.6888 19.6406 59.293 19.6406C59.6419 19.6406 59.957 19.7148 60.2383 19.8633C60.5221 20.0117 60.7708 20.2344 60.9844 20.5312V18.1094H61.5234ZM59.3359 20.168C59.0312 20.168 58.75 20.2435 58.4922 20.3945C58.2344 20.543 58.0286 20.7526 57.875 21.0234C57.724 21.2943 57.6484 21.5807 57.6484 21.8828C57.6484 22.1823 57.7253 22.4688 57.8789 22.7422C58.0326 23.0156 58.2383 23.2292 58.4961 23.3828C58.7565 23.5339 59.0352 23.6094 59.332 23.6094C59.6315 23.6094 59.9154 23.5339 60.1836 23.3828C60.4518 23.2318 60.6576 23.0273 60.8008 22.7695C60.9466 22.5117 61.0195 22.2214 61.0195 21.8984C61.0195 21.4062 60.8568 20.9948 60.5312 20.6641C60.2083 20.3333 59.8099 20.168 59.3359 20.168ZM65.4609 18.1719H66.0117V19.75H66.8789V20.2188H66.0117V24H65.4609V20.2188H64.7148V19.75H65.4609V18.1719ZM69.707 19.6406C70.3607 19.6406 70.9023 19.8776 71.332 20.3516C71.7227 20.7839 71.918 21.2956 71.918 21.8867C71.918 22.4805 71.7109 23 71.2969 23.4453C70.8854 23.888 70.3555 24.1094 69.707 24.1094C69.056 24.1094 68.5234 23.888 68.1094 23.4453C67.6979 23 67.4922 22.4805 67.4922 21.8867C67.4922 21.2982 67.6875 20.7878 68.0781 20.3555C68.5078 19.8789 69.0508 19.6406 69.707 19.6406ZM69.707 20.1758C69.2539 20.1758 68.8646 20.3438 68.5391 20.6797C68.2135 21.0156 68.0508 21.4219 68.0508 21.8984C68.0508 22.2057 68.125 22.4922 68.2734 22.7578C68.4219 23.0234 68.6224 23.2292 68.875 23.375C69.1276 23.5182 69.4049 23.5898 69.707 23.5898C70.0091 23.5898 70.2865 23.5182 70.5391 23.375C70.7917 23.2292 70.9922 23.0234 71.1406 22.7578C71.2891 22.4922 71.3633 22.2057 71.3633 21.8984C71.3633 21.4219 71.1992 21.0156 70.8711 20.6797C70.5456 20.3438 70.1576 20.1758 69.707 20.1758ZM75.1523 18.1094H75.7031V21.4609L77.668 19.75H78.4727L76.1406 21.7773L78.6094 24H77.8359L75.7031 22.0898V24H75.1523V18.1094ZM82.75 22.5898L83.2109 22.832C83.0599 23.1289 82.8854 23.3685 82.6875 23.5508C82.4896 23.7331 82.2669 23.8724 82.0195 23.9688C81.7721 24.0625 81.4922 24.1094 81.1797 24.1094C80.487 24.1094 79.9453 23.8828 79.5547 23.4297C79.1641 22.974 78.9688 22.4596 78.9688 21.8867C78.9688 21.3477 79.1341 20.8672 79.4648 20.4453C79.8841 19.9089 80.4453 19.6406 81.1484 19.6406C81.8724 19.6406 82.4505 19.9154 82.8828 20.4648C83.1901 20.8529 83.3464 21.3372 83.3516 21.918H79.5312C79.5417 22.4128 79.6992 22.819 80.0039 23.1367C80.3086 23.4518 80.6849 23.6094 81.1328 23.6094C81.349 23.6094 81.5586 23.5716 81.7617 23.4961C81.9674 23.4206 82.1419 23.3203 82.2852 23.1953C82.4284 23.0703 82.5833 22.8685 82.75 22.5898ZM82.75 21.4453C82.6771 21.1536 82.5703 20.9206 82.4297 20.7461C82.2917 20.5716 82.1081 20.431 81.8789 20.3242C81.6497 20.2174 81.4089 20.1641 81.1562 20.1641C80.7396 20.1641 80.3815 20.2982 80.082 20.5664C79.8633 20.7617 79.6979 21.0547 79.5859 21.4453H82.75ZM87.9531 22.5898L88.4141 22.832C88.263 23.1289 88.0885 23.3685 87.8906 23.5508C87.6927 23.7331 87.4701 23.8724 87.2227 23.9688C86.9753 24.0625 86.6953 24.1094 86.3828 24.1094C85.6901 24.1094 85.1484 23.8828 84.7578 23.4297C84.3672 22.974 84.1719 22.4596 84.1719 21.8867C84.1719 21.3477 84.3372 20.8672 84.668 20.4453C85.0872 19.9089 85.6484 19.6406 86.3516 19.6406C87.0755 19.6406 87.6536 19.9154 88.0859 20.4648C88.3932 20.8529 88.5495 21.3372 88.5547 21.918H84.7344C84.7448 22.4128 84.9023 22.819 85.207 23.1367C85.5117 23.4518 85.888 23.6094 86.3359 23.6094C86.5521 23.6094 86.7617 23.5716 86.9648 23.4961C87.1706 23.4206 87.3451 23.3203 87.4883 23.1953C87.6315 23.0703 87.7865 22.8685 87.9531 22.5898ZM87.9531 21.4453C87.8802 21.1536 87.7734 20.9206 87.6328 20.7461C87.4948 20.5716 87.3112 20.431 87.082 20.3242C86.8529 20.2174 86.612 20.1641 86.3594 20.1641C85.9427 20.1641 85.5846 20.2982 85.2852 20.5664C85.0664 20.7617 84.901 21.0547 84.7891 21.4453H87.9531ZM89.5859 19.75H90.1289V20.5312C90.3451 20.2344 90.5938 20.0117 90.875 19.8633C91.1562 19.7148 91.4701 19.6406 91.8164 19.6406C92.4206 19.6406 92.9375 19.8581 93.3672 20.293C93.7969 20.7279 94.0117 21.2513 94.0117 21.8633C94.0117 22.4883 93.7982 23.0195 93.3711 23.457C92.9466 23.8919 92.4336 24.1094 91.832 24.1094C91.4935 24.1094 91.1823 24.0391 90.8984 23.8984C90.6146 23.7578 90.3581 23.5482 90.1289 23.2695V25.5547H89.5859V19.75ZM91.7734 20.168C91.2995 20.168 90.8997 20.3333 90.5742 20.6641C90.2513 20.9948 90.0898 21.4062 90.0898 21.8984C90.0898 22.2214 90.1615 22.5117 90.3047 22.7695C90.4505 23.0273 90.6576 23.2318 90.9258 23.3828C91.1966 23.5339 91.4818 23.6094 91.7812 23.6094C92.0755 23.6094 92.3516 23.5339 92.6094 23.3828C92.8698 23.2292 93.0768 23.0156 93.2305 22.7422C93.3841 22.4688 93.4609 22.1823 93.4609 21.8828C93.4609 21.5807 93.3841 21.2943 93.2305 21.0234C93.0794 20.7526 92.875 20.543 92.6172 20.3945C92.3594 20.2435 92.0781 20.168 91.7734 20.168ZM12.8008 28C12.9258 28 13.0326 28.0443 13.1211 28.1328C13.2096 28.2214 13.2539 28.3281 13.2539 28.4531C13.2539 28.5755 13.2096 28.681 13.1211 28.7695C13.0326 28.8581 12.9258 28.9023 12.8008 28.9023C12.6784 28.9023 12.5729 28.8581 12.4844 28.7695C12.3958 28.681 12.3516 28.5755 12.3516 28.4531C12.3516 28.3281 12.3958 28.2214 12.4844 28.1328C12.5729 28.0443 12.6784 28 12.8008 28ZM12.5273 29.75H13.0781V34H12.5273V29.75ZM14.207 29.75H14.75V30.4844C14.9401 30.2135 15.1354 30.0156 15.3359 29.8906C15.612 29.724 15.9023 29.6406 16.207 29.6406C16.4128 29.6406 16.6081 29.681 16.793 29.7617C16.9779 29.8424 17.1289 29.9505 17.2461 30.0859C17.3633 30.2188 17.4648 30.4102 17.5508 30.6602C17.7331 30.3268 17.9609 30.0742 18.2344 29.9023C18.5078 29.7279 18.8021 29.6406 19.1172 29.6406C19.4115 29.6406 19.6706 29.7148 19.8945 29.8633C20.1211 30.0117 20.2891 30.2188 20.3984 30.4844C20.5078 30.75 20.5625 31.1484 20.5625 31.6797V34H20.0039V31.6797C20.0039 31.224 19.9714 30.9115 19.9062 30.7422C19.8411 30.5703 19.7292 30.4323 19.5703 30.3281C19.4141 30.224 19.2266 30.1719 19.0078 30.1719C18.7422 30.1719 18.4987 30.25 18.2773 30.4062C18.0586 30.5625 17.8984 30.7708 17.7969 31.0312C17.6953 31.2917 17.6445 31.7266 17.6445 32.3359V34H17.1016V31.8242C17.1016 31.3112 17.069 30.9635 17.0039 30.7812C16.9414 30.5964 16.8307 30.4492 16.6719 30.3398C16.513 30.2279 16.3242 30.1719 16.1055 30.1719C15.8529 30.1719 15.6159 30.2487 15.3945 30.4023C15.1758 30.5534 15.013 30.7578 14.9062 31.0156C14.8021 31.2734 14.75 31.668 14.75 32.1992V34H14.207V29.75ZM21.7266 29.75H22.2695V30.5312C22.4857 30.2344 22.7344 30.0117 23.0156 29.8633C23.2969 29.7148 23.6107 29.6406 23.957 29.6406C24.5612 29.6406 25.0781 29.8581 25.5078 30.293C25.9375 30.7279 26.1523 31.2513 26.1523 31.8633C26.1523 32.4883 25.9388 33.0195 25.5117 33.457C25.0872 33.8919 24.5742 34.1094 23.9727 34.1094C23.6341 34.1094 23.3229 34.0391 23.0391 33.8984C22.7552 33.7578 22.4987 33.5482 22.2695 33.2695V35.5547H21.7266V29.75ZM23.9141 30.168C23.4401 30.168 23.0404 30.3333 22.7148 30.6641C22.3919 30.9948 22.2305 31.4062 22.2305 31.8984C22.2305 32.2214 22.3021 32.5117 22.4453 32.7695C22.5911 33.0273 22.7982 33.2318 23.0664 33.3828C23.3372 33.5339 23.6224 33.6094 23.9219 33.6094C24.2161 33.6094 24.4922 33.5339 24.75 33.3828C25.0104 33.2292 25.2174 33.0156 25.3711 32.7422C25.5247 32.4688 25.6016 32.1823 25.6016 31.8828C25.6016 31.5807 25.5247 31.2943 25.3711 31.0234C25.2201 30.7526 25.0156 30.543 24.7578 30.3945C24.5 30.2435 24.2188 30.168 23.9141 30.168ZM26.9727 29.75H27.5312V30.3711C27.6979 30.1263 27.8737 29.944 28.0586 29.8242C28.2435 29.7018 28.4362 29.6406 28.6367 29.6406C28.7878 29.6406 28.9492 29.6888 29.1211 29.7852L28.8359 30.2461C28.7214 30.1966 28.625 30.1719 28.5469 30.1719C28.3646 30.1719 28.1888 30.2474 28.0195 30.3984C27.8503 30.5469 27.7214 30.7786 27.6328 31.0938C27.5651 31.3359 27.5312 31.8255 27.5312 32.5625V34H26.9727V29.75ZM31.5977 29.6406C32.2513 29.6406 32.793 29.8776 33.2227 30.3516C33.6133 30.7839 33.8086 31.2956 33.8086 31.8867C33.8086 32.4805 33.6016 33 33.1875 33.4453C32.776 33.888 32.2461 34.1094 31.5977 34.1094C30.9466 34.1094 30.4141 33.888 30 33.4453C29.5885 33 29.3828 32.4805 29.3828 31.8867C29.3828 31.2982 29.5781 30.7878 29.9688 30.3555C30.3984 29.8789 30.9414 29.6406 31.5977 29.6406ZM31.5977 30.1758C31.1445 30.1758 30.7552 30.3438 30.4297 30.6797C30.1042 31.0156 29.9414 31.4219 29.9414 31.8984C29.9414 32.2057 30.0156 32.4922 30.1641 32.7578C30.3125 33.0234 30.513 33.2292 30.7656 33.375C31.0182 33.5182 31.2956 33.5898 31.5977 33.5898C31.8997 33.5898 32.1771 33.5182 32.4297 33.375C32.6823 33.2292 32.8828 33.0234 33.0312 32.7578C33.1797 32.4922 33.2539 32.2057 33.2539 31.8984C33.2539 31.4219 33.0898 31.0156 32.7617 30.6797C32.4362 30.3438 32.0482 30.1758 31.5977 30.1758ZM34.4258 29.75H35.0078L36.4297 32.8438L37.8398 29.75H38.4258L36.4805 34H36.3828L34.4258 29.75ZM39.457 28C39.582 28 39.6888 28.0443 39.7773 28.1328C39.8659 28.2214 39.9102 28.3281 39.9102 28.4531C39.9102 28.5755 39.8659 28.681 39.7773 28.7695C39.6888 28.8581 39.582 28.9023 39.457 28.9023C39.3346 28.9023 39.2292 28.8581 39.1406 28.7695C39.0521 28.681 39.0078 28.5755 39.0078 28.4531C39.0078 28.3281 39.0521 28.2214 39.1406 28.1328C39.2292 28.0443 39.3346 28 39.457 28ZM39.1836 29.75H39.7344V34H39.1836V29.75ZM40.8672 29.75H41.4141V30.5117C41.6328 30.2201 41.875 30.0026 42.1406 29.8594C42.4062 29.7135 42.6953 29.6406 43.0078 29.6406C43.3255 29.6406 43.6068 29.7214 43.8516 29.8828C44.099 30.0443 44.2812 30.2617 44.3984 30.5352C44.5156 30.8086 44.5742 31.2344 44.5742 31.8125V34H44.0312V31.9727C44.0312 31.4831 44.0104 31.1562 43.9688 30.9922C43.9036 30.7109 43.7812 30.5 43.6016 30.3594C43.4219 30.2161 43.1875 30.1445 42.8984 30.1445C42.5677 30.1445 42.2708 30.2539 42.0078 30.4727C41.7474 30.6914 41.5755 30.9622 41.4922 31.2852C41.4401 31.4961 41.4141 31.8815 41.4141 32.4414V34H40.8672V29.75ZM49.4102 29.75H49.9609V33.1367C49.9609 33.7331 49.9089 34.1693 49.8047 34.4453C49.6615 34.8359 49.4128 35.1367 49.0586 35.3477C48.7044 35.5586 48.2786 35.6641 47.7812 35.6641C47.4167 35.6641 47.0885 35.612 46.7969 35.5078C46.5078 35.4062 46.2721 35.2682 46.0898 35.0938C45.9076 34.9219 45.7396 34.6693 45.5859 34.3359H46.1797C46.3411 34.6172 46.5495 34.8255 46.8047 34.9609C47.0599 35.0964 47.3763 35.1641 47.7539 35.1641C48.1263 35.1641 48.4401 35.0938 48.6953 34.9531C48.9531 34.8151 49.1367 34.6406 49.2461 34.4297C49.3555 34.2188 49.4102 33.8789 49.4102 33.4102V33.1914C49.2044 33.4518 48.9531 33.6523 48.6562 33.793C48.3594 33.931 48.0443 34 47.7109 34C47.3203 34 46.9531 33.9036 46.6094 33.7109C46.2656 33.5156 46 33.2539 45.8125 32.9258C45.625 32.5977 45.5312 32.237 45.5312 31.8438C45.5312 31.4505 45.6289 31.0846 45.8242 30.7461C46.0195 30.4049 46.2891 30.1354 46.6328 29.9375C46.9792 29.7396 47.3438 29.6406 47.7266 29.6406C48.0443 29.6406 48.3398 29.707 48.6133 29.8398C48.8893 29.9701 49.1549 30.1862 49.4102 30.4883V29.75ZM47.7969 30.168C47.487 30.168 47.1992 30.2435 46.9336 30.3945C46.668 30.543 46.4596 30.75 46.3086 31.0156C46.1576 31.2786 46.082 31.5638 46.082 31.8711C46.082 32.3372 46.2383 32.7227 46.5508 33.0273C46.8633 33.332 47.2682 33.4844 47.7656 33.4844C48.2682 33.4844 48.6719 33.3333 48.9766 33.0312C49.2839 32.7292 49.4375 32.332 49.4375 31.8398C49.4375 31.5195 49.3672 31.2344 49.2266 30.9844C49.0859 30.7318 48.8867 30.5326 48.6289 30.3867C48.3711 30.2409 48.0938 30.168 47.7969 30.168ZM51.7344 33.1406C51.8672 33.1406 51.9805 33.1875 52.0742 33.2812C52.168 33.375 52.2148 33.4896 52.2148 33.625C52.2148 33.7578 52.168 33.8724 52.0742 33.9688C51.9805 34.0625 51.8672 34.1094 51.7344 34.1094C51.6016 34.1094 51.4883 34.0625 51.3945 33.9688C51.3008 33.8724 51.2539 33.7578 51.2539 33.625C51.2539 33.4896 51.3008 33.375 51.3945 33.2812C51.4883 33.1875 51.6016 33.1406 51.7344 33.1406Z" fill="white"/>
</svg>
