<svg width="133" height="62" viewBox="0 0 133 62" fill="none" xmlns="http://www.w3.org/2000/svg">
<path d="M132 1V47.7552H15.0949L1 53.9434V1H132Z" fill="black" stroke="black"/>
<path d="M14.3813 10.2705V9.57227H18.3218V10.2705H16.7202V16.7549H15.9878V10.2705H14.3813ZM19.2397 9.3916H19.9233V12.3945C20.2 12.0299 20.5044 11.7581 20.8364 11.5791C21.1685 11.3968 21.5282 11.3057 21.9155 11.3057C22.3127 11.3057 22.6642 11.4066 22.9702 11.6084C23.2795 11.8102 23.5073 12.082 23.6538 12.4238C23.8003 12.7624 23.8735 13.2946 23.8735 14.0205V16.7549H23.1899V14.2207C23.1899 13.6087 23.1655 13.2002 23.1167 12.9951C23.0321 12.6436 22.8774 12.3799 22.6528 12.2041C22.4315 12.0251 22.1401 11.9355 21.7788 11.9355C21.3654 11.9355 20.9943 12.0723 20.6655 12.3457C20.34 12.6191 20.1252 12.9577 20.021 13.3613C19.9559 13.6217 19.9233 14.1035 19.9233 14.8066V16.7549H19.2397V9.3916ZM30.6362 11.4424V16.7549H29.9624V15.8418C29.6759 16.1901 29.3537 16.4521 28.9956 16.6279C28.6408 16.8037 28.2518 16.8916 27.8286 16.8916C27.0767 16.8916 26.4338 16.6198 25.8999 16.0762C25.3693 15.5293 25.104 14.8652 25.104 14.084C25.104 13.319 25.3726 12.6647 25.9097 12.1211C26.4468 11.5775 27.0929 11.3057 27.8481 11.3057C28.2843 11.3057 28.6782 11.3984 29.0298 11.584C29.3846 11.7695 29.6955 12.0479 29.9624 12.4189V11.4424H30.6362ZM27.9019 11.9648C27.521 11.9648 27.1694 12.0592 26.8472 12.248C26.5249 12.4336 26.2677 12.6956 26.0757 13.0342C25.8869 13.3727 25.7925 13.7308 25.7925 14.1084C25.7925 14.4827 25.8885 14.8408 26.0806 15.1826C26.2726 15.5244 26.5298 15.7913 26.8521 15.9834C27.1776 16.1722 27.5259 16.2666 27.897 16.2666C28.2713 16.2666 28.6261 16.1722 28.9614 15.9834C29.2967 15.7946 29.5539 15.5391 29.7329 15.2168C29.9152 14.8945 30.0063 14.5316 30.0063 14.1279C30.0063 13.5127 29.8029 12.9984 29.396 12.585C28.9924 12.1715 28.4943 11.9648 27.9019 11.9648ZM32.7749 9.46973H33.4634V11.4424H34.5474V12.0283H33.4634V16.7549H32.7749V12.0283H31.8423V11.4424H32.7749V9.46973ZM36.0464 11.6523H35.5435L35.436 9.3916H36.1587L36.0464 11.6523ZM40.2212 12.0234L39.7817 12.4775C39.4172 12.1227 39.0607 11.9453 38.7124 11.9453C38.491 11.9453 38.3006 12.0186 38.1411 12.165C37.9849 12.3115 37.9067 12.4824 37.9067 12.6777C37.9067 12.8503 37.9718 13.0146 38.1021 13.1709C38.2323 13.3304 38.5057 13.5176 38.9224 13.7324C39.4302 13.9961 39.7752 14.25 39.9575 14.4941C40.1366 14.7415 40.2261 15.0199 40.2261 15.3291C40.2261 15.7653 40.0731 16.1348 39.7671 16.4375C39.4611 16.7402 39.0786 16.8916 38.6196 16.8916C38.3136 16.8916 38.0207 16.8249 37.7407 16.6914C37.464 16.5579 37.2345 16.374 37.0522 16.1396L37.4819 15.6514C37.8302 16.0452 38.1997 16.2422 38.5903 16.2422C38.8638 16.2422 39.0965 16.1543 39.2886 15.9785C39.4806 15.8027 39.5767 15.596 39.5767 15.3584C39.5767 15.1631 39.5132 14.9889 39.3862 14.8359C39.2593 14.6862 38.9728 14.4974 38.5269 14.2695C38.0483 14.0221 37.7228 13.778 37.5503 13.5371C37.3778 13.2962 37.2915 13.0212 37.2915 12.7119C37.2915 12.3083 37.4282 11.973 37.7017 11.7061C37.9784 11.4391 38.3267 11.3057 38.7466 11.3057C39.2349 11.3057 39.7264 11.5449 40.2212 12.0234ZM49.5034 11.4424V16.7549H48.8296V15.8418C48.5431 16.1901 48.2209 16.4521 47.8628 16.6279C47.508 16.8037 47.119 16.8916 46.6958 16.8916C45.9438 16.8916 45.3009 16.6198 44.7671 16.0762C44.2365 15.5293 43.9712 14.8652 43.9712 14.084C43.9712 13.319 44.2397 12.6647 44.7769 12.1211C45.314 11.5775 45.9601 11.3057 46.7153 11.3057C47.1515 11.3057 47.5454 11.3984 47.897 11.584C48.2518 11.7695 48.5627 12.0479 48.8296 12.4189V11.4424H49.5034ZM46.769 11.9648C46.3882 11.9648 46.0366 12.0592 45.7144 12.248C45.3921 12.4336 45.1349 12.6956 44.9429 13.0342C44.7541 13.3727 44.6597 13.7308 44.6597 14.1084C44.6597 14.4827 44.7557 14.8408 44.9478 15.1826C45.1398 15.5244 45.397 15.7913 45.7192 15.9834C46.0448 16.1722 46.3931 16.2666 46.7642 16.2666C47.1385 16.2666 47.4933 16.1722 47.8286 15.9834C48.1639 15.7946 48.4211 15.5391 48.6001 15.2168C48.7824 14.8945 48.8735 14.5316 48.8735 14.1279C48.8735 13.5127 48.6701 12.9984 48.2632 12.585C47.8595 12.1715 47.3615 11.9648 46.769 11.9648ZM50.3286 11.4424H51.0317L52.6577 15.2998L54.3618 11.4424H54.4839L56.1831 15.2998L57.8384 11.4424H58.5513L56.2466 16.7549H56.1147L54.4253 12.9512L52.7212 16.7549H52.5942L50.3286 11.4424ZM63.8296 14.9922L64.4058 15.2949C64.217 15.666 63.9989 15.9655 63.7515 16.1934C63.5041 16.4212 63.2257 16.5954 62.9165 16.7158C62.6073 16.833 62.2573 16.8916 61.8667 16.8916C61.0008 16.8916 60.3237 16.6084 59.8354 16.042C59.3472 15.4723 59.103 14.8294 59.103 14.1133C59.103 13.4395 59.3097 12.8389 59.7231 12.3115C60.2472 11.641 60.9487 11.3057 61.8276 11.3057C62.7326 11.3057 63.4552 11.6491 63.9956 12.3359C64.3797 12.821 64.575 13.4264 64.5815 14.1523H59.8062C59.8192 14.7708 60.0161 15.2786 60.397 15.6758C60.7778 16.0697 61.2482 16.2666 61.8081 16.2666C62.0783 16.2666 62.3403 16.2194 62.5942 16.125C62.8514 16.0306 63.0695 15.9053 63.2485 15.749C63.4276 15.5928 63.6213 15.3405 63.8296 14.9922ZM63.8296 13.5615C63.7384 13.1969 63.605 12.9056 63.4292 12.6875C63.2567 12.4694 63.0272 12.2936 62.7407 12.1602C62.4543 12.0267 62.1532 11.96 61.8374 11.96C61.3166 11.96 60.869 12.1276 60.4946 12.4629C60.2212 12.707 60.0145 13.0732 59.8745 13.5615H63.8296ZM68.5317 12.0234L68.0923 12.4775C67.7277 12.1227 67.3713 11.9453 67.0229 11.9453C66.8016 11.9453 66.6112 12.0186 66.4517 12.165C66.2954 12.3115 66.2173 12.4824 66.2173 12.6777C66.2173 12.8503 66.2824 13.0146 66.4126 13.1709C66.5428 13.3304 66.8162 13.5176 67.2329 13.7324C67.7407 13.9961 68.0858 14.25 68.2681 14.4941C68.4471 14.7415 68.5366 15.0199 68.5366 15.3291C68.5366 15.7653 68.3836 16.1348 68.0776 16.4375C67.7716 16.7402 67.3892 16.8916 66.9302 16.8916C66.6242 16.8916 66.3312 16.8249 66.0513 16.6914C65.7746 16.5579 65.5451 16.374 65.3628 16.1396L65.7925 15.6514C66.1408 16.0452 66.5103 16.2422 66.9009 16.2422C67.1743 16.2422 67.4071 16.1543 67.5991 15.9785C67.7912 15.8027 67.8872 15.596 67.8872 15.3584C67.8872 15.1631 67.8237 14.9889 67.6968 14.8359C67.5698 14.6862 67.2834 14.4974 66.8374 14.2695C66.3589 14.0221 66.0334 13.778 65.8608 13.5371C65.6883 13.2962 65.6021 13.0212 65.6021 12.7119C65.6021 12.3083 65.7388 11.973 66.0122 11.7061C66.2889 11.4391 66.6372 11.3057 67.0571 11.3057C67.5454 11.3057 68.0369 11.5449 68.5317 12.0234ZM72.2622 11.3057C73.0793 11.3057 73.7563 11.6019 74.2935 12.1943C74.7817 12.7347 75.0259 13.3743 75.0259 14.1133C75.0259 14.8555 74.7671 15.5049 74.2495 16.0615C73.7352 16.6149 73.0728 16.8916 72.2622 16.8916C71.4484 16.8916 70.7827 16.6149 70.2651 16.0615C69.7508 15.5049 69.4937 14.8555 69.4937 14.1133C69.4937 13.3776 69.7378 12.7396 70.2261 12.1992C70.7632 11.6035 71.4419 11.3057 72.2622 11.3057ZM72.2622 11.9746C71.6958 11.9746 71.2091 12.1846 70.8022 12.6045C70.3953 13.0244 70.1919 13.5322 70.1919 14.1279C70.1919 14.512 70.2847 14.8701 70.4702 15.2021C70.6558 15.5342 70.9064 15.7913 71.2222 15.9736C71.5379 16.1527 71.8846 16.2422 72.2622 16.2422C72.6398 16.2422 72.9865 16.1527 73.3022 15.9736C73.618 15.7913 73.8687 15.5342 74.0542 15.2021C74.2397 14.8701 74.3325 14.512 74.3325 14.1279C74.3325 13.5322 74.1274 13.0244 73.7173 12.6045C73.3104 12.1846 72.8254 11.9746 72.2622 11.9746ZM76.2954 11.4424H76.9741V12.3604C77.2118 12.0218 77.4559 11.7744 77.7065 11.6182C78.0516 11.4098 78.4146 11.3057 78.7954 11.3057C79.0526 11.3057 79.2967 11.3561 79.5278 11.457C79.759 11.5579 79.9478 11.693 80.0942 11.8623C80.2407 12.0283 80.3677 12.2676 80.4751 12.5801C80.703 12.1634 80.9878 11.8477 81.3296 11.6328C81.6714 11.4147 82.0392 11.3057 82.4331 11.3057C82.8009 11.3057 83.1248 11.3984 83.4048 11.584C83.688 11.7695 83.8979 12.0283 84.0347 12.3604C84.1714 12.6924 84.2397 13.1904 84.2397 13.8545V16.7549H83.5415V13.8545C83.5415 13.2848 83.5008 12.8942 83.4194 12.6826C83.3381 12.4678 83.1981 12.2952 82.9995 12.165C82.8042 12.0348 82.5698 11.9697 82.2964 11.9697C81.9644 11.9697 81.66 12.0674 81.3833 12.2627C81.1099 12.458 80.9097 12.7184 80.7827 13.0439C80.6558 13.3695 80.5923 13.9131 80.5923 14.6748V16.7549H79.9136V14.0352C79.9136 13.3939 79.8729 12.9593 79.7915 12.7314C79.7134 12.5003 79.575 12.3164 79.3765 12.1797C79.1779 12.0397 78.9419 11.9697 78.6685 11.9697C78.3527 11.9697 78.0565 12.0658 77.7798 12.2578C77.5063 12.4466 77.3029 12.7021 77.1694 13.0244C77.0392 13.3467 76.9741 13.8398 76.9741 14.5039V16.7549H76.2954V11.4424ZM90.1577 14.9922L90.7339 15.2949C90.5451 15.666 90.327 15.9655 90.0796 16.1934C89.8322 16.4212 89.5539 16.5954 89.2446 16.7158C88.9354 16.833 88.5854 16.8916 88.1948 16.8916C87.3289 16.8916 86.6519 16.6084 86.1636 16.042C85.6753 15.4723 85.4312 14.8294 85.4312 14.1133C85.4312 13.4395 85.6379 12.8389 86.0513 12.3115C86.5754 11.641 87.2769 11.3057 88.1558 11.3057C89.0607 11.3057 89.7834 11.6491 90.3237 12.3359C90.7078 12.821 90.9032 13.4264 90.9097 14.1523H86.1343C86.1473 14.7708 86.3442 15.2786 86.7251 15.6758C87.106 16.0697 87.5763 16.2666 88.1362 16.2666C88.4064 16.2666 88.6685 16.2194 88.9224 16.125C89.1795 16.0306 89.3976 15.9053 89.5767 15.749C89.7557 15.5928 89.9494 15.3405 90.1577 14.9922ZM90.1577 13.5615C90.0666 13.1969 89.9331 12.9056 89.7573 12.6875C89.5848 12.4694 89.3553 12.2936 89.0688 12.1602C88.7824 12.0267 88.4813 11.96 88.1655 11.96C87.6447 11.96 87.1971 12.1276 86.8228 12.4629C86.5493 12.707 86.3426 13.0732 86.2026 13.5615H90.1577ZM92.9409 15.6807C93.1069 15.6807 93.2485 15.7393 93.3657 15.8564C93.4829 15.9736 93.5415 16.1169 93.5415 16.2861C93.5415 16.4521 93.4829 16.5954 93.3657 16.7158C93.2485 16.833 93.1069 16.8916 92.9409 16.8916C92.7749 16.8916 92.6333 16.833 92.5161 16.7158C92.3989 16.5954 92.3403 16.4521 92.3403 16.2861C92.3403 16.1169 92.3989 15.9736 92.5161 15.8564C92.6333 15.7393 92.7749 15.6807 92.9409 15.6807ZM97.7456 9.57227H98.4634V16.7549H97.7456V9.57227ZM100.597 9.46973H101.286V11.4424H102.37V12.0283H101.286V16.7549H100.597V12.0283H99.6646V11.4424H100.597V9.46973ZM103.869 11.6523H103.366L103.258 9.3916H103.981L103.869 11.6523ZM108.043 12.0234L107.604 12.4775C107.239 12.1227 106.883 11.9453 106.535 11.9453C106.313 11.9453 106.123 12.0186 105.963 12.165C105.807 12.3115 105.729 12.4824 105.729 12.6777C105.729 12.8503 105.794 13.0146 105.924 13.1709C106.055 13.3304 106.328 13.5176 106.745 13.7324C107.252 13.9961 107.597 14.25 107.78 14.4941C107.959 14.7415 108.048 15.0199 108.048 15.3291C108.048 15.7653 107.895 16.1348 107.589 16.4375C107.283 16.7402 106.901 16.8916 106.442 16.8916C106.136 16.8916 105.843 16.8249 105.563 16.6914C105.286 16.5579 105.057 16.374 104.875 16.1396L105.304 15.6514C105.653 16.0452 106.022 16.2422 106.413 16.2422C106.686 16.2422 106.919 16.1543 107.111 15.9785C107.303 15.8027 107.399 15.596 107.399 15.3584C107.399 15.1631 107.335 14.9889 107.208 14.8359C107.082 14.6862 106.795 14.4974 106.349 14.2695C105.871 14.0221 105.545 13.778 105.373 13.5371C105.2 13.2962 105.114 13.0212 105.114 12.7119C105.114 12.3083 105.25 11.973 105.524 11.7061C105.801 11.4391 106.149 11.3057 106.569 11.3057C107.057 11.3057 107.549 11.5449 108.043 12.0234ZM20.2749 23.4424V28.7549H19.6011V27.8418C19.3146 28.1901 18.9924 28.4521 18.6343 28.6279C18.2795 28.8037 17.8905 28.8916 17.4673 28.8916C16.7153 28.8916 16.0724 28.6198 15.5386 28.0762C15.008 27.5293 14.7427 26.8652 14.7427 26.084C14.7427 25.319 15.0112 24.6647 15.5483 24.1211C16.0854 23.5775 16.7316 23.3057 17.4868 23.3057C17.923 23.3057 18.3169 23.3984 18.6685 23.584C19.0233 23.7695 19.3341 24.0479 19.6011 24.4189V23.4424H20.2749ZM17.5405 23.9648C17.1597 23.9648 16.8081 24.0592 16.4858 24.248C16.1636 24.4336 15.9064 24.6956 15.7144 25.0342C15.5256 25.3727 15.4312 25.7308 15.4312 26.1084C15.4312 26.4827 15.5272 26.8408 15.7192 27.1826C15.9113 27.5244 16.1685 27.7913 16.4907 27.9834C16.8162 28.1722 17.1646 28.2666 17.5356 28.2666C17.91 28.2666 18.2648 28.1722 18.6001 27.9834C18.9354 27.7946 19.1925 27.5391 19.3716 27.2168C19.5539 26.8945 19.645 26.5316 19.645 26.1279C19.645 25.5127 19.4416 24.9984 19.0347 24.585C18.631 24.1715 18.133 23.9648 17.5405 23.9648ZM21.7153 21.3916H22.3989V28.7549H21.7153V21.3916ZM23.1021 23.4424H23.8052L25.4312 27.2998L27.1353 23.4424H27.2573L28.9565 27.2998L30.6118 23.4424H31.3247L29.02 28.7549H28.8882L27.1987 24.9512L25.4946 28.7549H25.3677L23.1021 23.4424ZM37.4233 23.4424V28.7549H36.7495V27.8418C36.4631 28.1901 36.1408 28.4521 35.7827 28.6279C35.4279 28.8037 35.0389 28.8916 34.6157 28.8916C33.8638 28.8916 33.2209 28.6198 32.687 28.0762C32.1564 27.5293 31.8911 26.8652 31.8911 26.084C31.8911 25.319 32.1597 24.6647 32.6968 24.1211C33.2339 23.5775 33.88 23.3057 34.6353 23.3057C35.0715 23.3057 35.4653 23.3984 35.8169 23.584C36.1717 23.7695 36.4826 24.0479 36.7495 24.4189V23.4424H37.4233ZM34.689 23.9648C34.3081 23.9648 33.9565 24.0592 33.6343 24.248C33.312 24.4336 33.0549 24.6956 32.8628 25.0342C32.674 25.3727 32.5796 25.7308 32.5796 26.1084C32.5796 26.4827 32.6756 26.8408 32.8677 27.1826C33.0597 27.5244 33.3169 27.7913 33.6392 27.9834C33.9647 28.1722 34.313 28.2666 34.6841 28.2666C35.0584 28.2666 35.4132 28.1722 35.7485 27.9834C36.0838 27.7946 36.341 27.5391 36.52 27.2168C36.7023 26.8945 36.7935 26.5316 36.7935 26.1279C36.7935 25.5127 36.59 24.9984 36.1831 24.585C35.7795 24.1715 35.2814 23.9648 34.689 23.9648ZM38.395 23.4424H39.1177L40.9438 27.5342L42.7163 23.4424H43.4438L40.2749 30.6982H39.5522L40.5776 28.3545L38.395 23.4424ZM46.9985 24.0234L46.5591 24.4775C46.1945 24.1227 45.8381 23.9453 45.4897 23.9453C45.2684 23.9453 45.078 24.0186 44.9185 24.165C44.7622 24.3115 44.6841 24.4824 44.6841 24.6777C44.6841 24.8503 44.7492 25.0146 44.8794 25.1709C45.0096 25.3304 45.283 25.5176 45.6997 25.7324C46.2075 25.9961 46.5526 26.25 46.7349 26.4941C46.9139 26.7415 47.0034 27.0199 47.0034 27.3291C47.0034 27.7653 46.8504 28.1348 46.5444 28.4375C46.2384 28.7402 45.856 28.8916 45.397 28.8916C45.091 28.8916 44.798 28.8249 44.5181 28.6914C44.2414 28.5579 44.0119 28.374 43.8296 28.1396L44.2593 27.6514C44.6076 28.0452 44.9771 28.2422 45.3677 28.2422C45.6411 28.2422 45.8739 28.1543 46.0659 27.9785C46.258 27.8027 46.354 27.596 46.354 27.3584C46.354 27.1631 46.2905 26.9889 46.1636 26.8359C46.0366 26.6862 45.7502 26.4974 45.3042 26.2695C44.8257 26.0221 44.5002 25.778 44.3276 25.5371C44.1551 25.2962 44.0688 25.0212 44.0688 24.7119C44.0688 24.3083 44.2056 23.973 44.479 23.7061C44.7557 23.4391 45.104 23.3057 45.5239 23.3057C46.0122 23.3057 46.5037 23.5449 46.9985 24.0234ZM55.563 23.4424H56.2515V27.6758C56.2515 28.4212 56.1864 28.9665 56.0562 29.3115C55.8771 29.7998 55.5662 30.1758 55.1235 30.4395C54.6808 30.7031 54.1486 30.835 53.5269 30.835C53.0711 30.835 52.661 30.7699 52.2964 30.6396C51.9351 30.5127 51.6405 30.3402 51.4126 30.1221C51.1847 29.9072 50.9748 29.5915 50.7827 29.1748H51.5249C51.7267 29.5264 51.9871 29.7868 52.3062 29.9561C52.6252 30.1253 53.0207 30.21 53.4927 30.21C53.9582 30.21 54.3504 30.1221 54.6694 29.9463C54.9917 29.7738 55.2212 29.5557 55.3579 29.292C55.4946 29.0283 55.563 28.6035 55.563 28.0176V27.7441C55.3058 28.0697 54.9917 28.3203 54.6206 28.4961C54.2495 28.6686 53.8556 28.7549 53.439 28.7549C52.9507 28.7549 52.4917 28.6344 52.062 28.3936C51.6323 28.1494 51.3003 27.8223 51.0659 27.4121C50.8315 27.002 50.7144 26.5511 50.7144 26.0596C50.7144 25.568 50.8364 25.1107 51.0806 24.6875C51.3247 24.2611 51.6616 23.9242 52.0913 23.6768C52.5243 23.4294 52.98 23.3057 53.4585 23.3057C53.8556 23.3057 54.2251 23.3887 54.5669 23.5547C54.9119 23.7174 55.244 23.9876 55.563 24.3652V23.4424ZM53.5464 23.9648C53.159 23.9648 52.7993 24.0592 52.4673 24.248C52.1353 24.4336 51.8748 24.6924 51.686 25.0244C51.4972 25.3532 51.4028 25.7096 51.4028 26.0938C51.4028 26.6764 51.5981 27.1582 51.9888 27.5391C52.3794 27.9199 52.8856 28.1104 53.5073 28.1104C54.1356 28.1104 54.6401 27.9215 55.021 27.5439C55.4051 27.1663 55.5972 26.6699 55.5972 26.0547C55.5972 25.6543 55.5093 25.2979 55.3335 24.9854C55.1577 24.6696 54.9087 24.4206 54.5864 24.2383C54.2642 24.056 53.9175 23.9648 53.5464 23.9648ZM60.231 23.3057C61.048 23.3057 61.7251 23.6019 62.2622 24.1943C62.7505 24.7347 62.9946 25.3743 62.9946 26.1133C62.9946 26.8555 62.7358 27.5049 62.2183 28.0615C61.7039 28.6149 61.0415 28.8916 60.231 28.8916C59.4172 28.8916 58.7515 28.6149 58.2339 28.0615C57.7196 27.5049 57.4624 26.8555 57.4624 26.1133C57.4624 25.3776 57.7065 24.7396 58.1948 24.1992C58.7319 23.6035 59.4106 23.3057 60.231 23.3057ZM60.231 23.9746C59.6646 23.9746 59.1779 24.1846 58.771 24.6045C58.3641 25.0244 58.1606 25.5322 58.1606 26.1279C58.1606 26.512 58.2534 26.8701 58.439 27.2021C58.6245 27.5342 58.8752 27.7913 59.1909 27.9736C59.5067 28.1527 59.8534 28.2422 60.231 28.2422C60.6086 28.2422 60.9552 28.1527 61.271 27.9736C61.5868 27.7913 61.8374 27.5342 62.0229 27.2021C62.2085 26.8701 62.3013 26.512 62.3013 26.1279C62.3013 25.5322 62.0962 25.0244 61.686 24.6045C61.2791 24.1846 60.7941 23.9746 60.231 23.9746ZM66.7837 23.3057C67.6007 23.3057 68.2778 23.6019 68.8149 24.1943C69.3032 24.7347 69.5474 25.3743 69.5474 26.1133C69.5474 26.8555 69.2886 27.5049 68.771 28.0615C68.2567 28.6149 67.5942 28.8916 66.7837 28.8916C65.9699 28.8916 65.3042 28.6149 64.7866 28.0615C64.2723 27.5049 64.0151 26.8555 64.0151 26.1133C64.0151 25.3776 64.2593 24.7396 64.7476 24.1992C65.2847 23.6035 65.9634 23.3057 66.7837 23.3057ZM66.7837 23.9746C66.2173 23.9746 65.7306 24.1846 65.3237 24.6045C64.9168 25.0244 64.7134 25.5322 64.7134 26.1279C64.7134 26.512 64.8062 26.8701 64.9917 27.2021C65.1772 27.5342 65.4279 27.7913 65.7437 27.9736C66.0594 28.1527 66.4061 28.2422 66.7837 28.2422C67.1613 28.2422 67.508 28.1527 67.8237 27.9736C68.1395 27.7913 68.3901 27.5342 68.5757 27.2021C68.7612 26.8701 68.854 26.512 68.854 26.1279C68.854 25.5322 68.6489 25.0244 68.2388 24.6045C67.8319 24.1846 67.3468 23.9746 66.7837 23.9746ZM76.1245 21.3916V28.7549H75.4507V27.8418C75.1642 28.1901 74.842 28.4521 74.4839 28.6279C74.1291 28.8037 73.7401 28.8916 73.3169 28.8916C72.5649 28.8916 71.922 28.6198 71.3882 28.0762C70.8576 27.5293 70.5923 26.8652 70.5923 26.084C70.5923 25.319 70.8608 24.6647 71.3979 24.1211C71.9351 23.5775 72.5812 23.3057 73.3364 23.3057C73.7726 23.3057 74.1665 23.3984 74.5181 23.584C74.8729 23.7695 75.1838 24.0479 75.4507 24.4189V21.3916H76.1245ZM73.3901 23.9648C73.0093 23.9648 72.6577 24.0592 72.3354 24.248C72.0132 24.4336 71.756 24.6956 71.564 25.0342C71.3752 25.3727 71.2808 25.7308 71.2808 26.1084C71.2808 26.4827 71.3768 26.8408 71.5688 27.1826C71.7609 27.5244 72.0181 27.7913 72.3403 27.9834C72.6659 28.1722 73.0142 28.2666 73.3853 28.2666C73.7596 28.2666 74.1144 28.1722 74.4497 27.9834C74.785 27.7946 75.0422 27.5391 75.2212 27.2168C75.4035 26.8945 75.4946 26.5316 75.4946 26.1279C75.4946 25.5127 75.2912 24.9984 74.8843 24.585C74.4806 24.1715 73.9826 23.9648 73.3901 23.9648ZM81.0464 21.4697H81.7349V23.4424H82.8188V24.0283H81.7349V28.7549H81.0464V24.0283H80.1138V23.4424H81.0464V21.4697ZM86.354 23.3057C87.1711 23.3057 87.8481 23.6019 88.3853 24.1943C88.8735 24.7347 89.1177 25.3743 89.1177 26.1133C89.1177 26.8555 88.8589 27.5049 88.3413 28.0615C87.827 28.6149 87.1646 28.8916 86.354 28.8916C85.5402 28.8916 84.8745 28.6149 84.3569 28.0615C83.8426 27.5049 83.5854 26.8555 83.5854 26.1133C83.5854 25.3776 83.8296 24.7396 84.3179 24.1992C84.855 23.6035 85.5337 23.3057 86.354 23.3057ZM86.354 23.9746C85.7876 23.9746 85.3009 24.1846 84.894 24.6045C84.4871 25.0244 84.2837 25.5322 84.2837 26.1279C84.2837 26.512 84.3765 26.8701 84.562 27.2021C84.7476 27.5342 84.9982 27.7913 85.314 27.9736C85.6297 28.1527 85.9764 28.2422 86.354 28.2422C86.7316 28.2422 87.0783 28.1527 87.394 27.9736C87.7098 27.7913 87.9604 27.5342 88.146 27.2021C88.3315 26.8701 88.4243 26.512 88.4243 26.1279C88.4243 25.5322 88.2192 25.0244 87.8091 24.6045C87.4022 24.1846 86.9172 23.9746 86.354 23.9746ZM93.1606 21.3916H93.8491V25.5811L96.3052 23.4424H97.311L94.396 25.9766L97.4819 28.7549H96.5151L93.8491 26.3672V28.7549H93.1606V21.3916ZM102.658 26.9922L103.234 27.2949C103.045 27.666 102.827 27.9655 102.58 28.1934C102.332 28.4212 102.054 28.5954 101.745 28.7158C101.435 28.833 101.085 28.8916 100.695 28.8916C99.8289 28.8916 99.1519 28.6084 98.6636 28.042C98.1753 27.4723 97.9312 26.8294 97.9312 26.1133C97.9312 25.4395 98.1379 24.8389 98.5513 24.3115C99.0754 23.641 99.7769 23.3057 100.656 23.3057C101.561 23.3057 102.283 23.6491 102.824 24.3359C103.208 24.821 103.403 25.4264 103.41 26.1523H98.6343C98.6473 26.7708 98.8442 27.2786 99.2251 27.6758C99.606 28.0697 100.076 28.2666 100.636 28.2666C100.906 28.2666 101.168 28.2194 101.422 28.125C101.68 28.0306 101.898 27.9053 102.077 27.749C102.256 27.5928 102.449 27.3405 102.658 26.9922ZM102.658 25.5615C102.567 25.1969 102.433 24.9056 102.257 24.6875C102.085 24.4694 101.855 24.2936 101.569 24.1602C101.282 24.0267 100.981 23.96 100.666 23.96C100.145 23.96 99.6971 24.1276 99.3228 24.4629C99.0493 24.707 98.8426 25.0732 98.7026 25.5615H102.658ZM109.162 26.9922L109.738 27.2949C109.549 27.666 109.331 27.9655 109.083 28.1934C108.836 28.4212 108.558 28.5954 108.249 28.7158C107.939 28.833 107.589 28.8916 107.199 28.8916C106.333 28.8916 105.656 28.6084 105.167 28.042C104.679 27.4723 104.435 26.8294 104.435 26.1133C104.435 25.4395 104.642 24.8389 105.055 24.3115C105.579 23.641 106.281 23.3057 107.16 23.3057C108.065 23.3057 108.787 23.6491 109.328 24.3359C109.712 24.821 109.907 25.4264 109.914 26.1523H105.138C105.151 26.7708 105.348 27.2786 105.729 27.6758C106.11 28.0697 106.58 28.2666 107.14 28.2666C107.41 28.2666 107.672 28.2194 107.926 28.125C108.183 28.0306 108.402 27.9053 108.581 27.749C108.76 27.5928 108.953 27.3405 109.162 26.9922ZM109.162 25.5615C109.07 25.1969 108.937 24.9056 108.761 24.6875C108.589 24.4694 108.359 24.2936 108.073 24.1602C107.786 24.0267 107.485 23.96 107.169 23.96C106.649 23.96 106.201 24.1276 105.827 24.4629C105.553 24.707 105.347 25.0732 105.207 25.5615H109.162ZM111.203 23.4424H111.881V24.4189C112.152 24.0479 112.462 23.7695 112.814 23.584C113.166 23.3984 113.558 23.3057 113.991 23.3057C114.746 23.3057 115.392 23.5775 115.929 24.1211C116.466 24.6647 116.735 25.319 116.735 26.084C116.735 26.8652 116.468 27.5293 115.934 28.0762C115.403 28.6198 114.762 28.8916 114.01 28.8916C113.587 28.8916 113.198 28.8037 112.843 28.6279C112.488 28.4521 112.168 28.1901 111.881 27.8418V30.6982H111.203V23.4424ZM113.937 23.9648C113.345 23.9648 112.845 24.1715 112.438 24.585C112.034 24.9984 111.833 25.5127 111.833 26.1279C111.833 26.5316 111.922 26.8945 112.101 27.2168C112.283 27.5391 112.542 27.7946 112.877 27.9834C113.216 28.1722 113.572 28.2666 113.947 28.2666C114.315 28.2666 114.66 28.1722 114.982 27.9834C115.307 27.7913 115.566 27.5244 115.758 27.1826C115.95 26.8408 116.046 26.4827 116.046 26.1084C116.046 25.7308 115.95 25.3727 115.758 25.0342C115.569 24.6956 115.314 24.4336 114.992 24.248C114.669 24.0592 114.318 23.9648 113.937 23.9648ZM15.2212 33.2549C15.3774 33.2549 15.5109 33.3102 15.6216 33.4209C15.7323 33.5316 15.7876 33.665 15.7876 33.8213C15.7876 33.9743 15.7323 34.1061 15.6216 34.2168C15.5109 34.3275 15.3774 34.3828 15.2212 34.3828C15.0682 34.3828 14.9364 34.3275 14.8257 34.2168C14.715 34.1061 14.6597 33.9743 14.6597 33.8213C14.6597 33.665 14.715 33.5316 14.8257 33.4209C14.9364 33.3102 15.0682 33.2549 15.2212 33.2549ZM14.8794 35.4424H15.5679V40.7549H14.8794V35.4424ZM16.979 35.4424H17.6577V36.3604C17.8953 36.0218 18.1395 35.7744 18.3901 35.6182C18.7352 35.4098 19.0981 35.3057 19.479 35.3057C19.7362 35.3057 19.9803 35.3561 20.2114 35.457C20.4425 35.5579 20.6313 35.693 20.7778 35.8623C20.9243 36.0283 21.0513 36.2676 21.1587 36.5801C21.3866 36.1634 21.6714 35.8477 22.0132 35.6328C22.355 35.4147 22.7228 35.3057 23.1167 35.3057C23.4845 35.3057 23.8084 35.3984 24.0884 35.584C24.3716 35.7695 24.5815 36.0283 24.7183 36.3604C24.855 36.6924 24.9233 37.1904 24.9233 37.8545V40.7549H24.2251V37.8545C24.2251 37.2848 24.1844 36.8942 24.103 36.6826C24.0216 36.4678 23.8817 36.2952 23.6831 36.165C23.4878 36.0348 23.2534 35.9697 22.98 35.9697C22.6479 35.9697 22.3436 36.0674 22.0669 36.2627C21.7935 36.458 21.5933 36.7184 21.4663 37.0439C21.3394 37.3695 21.2759 37.9131 21.2759 38.6748V40.7549H20.5972V38.0352C20.5972 37.3939 20.5565 36.9593 20.4751 36.7314C20.397 36.5003 20.2586 36.3164 20.0601 36.1797C19.8615 36.0397 19.6255 35.9697 19.3521 35.9697C19.0363 35.9697 18.7401 36.0658 18.4634 36.2578C18.1899 36.4466 17.9865 36.7021 17.853 37.0244C17.7228 37.3467 17.6577 37.8398 17.6577 38.5039V40.7549H16.979V35.4424ZM26.3784 35.4424H27.0571V36.4189C27.3273 36.0479 27.6382 35.7695 27.9897 35.584C28.3413 35.3984 28.7336 35.3057 29.1665 35.3057C29.9217 35.3057 30.5679 35.5775 31.105 36.1211C31.6421 36.6647 31.9106 37.319 31.9106 38.084C31.9106 38.8652 31.6437 39.5293 31.1099 40.0762C30.5793 40.6198 29.938 40.8916 29.186 40.8916C28.7629 40.8916 28.3739 40.8037 28.019 40.6279C27.6642 40.4521 27.3436 40.1901 27.0571 39.8418V42.6982H26.3784V35.4424ZM29.1128 35.9648C28.5203 35.9648 28.0207 36.1715 27.6138 36.585C27.2101 36.9984 27.0083 37.5127 27.0083 38.1279C27.0083 38.5316 27.0978 38.8945 27.2769 39.2168C27.4591 39.5391 27.7179 39.7946 28.0532 39.9834C28.3918 40.1722 28.7482 40.2666 29.1226 40.2666C29.4904 40.2666 29.8354 40.1722 30.1577 39.9834C30.4832 39.7913 30.742 39.5244 30.9341 39.1826C31.1261 38.8408 31.2222 38.4827 31.2222 38.1084C31.2222 37.7308 31.1261 37.3727 30.9341 37.0342C30.7453 36.6956 30.4897 36.4336 30.1675 36.248C29.8452 36.0592 29.4937 35.9648 29.1128 35.9648ZM32.936 35.4424H33.6343V36.2188C33.8426 35.9128 34.0623 35.6849 34.2935 35.5352C34.5246 35.3822 34.7655 35.3057 35.0161 35.3057C35.2049 35.3057 35.4067 35.3659 35.6216 35.4863L35.2651 36.0625C35.1219 36.0007 35.0015 35.9697 34.9038 35.9697C34.6759 35.9697 34.4562 36.0641 34.2446 36.2529C34.033 36.4385 33.8719 36.7282 33.7612 37.1221C33.6766 37.4248 33.6343 38.0368 33.6343 38.958V40.7549H32.936V35.4424ZM38.7173 35.3057C39.5343 35.3057 40.2114 35.6019 40.7485 36.1943C41.2368 36.7347 41.481 37.3743 41.481 38.1133C41.481 38.8555 41.2222 39.5049 40.7046 40.0615C40.1903 40.6149 39.5278 40.8916 38.7173 40.8916C37.9035 40.8916 37.2378 40.6149 36.7202 40.0615C36.2059 39.5049 35.9487 38.8555 35.9487 38.1133C35.9487 37.3776 36.1929 36.7396 36.6812 36.1992C37.2183 35.6035 37.897 35.3057 38.7173 35.3057ZM38.7173 35.9746C38.1509 35.9746 37.6642 36.1846 37.2573 36.6045C36.8504 37.0244 36.647 37.5322 36.647 38.1279C36.647 38.512 36.7397 38.8701 36.9253 39.2021C37.1108 39.5342 37.3615 39.7913 37.6772 39.9736C37.993 40.1527 38.3397 40.2422 38.7173 40.2422C39.0949 40.2422 39.4416 40.1527 39.7573 39.9736C40.0731 39.7913 40.3237 39.5342 40.5093 39.2021C40.6948 38.8701 40.7876 38.512 40.7876 38.1279C40.7876 37.5322 40.5825 37.0244 40.1724 36.6045C39.7655 36.1846 39.2804 35.9746 38.7173 35.9746ZM42.2524 35.4424H42.98L44.7573 39.3096L46.52 35.4424H47.2524L44.8208 40.7549H44.6987L42.2524 35.4424ZM48.5415 33.2549C48.6978 33.2549 48.8312 33.3102 48.9419 33.4209C49.0526 33.5316 49.1079 33.665 49.1079 33.8213C49.1079 33.9743 49.0526 34.1061 48.9419 34.2168C48.8312 34.3275 48.6978 34.3828 48.5415 34.3828C48.3885 34.3828 48.2567 34.3275 48.146 34.2168C48.0353 34.1061 47.98 33.9743 47.98 33.8213C47.98 33.665 48.0353 33.5316 48.146 33.4209C48.2567 33.3102 48.3885 33.2549 48.5415 33.2549ZM48.1997 35.4424H48.8882V40.7549H48.1997V35.4424ZM50.3042 35.4424H50.9878V36.3945C51.2612 36.0299 51.564 35.7581 51.896 35.5791C52.228 35.3968 52.5894 35.3057 52.98 35.3057C53.3771 35.3057 53.7287 35.4066 54.0347 35.6084C54.3439 35.8102 54.5718 36.082 54.7183 36.4238C54.8647 36.7656 54.938 37.2979 54.938 38.0205V40.7549H54.2593V38.2207C54.2593 37.6087 54.2332 37.2002 54.1812 36.9951C54.0998 36.6436 53.9468 36.3799 53.7222 36.2041C53.4976 36.0251 53.2046 35.9355 52.8433 35.9355C52.4299 35.9355 52.0588 36.0723 51.73 36.3457C51.4045 36.6191 51.1896 36.9577 51.0854 37.3613C51.0203 37.625 50.9878 38.1068 50.9878 38.8066V40.7549H50.3042V35.4424ZM60.9829 35.4424H61.6714V39.6758C61.6714 40.4212 61.6063 40.9665 61.4761 41.3115C61.297 41.7998 60.9862 42.1758 60.5435 42.4395C60.1007 42.7031 59.5685 42.835 58.9468 42.835C58.491 42.835 58.0809 42.7699 57.7163 42.6396C57.355 42.5127 57.0604 42.3402 56.8325 42.1221C56.6047 41.9072 56.3947 41.5915 56.2026 41.1748H56.9448C57.1466 41.5264 57.4071 41.7868 57.7261 41.9561C58.0451 42.1253 58.4406 42.21 58.9126 42.21C59.3781 42.21 59.7703 42.1221 60.0894 41.9463C60.4116 41.7738 60.6411 41.5557 60.7778 41.292C60.9146 41.0283 60.9829 40.6035 60.9829 40.0176V39.7441C60.7257 40.0697 60.4116 40.3203 60.0405 40.4961C59.6694 40.6686 59.2756 40.7549 58.8589 40.7549C58.3706 40.7549 57.9116 40.6344 57.4819 40.3936C57.0522 40.1494 56.7202 39.8223 56.4858 39.4121C56.2515 39.002 56.1343 38.5511 56.1343 38.0596C56.1343 37.568 56.2563 37.1107 56.5005 36.6875C56.7446 36.2611 57.0815 35.9242 57.5112 35.6768C57.9442 35.4294 58.3999 35.3057 58.8784 35.3057C59.2756 35.3057 59.645 35.3887 59.9868 35.5547C60.3319 35.7174 60.6639 35.9876 60.9829 36.3652V35.4424ZM58.9663 35.9648C58.5789 35.9648 58.2192 36.0592 57.8872 36.248C57.5552 36.4336 57.2948 36.6924 57.106 37.0244C56.9172 37.3532 56.8228 37.7096 56.8228 38.0938C56.8228 38.6764 57.0181 39.1582 57.4087 39.5391C57.7993 39.9199 58.3055 40.1104 58.9272 40.1104C59.5555 40.1104 60.0601 39.9215 60.4409 39.5439C60.825 39.1663 61.0171 38.6699 61.0171 38.0547C61.0171 37.6543 60.9292 37.2979 60.7534 36.9854C60.5776 36.6696 60.3286 36.4206 60.0063 36.2383C59.6841 36.056 59.3374 35.9648 58.9663 35.9648ZM63.8882 39.6807C64.0542 39.6807 64.1958 39.7393 64.313 39.8564C64.4302 39.9736 64.4888 40.1169 64.4888 40.2861C64.4888 40.4521 64.4302 40.5954 64.313 40.7158C64.1958 40.833 64.0542 40.8916 63.8882 40.8916C63.7222 40.8916 63.5806 40.833 63.4634 40.7158C63.3462 40.5954 63.2876 40.4521 63.2876 40.2861C63.2876 40.1169 63.3462 39.9736 63.4634 39.8564C63.5806 39.7393 63.7222 39.6807 63.8882 39.6807Z" fill="white"/>
</svg>
