<svg width="147" height="91" viewBox="0 0 147 91" fill="none" xmlns="http://www.w3.org/2000/svg">
<g filter="url(#filter0_d_286_521)">
<path d="M82 2V17.3513C82 17.9036 82.4477 18.3513 83 18.3513H135.14C135.255 18.3513 135.369 18.3711 135.477 18.4096L140.405 20.1704C141.056 20.403 141.742 19.9202 141.742 19.2287V2C141.742 1.44772 141.294 1 140.742 1H83C82.4477 1 82 1.44772 82 2Z" fill="#F8F8F8" stroke="#3A3A3A"/>
<path d="M85 64V79.3513C85 79.9036 85.4477 80.3513 86 80.3513H135.455C135.575 80.3513 135.694 80.373 135.807 80.4154L140.389 82.1392C141.043 82.3852 141.742 81.9019 141.742 81.2033V64C141.742 63.4477 141.294 63 140.742 63H86C85.4477 63 85 63.4477 85 64Z" fill="#F8F8F8" stroke="#3A3A3A"/>
<path d="M92.6914 6.25391H93.2695V8.66406H96.1914V6.25391H96.7695V12H96.1914V9.22656H93.2695V12H92.6914V6.25391ZM98.2695 6C98.3945 6 98.5013 6.04427 98.5898 6.13281C98.6784 6.22135 98.7227 6.32812 98.7227 6.45312C98.7227 6.57552 98.6784 6.68099 98.5898 6.76953C98.5013 6.85807 98.3945 6.90234 98.2695 6.90234C98.1471 6.90234 98.0417 6.85807 97.9531 6.76953C97.8646 6.68099 97.8203 6.57552 97.8203 6.45312C97.8203 6.32812 97.8646 6.22135 97.9531 6.13281C98.0417 6.04427 98.1471 6 98.2695 6ZM97.9961 7.75H98.5469V12H97.9961V7.75ZM100.223 10.9453L100.75 11.1953L99.957 12.6719L99.5703 12.5078L100.223 10.9453ZM103.91 7.75H104.469V8.37109C104.635 8.1263 104.811 7.94401 104.996 7.82422C105.181 7.70182 105.374 7.64062 105.574 7.64062C105.725 7.64062 105.887 7.6888 106.059 7.78516L105.773 8.24609C105.659 8.19661 105.562 8.17188 105.484 8.17188C105.302 8.17188 105.126 8.2474 104.957 8.39844C104.788 8.54688 104.659 8.77865 104.57 9.09375C104.503 9.33594 104.469 9.82552 104.469 10.5625V12H103.91V7.75ZM110.102 10.5898L110.562 10.832C110.411 11.1289 110.237 11.3685 110.039 11.5508C109.841 11.7331 109.618 11.8724 109.371 11.9688C109.124 12.0625 108.844 12.1094 108.531 12.1094C107.839 12.1094 107.297 11.8828 106.906 11.4297C106.516 10.974 106.32 10.4596 106.32 9.88672C106.32 9.34766 106.486 8.86719 106.816 8.44531C107.236 7.90885 107.797 7.64062 108.5 7.64062C109.224 7.64062 109.802 7.91536 110.234 8.46484C110.542 8.85286 110.698 9.33724 110.703 9.91797H106.883C106.893 10.4128 107.051 10.819 107.355 11.1367C107.66 11.4518 108.036 11.6094 108.484 11.6094C108.701 11.6094 108.91 11.5716 109.113 11.4961C109.319 11.4206 109.493 11.3203 109.637 11.1953C109.78 11.0703 109.935 10.8685 110.102 10.5898ZM110.102 9.44531C110.029 9.15365 109.922 8.92057 109.781 8.74609C109.643 8.57161 109.46 8.43099 109.23 8.32422C109.001 8.21745 108.76 8.16406 108.508 8.16406C108.091 8.16406 107.733 8.29818 107.434 8.56641C107.215 8.76172 107.049 9.05469 106.938 9.44531H110.102ZM115.961 7.75V12H115.422V11.2695C115.193 11.5482 114.935 11.7578 114.648 11.8984C114.365 12.0391 114.053 12.1094 113.715 12.1094C113.113 12.1094 112.599 11.8919 112.172 11.457C111.747 11.0195 111.535 10.4883 111.535 9.86328C111.535 9.2513 111.75 8.72786 112.18 8.29297C112.609 7.85807 113.126 7.64062 113.73 7.64062C114.079 7.64062 114.395 7.71484 114.676 7.86328C114.96 8.01172 115.208 8.23438 115.422 8.53125V7.75H115.961ZM113.773 8.16797C113.469 8.16797 113.188 8.24349 112.93 8.39453C112.672 8.54297 112.466 8.7526 112.312 9.02344C112.161 9.29427 112.086 9.58073 112.086 9.88281C112.086 10.1823 112.163 10.4688 112.316 10.7422C112.47 11.0156 112.676 11.2292 112.934 11.3828C113.194 11.5339 113.473 11.6094 113.77 11.6094C114.069 11.6094 114.353 11.5339 114.621 11.3828C114.889 11.2318 115.095 11.0273 115.238 10.7695C115.384 10.5117 115.457 10.2214 115.457 9.89844C115.457 9.40625 115.294 8.99479 114.969 8.66406C114.646 8.33333 114.247 8.16797 113.773 8.16797ZM121.438 6.10938V12H120.898V11.2695C120.669 11.5482 120.411 11.7578 120.125 11.8984C119.841 12.0391 119.53 12.1094 119.191 12.1094C118.59 12.1094 118.076 11.8919 117.648 11.457C117.224 11.0195 117.012 10.4883 117.012 9.86328C117.012 9.2513 117.227 8.72786 117.656 8.29297C118.086 7.85807 118.603 7.64062 119.207 7.64062C119.556 7.64062 119.871 7.71484 120.152 7.86328C120.436 8.01172 120.685 8.23438 120.898 8.53125V6.10938H121.438ZM119.25 8.16797C118.945 8.16797 118.664 8.24349 118.406 8.39453C118.148 8.54297 117.943 8.7526 117.789 9.02344C117.638 9.29427 117.562 9.58073 117.562 9.88281C117.562 10.1823 117.639 10.4688 117.793 10.7422C117.947 11.0156 118.152 11.2292 118.41 11.3828C118.671 11.5339 118.949 11.6094 119.246 11.6094C119.546 11.6094 119.829 11.5339 120.098 11.3828C120.366 11.2318 120.572 11.0273 120.715 10.7695C120.861 10.5117 120.934 10.2214 120.934 9.89844C120.934 9.40625 120.771 8.99479 120.445 8.66406C120.122 8.33333 119.724 8.16797 119.25 8.16797ZM122.223 7.75H122.801L124.262 11.0234L125.68 7.75H126.262L123.727 13.5547H123.148L123.969 11.6797L122.223 7.75ZM129.809 7.81641H129.242C129.247 7.29036 129.404 6.875 129.711 6.57031C130.021 6.26302 130.435 6.10938 130.953 6.10938C131.464 6.10938 131.865 6.23828 132.156 6.49609C132.448 6.75391 132.594 7.07422 132.594 7.45703C132.594 7.63932 132.553 7.80859 132.473 7.96484C132.395 8.11849 132.275 8.25781 132.113 8.38281C131.952 8.50521 131.669 8.64583 131.266 8.80469C130.758 9.00781 130.451 9.15885 130.344 9.25781C130.234 9.35938 130.18 9.48177 130.18 9.625C130.18 9.77604 130.253 9.91146 130.398 10.0312C130.547 10.151 130.738 10.2109 130.973 10.2109C131.23 10.2109 131.428 10.1458 131.566 10.0156C131.704 9.88281 131.789 9.67188 131.82 9.38281H132.391C132.372 9.81771 132.237 10.1562 131.984 10.3984C131.734 10.638 131.397 10.7578 130.973 10.7578C130.551 10.7578 130.215 10.6484 129.965 10.4297C129.715 10.2109 129.59 9.94141 129.59 9.62109C129.59 9.46484 129.624 9.31771 129.691 9.17969C129.762 9.03906 129.859 8.92188 129.984 8.82812C130.112 8.73438 130.35 8.61589 130.699 8.47266C131.262 8.24349 131.622 8.07161 131.781 7.95703C131.938 7.84245 132.016 7.67839 132.016 7.46484C132.016 7.23828 131.919 7.04688 131.727 6.89062C131.536 6.73438 131.281 6.65625 130.961 6.65625C130.57 6.65625 130.267 6.78516 130.051 7.04297C129.9 7.22266 129.819 7.48047 129.809 7.81641ZM130.949 11.1406C131.082 11.1406 131.195 11.1875 131.289 11.2812C131.383 11.375 131.43 11.4896 131.43 11.625C131.43 11.7578 131.383 11.8724 131.289 11.9688C131.195 12.0625 131.082 12.1094 130.949 12.1094C130.816 12.1094 130.703 12.0625 130.609 11.9688C130.516 11.8724 130.469 11.7578 130.469 11.625C130.469 11.4896 130.516 11.375 130.609 11.2812C130.703 11.1875 130.816 11.1406 130.949 11.1406Z" fill="black"/>
<path d="M92.6992 69.2539H93.2773V74.4453H95.4844V75H92.6992V69.2539ZM99.8828 73.5898L100.344 73.832C100.193 74.1289 100.018 74.3685 99.8203 74.5508C99.6224 74.7331 99.3997 74.8724 99.1523 74.9688C98.9049 75.0625 98.625 75.1094 98.3125 75.1094C97.6198 75.1094 97.0781 74.8828 96.6875 74.4297C96.2969 73.974 96.1016 73.4596 96.1016 72.8867C96.1016 72.3477 96.2669 71.8672 96.5977 71.4453C97.0169 70.9089 97.5781 70.6406 98.2812 70.6406C99.0052 70.6406 99.5833 70.9154 100.016 71.4648C100.323 71.8529 100.479 72.3372 100.484 72.918H96.6641C96.6745 73.4128 96.832 73.819 97.1367 74.1367C97.4414 74.4518 97.8177 74.6094 98.2656 74.6094C98.4818 74.6094 98.6914 74.5716 98.8945 74.4961C99.1003 74.4206 99.2747 74.3203 99.418 74.1953C99.5612 74.0703 99.7161 73.8685 99.8828 73.5898ZM99.8828 72.4453C99.8099 72.1536 99.7031 71.9206 99.5625 71.7461C99.4245 71.5716 99.2409 71.431 99.0117 71.3242C98.7826 71.2174 98.5417 71.1641 98.2891 71.1641C97.8724 71.1641 97.5143 71.2982 97.2148 71.5664C96.9961 71.7617 96.8307 72.0547 96.7188 72.4453H99.8828ZM101.984 69.1719H102.535V70.75H103.402V71.2188H102.535V75H101.984V71.2188H101.238V70.75H101.984V69.1719ZM104.965 71.2539L104.664 71.082C104.763 70.8841 104.829 70.7292 104.863 70.6172C104.897 70.5052 104.922 70.3607 104.938 70.1836H104.594V69.1094H105.301V69.7812C105.301 70.1172 105.277 70.3815 105.23 70.5742C105.186 70.7643 105.098 70.9909 104.965 71.2539ZM109.168 71.2148L108.816 71.5781C108.525 71.2943 108.24 71.1523 107.961 71.1523C107.784 71.1523 107.632 71.2109 107.504 71.3281C107.379 71.4453 107.316 71.582 107.316 71.7383C107.316 71.8763 107.368 72.0078 107.473 72.1328C107.577 72.2604 107.796 72.4102 108.129 72.582C108.535 72.793 108.811 72.9961 108.957 73.1914C109.1 73.3893 109.172 73.612 109.172 73.8594C109.172 74.2083 109.049 74.5039 108.805 74.7461C108.56 74.9883 108.254 75.1094 107.887 75.1094C107.642 75.1094 107.408 75.056 107.184 74.9492C106.962 74.8424 106.779 74.6953 106.633 74.5078L106.977 74.1172C107.255 74.4323 107.551 74.5898 107.863 74.5898C108.082 74.5898 108.268 74.5195 108.422 74.3789C108.576 74.2383 108.652 74.0729 108.652 73.8828C108.652 73.7266 108.602 73.5872 108.5 73.4648C108.398 73.3451 108.169 73.194 107.812 73.0117C107.43 72.8138 107.169 72.6185 107.031 72.4258C106.893 72.2331 106.824 72.013 106.824 71.7656C106.824 71.4427 106.934 71.1745 107.152 70.9609C107.374 70.7474 107.652 70.6406 107.988 70.6406C108.379 70.6406 108.772 70.832 109.168 71.2148ZM112.445 69.2539H113.59C114.246 69.2539 114.689 69.2826 114.918 69.3398C115.246 69.4206 115.514 69.5872 115.723 69.8398C115.931 70.0898 116.035 70.4049 116.035 70.7852C116.035 71.168 115.934 71.4844 115.73 71.7344C115.527 71.9818 115.247 72.1484 114.891 72.2344C114.63 72.2969 114.143 72.3281 113.43 72.3281H113.02V75H112.445V69.2539ZM113.02 69.8125V71.7656L113.992 71.7773C114.385 71.7773 114.673 71.7422 114.855 71.6719C115.038 71.599 115.181 71.4831 115.285 71.3242C115.389 71.1628 115.441 70.9831 115.441 70.7852C115.441 70.5924 115.389 70.4167 115.285 70.2578C115.181 70.0964 115.043 69.9818 114.871 69.9141C114.702 69.8464 114.423 69.8125 114.035 69.8125H113.02ZM117.012 69.1094H117.559V75H117.012V69.1094ZM122.93 70.75V75H122.391V74.2695C122.161 74.5482 121.904 74.7578 121.617 74.8984C121.333 75.0391 121.022 75.1094 120.684 75.1094C120.082 75.1094 119.568 74.8919 119.141 74.457C118.716 74.0195 118.504 73.4883 118.504 72.8633C118.504 72.2513 118.719 71.7279 119.148 71.293C119.578 70.8581 120.095 70.6406 120.699 70.6406C121.048 70.6406 121.363 70.7148 121.645 70.8633C121.928 71.0117 122.177 71.2344 122.391 71.5312V70.75H122.93ZM120.742 71.168C120.438 71.168 120.156 71.2435 119.898 71.3945C119.641 71.543 119.435 71.7526 119.281 72.0234C119.13 72.2943 119.055 72.5807 119.055 72.8828C119.055 73.1823 119.132 73.4688 119.285 73.7422C119.439 74.0156 119.645 74.2292 119.902 74.3828C120.163 74.5339 120.441 74.6094 120.738 74.6094C121.038 74.6094 121.322 74.5339 121.59 74.3828C121.858 74.2318 122.064 74.0273 122.207 73.7695C122.353 73.5117 122.426 73.2214 122.426 72.8984C122.426 72.4062 122.263 71.9948 121.938 71.6641C121.615 71.3333 121.216 71.168 120.742 71.168ZM123.707 70.75H124.285L125.746 74.0234L127.164 70.75H127.746L125.211 76.5547H124.633L125.453 74.6797L123.707 70.75ZM131.52 69.1094V73.5625H130.953V69.1094H131.52ZM131.242 74.1406C131.375 74.1406 131.488 74.1875 131.582 74.2812C131.676 74.375 131.723 74.4896 131.723 74.625C131.723 74.7578 131.676 74.8724 131.582 74.9688C131.488 75.0625 131.375 75.1094 131.242 75.1094C131.109 75.1094 130.996 75.0625 130.902 74.9688C130.809 74.8724 130.762 74.7578 130.762 74.625C130.762 74.4896 130.809 74.375 130.902 74.2812C130.996 74.1875 131.109 74.1406 131.242 74.1406ZM133.879 69.1094V73.5625H133.312V69.1094H133.879ZM133.602 74.1406C133.734 74.1406 133.848 74.1875 133.941 74.2812C134.035 74.375 134.082 74.4896 134.082 74.625C134.082 74.7578 134.035 74.8724 133.941 74.9688C133.848 75.0625 133.734 75.1094 133.602 75.1094C133.469 75.1094 133.355 75.0625 133.262 74.9688C133.168 74.8724 133.121 74.7578 133.121 74.625C133.121 74.4896 133.168 74.375 133.262 74.2812C133.355 74.1875 133.469 74.1406 133.602 74.1406Z" fill="black"/>
<path d="M58.7539 34V49.3513C58.7539 49.9036 58.3062 50.3513 57.7539 50.3513H10.9753C10.8489 50.3513 10.7237 50.3753 10.6062 50.4219L6.36943 52.1042C5.71291 52.3649 5.00039 51.8812 5.00039 51.1748V34C5.00039 33.4477 5.44811 33 6.00039 33H57.7539C58.3062 33 58.7539 33.4477 58.7539 34Z" fill="black" stroke="white"/>
<path d="M12.9268 37.71H13.5049V40.1201H16.4268V37.71H17.0049V43.4561H16.4268V40.6826H13.5049V43.4561H12.9268V37.71ZM21.8916 42.0459L22.3525 42.2881C22.2015 42.585 22.027 42.8245 21.8291 43.0068C21.6312 43.1891 21.4085 43.3285 21.1611 43.4248C20.9137 43.5186 20.6338 43.5654 20.3213 43.5654C19.6286 43.5654 19.0869 43.3389 18.6963 42.8857C18.3057 42.43 18.1104 41.9157 18.1104 41.3428C18.1104 40.8037 18.2757 40.3232 18.6064 39.9014C19.0257 39.3649 19.5869 39.0967 20.29 39.0967C21.014 39.0967 21.5921 39.3714 22.0244 39.9209C22.3317 40.3089 22.488 40.7933 22.4932 41.374H18.6729C18.6833 41.8688 18.8408 42.2751 19.1455 42.5928C19.4502 42.9079 19.8265 43.0654 20.2744 43.0654C20.4906 43.0654 20.7002 43.0277 20.9033 42.9521C21.109 42.8766 21.2835 42.7764 21.4268 42.6514C21.57 42.5264 21.7249 42.3245 21.8916 42.0459ZM21.8916 40.9014C21.8187 40.6097 21.7119 40.3766 21.5713 40.2021C21.4333 40.0277 21.2497 39.887 21.0205 39.7803C20.7913 39.6735 20.5505 39.6201 20.2979 39.6201C19.8812 39.6201 19.5231 39.7542 19.2236 40.0225C19.0049 40.2178 18.8395 40.5107 18.7275 40.9014H21.8916ZM23.0596 39.2061H23.6377L25.0986 42.4795L26.5166 39.2061H27.0986L24.5635 45.0107H23.9854L24.8057 43.1357L23.0596 39.2061ZM28.3486 42.4014L28.876 42.6514L28.083 44.1279L27.6963 43.9639L28.3486 42.4014ZM31.8799 37.71H32.5439L34.0127 40.0771L35.458 37.71H36.1221L34.3018 40.71V43.4561H33.7354V40.71L31.8799 37.71ZM40.5557 42.0459L41.0166 42.2881C40.8656 42.585 40.6911 42.8245 40.4932 43.0068C40.2952 43.1891 40.0726 43.3285 39.8252 43.4248C39.5778 43.5186 39.2979 43.5654 38.9854 43.5654C38.2926 43.5654 37.751 43.3389 37.3604 42.8857C36.9697 42.43 36.7744 41.9157 36.7744 41.3428C36.7744 40.8037 36.9398 40.3232 37.2705 39.9014C37.6898 39.3649 38.251 39.0967 38.9541 39.0967C39.6781 39.0967 40.2562 39.3714 40.6885 39.9209C40.9958 40.3089 41.152 40.7933 41.1572 41.374H37.3369C37.3473 41.8688 37.5049 42.2751 37.8096 42.5928C38.1143 42.9079 38.4906 43.0654 38.9385 43.0654C39.1546 43.0654 39.3643 43.0277 39.5674 42.9521C39.7731 42.8766 39.9476 42.7764 40.0908 42.6514C40.234 42.5264 40.389 42.3245 40.5557 42.0459ZM40.5557 40.9014C40.4827 40.6097 40.376 40.3766 40.2354 40.2021C40.0973 40.0277 39.9137 39.887 39.6846 39.7803C39.4554 39.6735 39.2145 39.6201 38.9619 39.6201C38.5452 39.6201 38.1872 39.7542 37.8877 40.0225C37.6689 40.2178 37.5036 40.5107 37.3916 40.9014H40.5557ZM44.3174 39.6709L43.9658 40.0342C43.6742 39.7503 43.389 39.6084 43.1104 39.6084C42.9333 39.6084 42.7809 39.667 42.6533 39.7842C42.5283 39.9014 42.4658 40.0381 42.4658 40.1943C42.4658 40.3324 42.5179 40.4639 42.6221 40.5889C42.7262 40.7165 42.945 40.8662 43.2783 41.0381C43.6846 41.249 43.9606 41.4521 44.1064 41.6475C44.2497 41.8454 44.3213 42.068 44.3213 42.3154C44.3213 42.6644 44.1989 42.96 43.9541 43.2021C43.7093 43.4443 43.4033 43.5654 43.0361 43.5654C42.7913 43.5654 42.557 43.512 42.333 43.4053C42.1117 43.2985 41.9281 43.1514 41.7822 42.9639L42.126 42.5732C42.4046 42.8883 42.7002 43.0459 43.0127 43.0459C43.2314 43.0459 43.4176 42.9756 43.5713 42.835C43.7249 42.6943 43.8018 42.529 43.8018 42.3389C43.8018 42.1826 43.751 42.0433 43.6494 41.9209C43.5479 41.8011 43.3187 41.6501 42.9619 41.4678C42.5791 41.2699 42.3187 41.0745 42.1807 40.8818C42.0426 40.6891 41.9736 40.4691 41.9736 40.2217C41.9736 39.8988 42.083 39.6305 42.3018 39.417C42.5231 39.2035 42.8018 39.0967 43.1377 39.0967C43.5283 39.0967 43.9215 39.2881 44.3174 39.6709ZM48.3564 37.5654V42.0186H47.79V37.5654H48.3564ZM48.0791 42.5967C48.2119 42.5967 48.3252 42.6436 48.4189 42.7373C48.5127 42.8311 48.5596 42.9456 48.5596 43.0811C48.5596 43.2139 48.5127 43.3285 48.4189 43.4248C48.3252 43.5186 48.2119 43.5654 48.0791 43.5654C47.9463 43.5654 47.833 43.5186 47.7393 43.4248C47.6455 43.3285 47.5986 43.2139 47.5986 43.0811C47.5986 42.9456 47.6455 42.8311 47.7393 42.7373C47.833 42.6436 47.9463 42.5967 48.0791 42.5967Z" fill="white"/>
</g>
<defs>
<filter id="filter0_d_286_521" x="0.5" y="0.5" width="145.741" height="90.2046" filterUnits="userSpaceOnUse" color-interpolation-filters="sRGB">
<feFlood flood-opacity="0" result="BackgroundImageFix"/>
<feColorMatrix in="SourceAlpha" type="matrix" values="0 0 0 0 0 0 0 0 0 0 0 0 0 0 0 0 0 0 127 0" result="hardAlpha"/>
<feOffset dy="4"/>
<feGaussianBlur stdDeviation="2"/>
<feComposite in2="hardAlpha" operator="out"/>
<feColorMatrix type="matrix" values="0 0 0 0 1 0 0 0 0 1 0 0 0 0 1 0 0 0 0.25 0"/>
<feBlend mode="normal" in2="BackgroundImageFix" result="effect1_dropShadow_286_521"/>
<feBlend mode="normal" in="SourceGraphic" in2="effect1_dropShadow_286_521" result="shape"/>
</filter>
</defs>
</svg>
