<svg width="92" height="60" viewBox="0 0 92 60" fill="none" xmlns="http://www.w3.org/2000/svg">
<path d="M1 1V52.2208H81.3165L91 59V1H1Z" fill="white" stroke="black"/>
<path d="M12.2461 8.25391H12.9102L14.3789 10.6211L15.8242 8.25391H16.4883L14.668 11.2539V14H14.1016V11.2539L12.2461 8.25391ZM20.9219 12.5898L21.3828 12.832C21.2318 13.1289 21.0573 13.3685 20.8594 13.5508C20.6615 13.7331 20.4388 13.8724 20.1914 13.9688C19.944 14.0625 19.6641 14.1094 19.3516 14.1094C18.6589 14.1094 18.1172 13.8828 17.7266 13.4297C17.3359 12.974 17.1406 12.4596 17.1406 11.8867C17.1406 11.3477 17.306 10.8672 17.6367 10.4453C18.056 9.90885 18.6172 9.64062 19.3203 9.64062C20.0443 9.64062 20.6224 9.91536 21.0547 10.4648C21.362 10.8529 21.5182 11.3372 21.5234 11.918H17.7031C17.7135 12.4128 17.8711 12.819 18.1758 13.1367C18.4805 13.4518 18.8568 13.6094 19.3047 13.6094C19.5208 13.6094 19.7305 13.5716 19.9336 13.4961C20.1393 13.4206 20.3138 13.3203 20.457 13.1953C20.6003 13.0703 20.7552 12.8685 20.9219 12.5898ZM20.9219 11.4453C20.849 11.1536 20.7422 10.9206 20.6016 10.7461C20.4635 10.5716 20.2799 10.431 20.0508 10.3242C19.8216 10.2174 19.5807 10.1641 19.3281 10.1641C18.9115 10.1641 18.5534 10.2982 18.2539 10.5664C18.0352 10.7617 17.8698 11.0547 17.7578 11.4453H20.9219ZM24.6836 10.2148L24.332 10.5781C24.0404 10.2943 23.7552 10.1523 23.4766 10.1523C23.2995 10.1523 23.1471 10.2109 23.0195 10.3281C22.8945 10.4453 22.832 10.582 22.832 10.7383C22.832 10.8763 22.8841 11.0078 22.9883 11.1328C23.0924 11.2604 23.3112 11.4102 23.6445 11.582C24.0508 11.793 24.3268 11.9961 24.4727 12.1914C24.6159 12.3893 24.6875 12.612 24.6875 12.8594C24.6875 13.2083 24.5651 13.5039 24.3203 13.7461C24.0755 13.9883 23.7695 14.1094 23.4023 14.1094C23.1576 14.1094 22.9232 14.056 22.6992 13.9492C22.4779 13.8424 22.2943 13.6953 22.1484 13.5078L22.4922 13.1172C22.7708 13.4323 23.0664 13.5898 23.3789 13.5898C23.5977 13.5898 23.7839 13.5195 23.9375 13.3789C24.0911 13.2383 24.168 13.0729 24.168 12.8828C24.168 12.7266 24.1172 12.5872 24.0156 12.4648C23.9141 12.3451 23.6849 12.194 23.3281 12.0117C22.9453 11.8138 22.6849 11.6185 22.5469 11.4258C22.4089 11.2331 22.3398 11.013 22.3398 10.7656C22.3398 10.4427 22.4492 10.1745 22.668 9.96094C22.8893 9.7474 23.168 9.64062 23.5039 9.64062C23.8945 9.64062 24.2878 9.83203 24.6836 10.2148ZM26.1992 12.9453L26.7266 13.1953L25.9336 14.6719L25.5469 14.5078L26.1992 12.9453ZM30.2852 8C30.4102 8 30.5169 8.04427 30.6055 8.13281C30.694 8.22135 30.7383 8.32812 30.7383 8.45312C30.7383 8.57552 30.694 8.68099 30.6055 8.76953C30.5169 8.85807 30.4102 8.90234 30.2852 8.90234C30.1628 8.90234 30.0573 8.85807 29.9688 8.76953C29.8802 8.68099 29.8359 8.57552 29.8359 8.45312C29.8359 8.32812 29.8802 8.22135 29.9688 8.13281C30.0573 8.04427 30.1628 8 30.2852 8ZM30.0117 9.75H30.5625V14H30.0117V9.75ZM31.6953 9.75H32.2422V10.5117C32.4609 10.2201 32.7031 10.0026 32.9688 9.85938C33.2344 9.71354 33.5234 9.64062 33.8359 9.64062C34.1536 9.64062 34.4349 9.72135 34.6797 9.88281C34.9271 10.0443 35.1094 10.2617 35.2266 10.5352C35.3438 10.8086 35.4023 11.2344 35.4023 11.8125V14H34.8594V11.9727C34.8594 11.4831 34.8385 11.1562 34.7969 10.9922C34.7318 10.7109 34.6094 10.5 34.4297 10.3594C34.25 10.2161 34.0156 10.1445 33.7266 10.1445C33.3958 10.1445 33.099 10.2539 32.8359 10.4727C32.5755 10.6914 32.4036 10.9622 32.3203 11.2852C32.2682 11.4961 32.2422 11.8815 32.2422 12.4414V14H31.6953V9.75ZM40.8203 8.10938V14H40.2812V13.2695C40.0521 13.5482 39.7943 13.7578 39.5078 13.8984C39.224 14.0391 38.9128 14.1094 38.5742 14.1094C37.9727 14.1094 37.4583 13.8919 37.0312 13.457C36.6068 13.0195 36.3945 12.4883 36.3945 11.8633C36.3945 11.2513 36.6094 10.7279 37.0391 10.293C37.4688 9.85807 37.9857 9.64062 38.5898 9.64062C38.9388 9.64062 39.2539 9.71484 39.5352 9.86328C39.819 10.0117 40.0677 10.2344 40.2812 10.5312V8.10938H40.8203ZM38.6328 10.168C38.3281 10.168 38.0469 10.2435 37.7891 10.3945C37.5312 10.543 37.3255 10.7526 37.1719 11.0234C37.0208 11.2943 36.9453 11.5807 36.9453 11.8828C36.9453 12.1823 37.0221 12.4688 37.1758 12.7422C37.3294 13.0156 37.5352 13.2292 37.793 13.3828C38.0534 13.5339 38.332 13.6094 38.6289 13.6094C38.9284 13.6094 39.2122 13.5339 39.4805 13.3828C39.7487 13.2318 39.9544 13.0273 40.0977 12.7695C40.2435 12.5117 40.3164 12.2214 40.3164 11.8984C40.3164 11.4062 40.1536 10.9948 39.8281 10.6641C39.5052 10.3333 39.1068 10.168 38.6328 10.168ZM45.6406 12.5898L46.1016 12.832C45.9505 13.1289 45.776 13.3685 45.5781 13.5508C45.3802 13.7331 45.1576 13.8724 44.9102 13.9688C44.6628 14.0625 44.3828 14.1094 44.0703 14.1094C43.3776 14.1094 42.8359 13.8828 42.4453 13.4297C42.0547 12.974 41.8594 12.4596 41.8594 11.8867C41.8594 11.3477 42.0247 10.8672 42.3555 10.4453C42.7747 9.90885 43.3359 9.64062 44.0391 9.64062C44.763 9.64062 45.3411 9.91536 45.7734 10.4648C46.0807 10.8529 46.237 11.3372 46.2422 11.918H42.4219C42.4323 12.4128 42.5898 12.819 42.8945 13.1367C43.1992 13.4518 43.5755 13.6094 44.0234 13.6094C44.2396 13.6094 44.4492 13.5716 44.6523 13.4961C44.8581 13.4206 45.0326 13.3203 45.1758 13.1953C45.319 13.0703 45.474 12.8685 45.6406 12.5898ZM45.6406 11.4453C45.5677 11.1536 45.4609 10.9206 45.3203 10.7461C45.1823 10.5716 44.9987 10.431 44.7695 10.3242C44.5404 10.2174 44.2995 10.1641 44.0469 10.1641C43.6302 10.1641 43.2721 10.2982 42.9727 10.5664C42.7539 10.7617 42.5885 11.0547 42.4766 11.4453H45.6406ZM50.8438 12.5898L51.3047 12.832C51.1536 13.1289 50.9792 13.3685 50.7812 13.5508C50.5833 13.7331 50.3607 13.8724 50.1133 13.9688C49.8659 14.0625 49.5859 14.1094 49.2734 14.1094C48.5807 14.1094 48.0391 13.8828 47.6484 13.4297C47.2578 12.974 47.0625 12.4596 47.0625 11.8867C47.0625 11.3477 47.2279 10.8672 47.5586 10.4453C47.9779 9.90885 48.5391 9.64062 49.2422 9.64062C49.9661 9.64062 50.5443 9.91536 50.9766 10.4648C51.2839 10.8529 51.4401 11.3372 51.4453 11.918H47.625C47.6354 12.4128 47.793 12.819 48.0977 13.1367C48.4023 13.4518 48.7786 13.6094 49.2266 13.6094C49.4427 13.6094 49.6523 13.5716 49.8555 13.4961C50.0612 13.4206 50.2357 13.3203 50.3789 13.1953C50.5221 13.0703 50.6771 12.8685 50.8438 12.5898ZM50.8438 11.4453C50.7708 11.1536 50.6641 10.9206 50.5234 10.7461C50.3854 10.5716 50.2018 10.431 49.9727 10.3242C49.7435 10.2174 49.5026 10.1641 49.25 10.1641C48.8333 10.1641 48.4753 10.2982 48.1758 10.5664C47.957 10.7617 47.7917 11.0547 47.6797 11.4453H50.8438ZM56.7109 8.10938V14H56.1719V13.2695C55.9427 13.5482 55.6849 13.7578 55.3984 13.8984C55.1146 14.0391 54.8034 14.1094 54.4648 14.1094C53.8633 14.1094 53.349 13.8919 52.9219 13.457C52.4974 13.0195 52.2852 12.4883 52.2852 11.8633C52.2852 11.2513 52.5 10.7279 52.9297 10.293C53.3594 9.85807 53.8763 9.64062 54.4805 9.64062C54.8294 9.64062 55.1445 9.71484 55.4258 9.86328C55.7096 10.0117 55.9583 10.2344 56.1719 10.5312V8.10938H56.7109ZM54.5234 10.168C54.2188 10.168 53.9375 10.2435 53.6797 10.3945C53.4219 10.543 53.2161 10.7526 53.0625 11.0234C52.9115 11.2943 52.8359 11.5807 52.8359 11.8828C52.8359 12.1823 52.9128 12.4688 53.0664 12.7422C53.2201 13.0156 53.4258 13.2292 53.6836 13.3828C53.944 13.5339 54.2227 13.6094 54.5195 13.6094C54.819 13.6094 55.1029 13.5339 55.3711 13.3828C55.6393 13.2318 55.8451 13.0273 55.9883 12.7695C56.1341 12.5117 56.207 12.2214 56.207 11.8984C56.207 11.4062 56.0443 10.9948 55.7188 10.6641C55.3958 10.3333 54.9974 10.168 54.5234 10.168ZM58.5547 13.1406C58.6875 13.1406 58.8008 13.1875 58.8945 13.2812C58.9883 13.375 59.0352 13.4896 59.0352 13.625C59.0352 13.7578 58.9883 13.8724 58.8945 13.9688C58.8008 14.0625 58.6875 14.1094 58.5547 14.1094C58.4219 14.1094 58.3086 14.0625 58.2148 13.9688C58.1211 13.8724 58.0742 13.7578 58.0742 13.625C58.0742 13.4896 58.1211 13.375 58.2148 13.2812C58.3086 13.1875 58.4219 13.1406 58.5547 13.1406ZM62.4961 8.25391H63.6289C64.0846 8.25391 64.4349 8.30859 64.6797 8.41797C64.9245 8.52474 65.1172 8.6901 65.2578 8.91406C65.401 9.13802 65.4727 9.38672 65.4727 9.66016C65.4727 9.91536 65.4102 10.1484 65.2852 10.3594C65.1602 10.5677 64.9766 10.737 64.7344 10.8672C65.0339 10.9688 65.2643 11.0885 65.4258 11.2266C65.5872 11.362 65.7122 11.5273 65.8008 11.7227C65.8919 11.9154 65.9375 12.125 65.9375 12.3516C65.9375 12.8125 65.7682 13.2031 65.4297 13.5234C65.0938 13.8411 64.6419 14 64.0742 14H62.4961V8.25391ZM63.0586 8.81641V10.6562H63.3867C63.7852 10.6562 64.0781 10.6198 64.2656 10.5469C64.4531 10.4714 64.6016 10.3542 64.7109 10.1953C64.8203 10.0339 64.875 9.85547 64.875 9.66016C64.875 9.39714 64.7826 9.19141 64.5977 9.04297C64.4154 8.89193 64.1237 8.81641 63.7227 8.81641H63.0586ZM63.0586 11.2344V13.4375H63.7695C64.1888 13.4375 64.4961 13.3971 64.6914 13.3164C64.8867 13.2331 65.043 13.1042 65.1602 12.9297C65.2799 12.7552 65.3398 12.5664 65.3398 12.3633C65.3398 12.1081 65.2565 11.8854 65.0898 11.6953C64.9232 11.5052 64.694 11.375 64.4023 11.3047C64.207 11.2578 63.8672 11.2344 63.3828 11.2344H63.0586ZM66.5273 9.75H67.1055L68.5664 13.0234L69.9844 9.75H70.5664L68.0312 15.5547H67.4531L68.2734 13.6797L66.5273 9.75ZM13.0859 18.1719H13.6367V19.75H14.5039V20.2188H13.6367V24H13.0859V20.2188H12.3398V19.75H13.0859V18.1719ZM15.3203 18.1094H15.8672V20.5117C16.0885 20.2201 16.332 20.0026 16.5977 19.8594C16.8633 19.7135 17.151 19.6406 17.4609 19.6406C17.7786 19.6406 18.0599 19.7214 18.3047 19.8828C18.5521 20.0443 18.7344 20.2617 18.8516 20.5352C18.9688 20.806 19.0273 21.2318 19.0273 21.8125V24H18.4805V21.9727C18.4805 21.4831 18.4609 21.1562 18.4219 20.9922C18.3542 20.7109 18.2305 20.5 18.0508 20.3594C17.8737 20.2161 17.6406 20.1445 17.3516 20.1445C17.0208 20.1445 16.724 20.2539 16.4609 20.4727C16.2005 20.6914 16.0286 20.9622 15.9453 21.2852C15.8932 21.4935 15.8672 21.8789 15.8672 22.4414V24H15.3203V18.1094ZM23.7812 22.5898L24.2422 22.832C24.0911 23.1289 23.9167 23.3685 23.7188 23.5508C23.5208 23.7331 23.2982 23.8724 23.0508 23.9688C22.8034 24.0625 22.5234 24.1094 22.2109 24.1094C21.5182 24.1094 20.9766 23.8828 20.5859 23.4297C20.1953 22.974 20 22.4596 20 21.8867C20 21.3477 20.1654 20.8672 20.4961 20.4453C20.9154 19.9089 21.4766 19.6406 22.1797 19.6406C22.9036 19.6406 23.4818 19.9154 23.9141 20.4648C24.2214 20.8529 24.3776 21.3372 24.3828 21.918H20.5625C20.5729 22.4128 20.7305 22.819 21.0352 23.1367C21.3398 23.4518 21.7161 23.6094 22.1641 23.6094C22.3802 23.6094 22.5898 23.5716 22.793 23.4961C22.9987 23.4206 23.1732 23.3203 23.3164 23.1953C23.4596 23.0703 23.6146 22.8685 23.7812 22.5898ZM23.7812 21.4453C23.7083 21.1536 23.6016 20.9206 23.4609 20.7461C23.3229 20.5716 23.1393 20.431 22.9102 20.3242C22.681 20.2174 22.4401 20.1641 22.1875 20.1641C21.7708 20.1641 21.4128 20.2982 21.1133 20.5664C20.8945 20.7617 20.7292 21.0547 20.6172 21.4453H23.7812ZM27.0508 19.75H27.6133L28.9141 22.8359L30.2773 19.75H30.375L31.7344 22.8359L33.0586 19.75H33.6289L31.7852 24H31.6797L30.3281 20.957L28.9648 24H28.8633L27.0508 19.75ZM38.5078 19.75V24H37.9688V23.2695C37.7396 23.5482 37.4818 23.7578 37.1953 23.8984C36.9115 24.0391 36.6003 24.1094 36.2617 24.1094C35.6602 24.1094 35.1458 23.8919 34.7188 23.457C34.2943 23.0195 34.082 22.4883 34.082 21.8633C34.082 21.2513 34.2969 20.7279 34.7266 20.293C35.1562 19.8581 35.6732 19.6406 36.2773 19.6406C36.6263 19.6406 36.9414 19.7148 37.2227 19.8633C37.5065 20.0117 37.7552 20.2344 37.9688 20.5312V19.75H38.5078ZM36.3203 20.168C36.0156 20.168 35.7344 20.2435 35.4766 20.3945C35.2188 20.543 35.013 20.7526 34.8594 21.0234C34.7083 21.2943 34.6328 21.5807 34.6328 21.8828C34.6328 22.1823 34.7096 22.4688 34.8633 22.7422C35.0169 23.0156 35.2227 23.2292 35.4805 23.3828C35.7409 23.5339 36.0195 23.6094 36.3164 23.6094C36.6159 23.6094 36.8997 23.5339 37.168 23.3828C37.4362 23.2318 37.6419 23.0273 37.7852 22.7695C37.931 22.5117 38.0039 22.2214 38.0039 21.8984C38.0039 21.4062 37.8411 20.9948 37.5156 20.6641C37.1927 20.3333 36.7943 20.168 36.3203 20.168ZM39.2852 19.75H39.8633L41.3242 23.0234L42.7422 19.75H43.3242L40.7891 25.5547H40.2109L41.0312 23.6797L39.2852 19.75ZM44.5742 22.9453L45.1016 23.1953L44.3086 24.6719L43.9219 24.5078L44.5742 22.9453ZM48.4766 18.2539H49.0508V24H48.4766V18.2539ZM52.418 18.1094H52.9648V24H52.418V18.1094ZM56.1133 19.6406C56.7669 19.6406 57.3086 19.8776 57.7383 20.3516C58.1289 20.7839 58.3242 21.2956 58.3242 21.8867C58.3242 22.4805 58.1172 23 57.7031 23.4453C57.2917 23.888 56.7617 24.1094 56.1133 24.1094C55.4622 24.1094 54.9297 23.888 54.5156 23.4453C54.1042 23 53.8984 22.4805 53.8984 21.8867C53.8984 21.2982 54.0938 20.7878 54.4844 20.3555C54.9141 19.8789 55.457 19.6406 56.1133 19.6406ZM56.1133 20.1758C55.6602 20.1758 55.2708 20.3438 54.9453 20.6797C54.6198 21.0156 54.457 21.4219 54.457 21.8984C54.457 22.2057 54.5312 22.4922 54.6797 22.7578C54.8281 23.0234 55.0286 23.2292 55.2812 23.375C55.5339 23.5182 55.8112 23.5898 56.1133 23.5898C56.4154 23.5898 56.6927 23.5182 56.9453 23.375C57.1979 23.2292 57.3984 23.0234 57.5469 22.7578C57.6953 22.4922 57.7695 22.2057 57.7695 21.8984C57.7695 21.4219 57.6055 21.0156 57.2773 20.6797C56.9518 20.3438 56.5638 20.1758 56.1133 20.1758ZM58.9414 19.75H59.5234L60.9453 22.8438L62.3555 19.75H62.9414L60.9961 24H60.8984L58.9414 19.75ZM67.3594 22.5898L67.8203 22.832C67.6693 23.1289 67.4948 23.3685 67.2969 23.5508C67.099 23.7331 66.8763 23.8724 66.6289 23.9688C66.3815 24.0625 66.1016 24.1094 65.7891 24.1094C65.0964 24.1094 64.5547 23.8828 64.1641 23.4297C63.7734 22.974 63.5781 22.4596 63.5781 21.8867C63.5781 21.3477 63.7435 20.8672 64.0742 20.4453C64.4935 19.9089 65.0547 19.6406 65.7578 19.6406C66.4818 19.6406 67.0599 19.9154 67.4922 20.4648C67.7995 20.8529 67.9557 21.3372 67.9609 21.918H64.1406C64.151 22.4128 64.3086 22.819 64.6133 23.1367C64.918 23.4518 65.2943 23.6094 65.7422 23.6094C65.9583 23.6094 66.168 23.5716 66.3711 23.4961C66.5768 23.4206 66.7513 23.3203 66.8945 23.1953C67.0378 23.0703 67.1927 22.8685 67.3594 22.5898ZM67.3594 21.4453C67.2865 21.1536 67.1797 20.9206 67.0391 20.7461C66.901 20.5716 66.7174 20.431 66.4883 20.3242C66.2591 20.2174 66.0182 20.1641 65.7656 20.1641C65.349 20.1641 64.9909 20.2982 64.6914 20.5664C64.4727 20.7617 64.3073 21.0547 64.1953 21.4453H67.3594ZM71.6797 18.1719H72.2305V19.75H73.0977V20.2188H72.2305V24H71.6797V20.2188H70.9336V19.75H71.6797V18.1719ZM73.9141 18.1094H74.4609V20.5117C74.6823 20.2201 74.9258 20.0026 75.1914 19.8594C75.457 19.7135 75.7448 19.6406 76.0547 19.6406C76.3724 19.6406 76.6536 19.7214 76.8984 19.8828C77.1458 20.0443 77.3281 20.2617 77.4453 20.5352C77.5625 20.806 77.6211 21.2318 77.6211 21.8125V24H77.0742V21.9727C77.0742 21.4831 77.0547 21.1562 77.0156 20.9922C76.9479 20.7109 76.8242 20.5 76.6445 20.3594C76.4674 20.2161 76.2344 20.1445 75.9453 20.1445C75.6146 20.1445 75.3177 20.2539 75.0547 20.4727C74.7943 20.6914 74.6224 20.9622 74.5391 21.2852C74.487 21.4935 74.4609 21.8789 74.4609 22.4414V24H73.9141V18.1094ZM82.375 22.5898L82.8359 22.832C82.6849 23.1289 82.5104 23.3685 82.3125 23.5508C82.1146 23.7331 81.8919 23.8724 81.6445 23.9688C81.3971 24.0625 81.1172 24.1094 80.8047 24.1094C80.112 24.1094 79.5703 23.8828 79.1797 23.4297C78.7891 22.974 78.5938 22.4596 78.5938 21.8867C78.5938 21.3477 78.7591 20.8672 79.0898 20.4453C79.5091 19.9089 80.0703 19.6406 80.7734 19.6406C81.4974 19.6406 82.0755 19.9154 82.5078 20.4648C82.8151 20.8529 82.9714 21.3372 82.9766 21.918H79.1562C79.1667 22.4128 79.3242 22.819 79.6289 23.1367C79.9336 23.4518 80.3099 23.6094 80.7578 23.6094C80.974 23.6094 81.1836 23.5716 81.3867 23.4961C81.5924 23.4206 81.7669 23.3203 81.9102 23.1953C82.0534 23.0703 82.2083 22.8685 82.375 22.5898ZM82.375 21.4453C82.3021 21.1536 82.1953 20.9206 82.0547 20.7461C81.9167 20.5716 81.7331 20.431 81.5039 20.3242C81.2747 20.2174 81.0339 20.1641 80.7812 20.1641C80.3646 20.1641 80.0065 20.2982 79.707 20.5664C79.4883 20.7617 79.3229 21.0547 79.2109 21.4453H82.375ZM12.6094 29.75H13.1562V30.5117C13.375 30.2201 13.6172 30.0026 13.8828 29.8594C14.1484 29.7135 14.4375 29.6406 14.75 29.6406C15.0677 29.6406 15.349 29.7214 15.5938 29.8828C15.8411 30.0443 16.0234 30.2617 16.1406 30.5352C16.2578 30.8086 16.3164 31.2344 16.3164 31.8125V34H15.7734V31.9727C15.7734 31.4831 15.7526 31.1562 15.7109 30.9922C15.6458 30.7109 15.5234 30.5 15.3438 30.3594C15.1641 30.2161 14.9297 30.1445 14.6406 30.1445C14.3099 30.1445 14.013 30.2539 13.75 30.4727C13.4896 30.6914 13.3177 30.9622 13.2344 31.2852C13.1823 31.4961 13.1562 31.8815 13.1562 32.4414V34H12.6094V29.75ZM21.0703 32.5898L21.5312 32.832C21.3802 33.1289 21.2057 33.3685 21.0078 33.5508C20.8099 33.7331 20.5872 33.8724 20.3398 33.9688C20.0924 34.0625 19.8125 34.1094 19.5 34.1094C18.8073 34.1094 18.2656 33.8828 17.875 33.4297C17.4844 32.974 17.2891 32.4596 17.2891 31.8867C17.2891 31.3477 17.4544 30.8672 17.7852 30.4453C18.2044 29.9089 18.7656 29.6406 19.4688 29.6406C20.1927 29.6406 20.7708 29.9154 21.2031 30.4648C21.5104 30.8529 21.6667 31.3372 21.6719 31.918H17.8516C17.862 32.4128 18.0195 32.819 18.3242 33.1367C18.6289 33.4518 19.0052 33.6094 19.4531 33.6094C19.6693 33.6094 19.8789 33.5716 20.082 33.4961C20.2878 33.4206 20.4622 33.3203 20.6055 33.1953C20.7487 33.0703 20.9036 32.8685 21.0703 32.5898ZM21.0703 31.4453C20.9974 31.1536 20.8906 30.9206 20.75 30.7461C20.612 30.5716 20.4284 30.431 20.1992 30.3242C19.9701 30.2174 19.7292 30.1641 19.4766 30.1641C19.0599 30.1641 18.7018 30.2982 18.4023 30.5664C18.1836 30.7617 18.0182 31.0547 17.9062 31.4453H21.0703ZM22.1211 29.75H22.6836L23.9844 32.8359L25.3477 29.75H25.4453L26.8047 32.8359L28.1289 29.75H28.6992L26.8555 34H26.75L25.3984 30.957L24.0352 34H23.9336L22.1211 29.75ZM32.0391 28.1719H32.5898V29.75H33.457V30.2188H32.5898V34H32.0391V30.2188H31.293V29.75H32.0391V28.1719ZM34.2734 28.1094H34.8203V30.5117C35.0417 30.2201 35.2852 30.0026 35.5508 29.8594C35.8164 29.7135 36.1042 29.6406 36.4141 29.6406C36.7318 29.6406 37.013 29.7214 37.2578 29.8828C37.5052 30.0443 37.6875 30.2617 37.8047 30.5352C37.9219 30.806 37.9805 31.2318 37.9805 31.8125V34H37.4336V31.9727C37.4336 31.4831 37.4141 31.1562 37.375 30.9922C37.3073 30.7109 37.1836 30.5 37.0039 30.3594C36.8268 30.2161 36.5938 30.1445 36.3047 30.1445C35.974 30.1445 35.6771 30.2539 35.4141 30.4727C35.1536 30.6914 34.9818 30.9622 34.8984 31.2852C34.8464 31.4935 34.8203 31.8789 34.8203 32.4414V34H34.2734V28.1094ZM42.7344 32.5898L43.1953 32.832C43.0443 33.1289 42.8698 33.3685 42.6719 33.5508C42.474 33.7331 42.2513 33.8724 42.0039 33.9688C41.7565 34.0625 41.4766 34.1094 41.1641 34.1094C40.4714 34.1094 39.9297 33.8828 39.5391 33.4297C39.1484 32.974 38.9531 32.4596 38.9531 31.8867C38.9531 31.3477 39.1185 30.8672 39.4492 30.4453C39.8685 29.9089 40.4297 29.6406 41.1328 29.6406C41.8568 29.6406 42.4349 29.9154 42.8672 30.4648C43.1745 30.8529 43.3307 31.3372 43.3359 31.918H39.5156C39.526 32.4128 39.6836 32.819 39.9883 33.1367C40.293 33.4518 40.6693 33.6094 41.1172 33.6094C41.3333 33.6094 41.543 33.5716 41.7461 33.4961C41.9518 33.4206 42.1263 33.3203 42.2695 33.1953C42.4128 33.0703 42.5677 32.8685 42.7344 32.5898ZM42.7344 31.4453C42.6615 31.1536 42.5547 30.9206 42.4141 30.7461C42.276 30.5716 42.0924 30.431 41.8633 30.3242C41.6341 30.2174 41.3932 30.1641 41.1406 30.1641C40.724 30.1641 40.3659 30.2982 40.0664 30.5664C39.8477 30.7617 39.6823 31.0547 39.5703 31.4453H42.7344ZM44.3555 29.75H44.8984V30.4844C45.0885 30.2135 45.2839 30.0156 45.4844 29.8906C45.7604 29.724 46.0508 29.6406 46.3555 29.6406C46.5612 29.6406 46.7565 29.681 46.9414 29.7617C47.1263 29.8424 47.2773 29.9505 47.3945 30.0859C47.5117 30.2188 47.6133 30.4102 47.6992 30.6602C47.8815 30.3268 48.1094 30.0742 48.3828 29.9023C48.6562 29.7279 48.9505 29.6406 49.2656 29.6406C49.5599 29.6406 49.819 29.7148 50.043 29.8633C50.2695 30.0117 50.4375 30.2188 50.5469 30.4844C50.6562 30.75 50.7109 31.1484 50.7109 31.6797V34H50.1523V31.6797C50.1523 31.224 50.1198 30.9115 50.0547 30.7422C49.9896 30.5703 49.8776 30.4323 49.7188 30.3281C49.5625 30.224 49.375 30.1719 49.1562 30.1719C48.8906 30.1719 48.6471 30.25 48.4258 30.4062C48.207 30.5625 48.0469 30.7708 47.9453 31.0312C47.8438 31.2917 47.793 31.7266 47.793 32.3359V34H47.25V31.8242C47.25 31.3112 47.2174 30.9635 47.1523 30.7812C47.0898 30.5964 46.9792 30.4492 46.8203 30.3398C46.6615 30.2279 46.4727 30.1719 46.2539 30.1719C46.0013 30.1719 45.7643 30.2487 45.543 30.4023C45.3242 30.5534 45.1615 30.7578 45.0547 31.0156C44.9505 31.2734 44.8984 31.668 44.8984 32.1992V34H44.3555V29.75ZM55.4453 32.5898L55.9062 32.832C55.7552 33.1289 55.5807 33.3685 55.3828 33.5508C55.1849 33.7331 54.9622 33.8724 54.7148 33.9688C54.4674 34.0625 54.1875 34.1094 53.875 34.1094C53.1823 34.1094 52.6406 33.8828 52.25 33.4297C51.8594 32.974 51.6641 32.4596 51.6641 31.8867C51.6641 31.3477 51.8294 30.8672 52.1602 30.4453C52.5794 29.9089 53.1406 29.6406 53.8438 29.6406C54.5677 29.6406 55.1458 29.9154 55.5781 30.4648C55.8854 30.8529 56.0417 31.3372 56.0469 31.918H52.2266C52.237 32.4128 52.3945 32.819 52.6992 33.1367C53.0039 33.4518 53.3802 33.6094 53.8281 33.6094C54.0443 33.6094 54.2539 33.5716 54.457 33.4961C54.6628 33.4206 54.8372 33.3203 54.9805 33.1953C55.1237 33.0703 55.2786 32.8685 55.4453 32.5898ZM55.4453 31.4453C55.3724 31.1536 55.2656 30.9206 55.125 30.7461C54.987 30.5716 54.8034 30.431 54.5742 30.3242C54.3451 30.2174 54.1042 30.1641 53.8516 30.1641C53.4349 30.1641 53.0768 30.2982 52.7773 30.5664C52.5586 30.7617 52.3932 31.0547 52.2812 31.4453H55.4453ZM59.207 30.2148L58.8555 30.5781C58.5638 30.2943 58.2786 30.1523 58 30.1523C57.8229 30.1523 57.6706 30.2109 57.543 30.3281C57.418 30.4453 57.3555 30.582 57.3555 30.7383C57.3555 30.8763 57.4076 31.0078 57.5117 31.1328C57.6159 31.2604 57.8346 31.4102 58.168 31.582C58.5742 31.793 58.8503 31.9961 58.9961 32.1914C59.1393 32.3893 59.2109 32.612 59.2109 32.8594C59.2109 33.2083 59.0885 33.5039 58.8438 33.7461C58.599 33.9883 58.293 34.1094 57.9258 34.1094C57.681 34.1094 57.4466 34.056 57.2227 33.9492C57.0013 33.8424 56.8177 33.6953 56.6719 33.5078L57.0156 33.1172C57.2943 33.4323 57.5898 33.5898 57.9023 33.5898C58.1211 33.5898 58.3073 33.5195 58.4609 33.3789C58.6146 33.2383 58.6914 33.0729 58.6914 32.8828C58.6914 32.7266 58.6406 32.5872 58.5391 32.4648C58.4375 32.3451 58.2083 32.194 57.8516 32.0117C57.4688 31.8138 57.2083 31.6185 57.0703 31.4258C56.9323 31.2331 56.8633 31.013 56.8633 30.7656C56.8633 30.4427 56.9727 30.1745 57.1914 29.9609C57.4128 29.7474 57.6914 29.6406 58.0273 29.6406C58.418 29.6406 58.8112 29.832 59.207 30.2148ZM62.5898 28C62.7148 28 62.8216 28.0443 62.9102 28.1328C62.9987 28.2214 63.043 28.3281 63.043 28.4531C63.043 28.5755 62.9987 28.681 62.9102 28.7695C62.8216 28.8581 62.7148 28.9023 62.5898 28.9023C62.4674 28.9023 62.362 28.8581 62.2734 28.7695C62.1849 28.681 62.1406 28.5755 62.1406 28.4531C62.1406 28.3281 62.1849 28.2214 62.2734 28.1328C62.362 28.0443 62.4674 28 62.5898 28ZM62.3164 29.75H62.8672V34H62.3164V29.75ZM64 29.75H64.5469V30.5117C64.7656 30.2201 65.0078 30.0026 65.2734 29.8594C65.5391 29.7135 65.8281 29.6406 66.1406 29.6406C66.4583 29.6406 66.7396 29.7214 66.9844 29.8828C67.2318 30.0443 67.4141 30.2617 67.5312 30.5352C67.6484 30.8086 67.707 31.2344 67.707 31.8125V34H67.1641V31.9727C67.1641 31.4831 67.1432 31.1562 67.1016 30.9922C67.0365 30.7109 66.9141 30.5 66.7344 30.3594C66.5547 30.2161 66.3203 30.1445 66.0312 30.1445C65.7005 30.1445 65.4036 30.2539 65.1406 30.4727C64.8802 30.6914 64.7083 30.9622 64.625 31.2852C64.5729 31.4961 64.5469 31.8815 64.5469 32.4414V34H64V29.75ZM71.5781 28.1719H72.1289V29.75H72.9961V30.2188H72.1289V34H71.5781V30.2188H70.832V29.75H71.5781V28.1719ZM73.8125 28.1094H74.3594V30.5117C74.5807 30.2201 74.8242 30.0026 75.0898 29.8594C75.3555 29.7135 75.6432 29.6406 75.9531 29.6406C76.2708 29.6406 76.5521 29.7214 76.7969 29.8828C77.0443 30.0443 77.2266 30.2617 77.3438 30.5352C77.4609 30.806 77.5195 31.2318 77.5195 31.8125V34H76.9727V31.9727C76.9727 31.4831 76.9531 31.1562 76.9141 30.9922C76.8464 30.7109 76.7227 30.5 76.543 30.3594C76.3659 30.2161 76.1328 30.1445 75.8438 30.1445C75.513 30.1445 75.2161 30.2539 74.9531 30.4727C74.6927 30.6914 74.5208 30.9622 74.4375 31.2852C74.3854 31.4935 74.3594 31.8789 74.3594 32.4414V34H73.8125V28.1094ZM82.2734 32.5898L82.7344 32.832C82.5833 33.1289 82.4089 33.3685 82.2109 33.5508C82.013 33.7331 81.7904 33.8724 81.543 33.9688C81.2956 34.0625 81.0156 34.1094 80.7031 34.1094C80.0104 34.1094 79.4688 33.8828 79.0781 33.4297C78.6875 32.974 78.4922 32.4596 78.4922 31.8867C78.4922 31.3477 78.6576 30.8672 78.9883 30.4453C79.4076 29.9089 79.9688 29.6406 80.6719 29.6406C81.3958 29.6406 81.974 29.9154 82.4062 30.4648C82.7135 30.8529 82.8698 31.3372 82.875 31.918H79.0547C79.0651 32.4128 79.2227 32.819 79.5273 33.1367C79.832 33.4518 80.2083 33.6094 80.6562 33.6094C80.8724 33.6094 81.082 33.5716 81.2852 33.4961C81.4909 33.4206 81.6654 33.3203 81.8086 33.1953C81.9518 33.0703 82.1068 32.8685 82.2734 32.5898ZM82.2734 31.4453C82.2005 31.1536 82.0938 30.9206 81.9531 30.7461C81.8151 30.5716 81.6315 30.431 81.4023 30.3242C81.1732 30.2174 80.9323 30.1641 80.6797 30.1641C80.263 30.1641 79.9049 30.2982 79.6055 30.5664C79.3867 30.7617 79.2214 31.0547 79.1094 31.4453H82.2734ZM16.8438 39.75V44H16.3047V43.2695C16.0755 43.5482 15.8177 43.7578 15.5312 43.8984C15.2474 44.0391 14.9362 44.1094 14.5977 44.1094C13.9961 44.1094 13.4818 43.8919 13.0547 43.457C12.6302 43.0195 12.418 42.4883 12.418 41.8633C12.418 41.2513 12.6328 40.7279 13.0625 40.293C13.4922 39.8581 14.0091 39.6406 14.6133 39.6406C14.9622 39.6406 15.2773 39.7148 15.5586 39.8633C15.8424 40.0117 16.0911 40.2344 16.3047 40.5312V39.75H16.8438ZM14.6562 40.168C14.3516 40.168 14.0703 40.2435 13.8125 40.3945C13.5547 40.543 13.349 40.7526 13.1953 41.0234C13.0443 41.2943 12.9688 41.5807 12.9688 41.8828C12.9688 42.1823 13.0456 42.4688 13.1992 42.7422C13.3529 43.0156 13.5586 43.2292 13.8164 43.3828C14.0768 43.5339 14.3555 43.6094 14.6523 43.6094C14.9518 43.6094 15.2357 43.5339 15.5039 43.3828C15.7721 43.2318 15.9779 43.0273 16.1211 42.7695C16.2669 42.5117 16.3398 42.2214 16.3398 41.8984C16.3398 41.4062 16.1771 40.9948 15.8516 40.6641C15.5286 40.3333 15.1302 40.168 14.6562 40.168ZM18.0859 39.75H18.6289V40.5312C18.8451 40.2344 19.0938 40.0117 19.375 39.8633C19.6562 39.7148 19.9701 39.6406 20.3164 39.6406C20.9206 39.6406 21.4375 39.8581 21.8672 40.293C22.2969 40.7279 22.5117 41.2513 22.5117 41.8633C22.5117 42.4883 22.2982 43.0195 21.8711 43.457C21.4466 43.8919 20.9336 44.1094 20.332 44.1094C19.9935 44.1094 19.6823 44.0391 19.3984 43.8984C19.1146 43.7578 18.8581 43.5482 18.6289 43.2695V45.5547H18.0859V39.75ZM20.2734 40.168C19.7995 40.168 19.3997 40.3333 19.0742 40.6641C18.7513 40.9948 18.5898 41.4062 18.5898 41.8984C18.5898 42.2214 18.6615 42.5117 18.8047 42.7695C18.9505 43.0273 19.1576 43.2318 19.4258 43.3828C19.6966 43.5339 19.9818 43.6094 20.2812 43.6094C20.5755 43.6094 20.8516 43.5339 21.1094 43.3828C21.3698 43.2292 21.5768 43.0156 21.7305 42.7422C21.8841 42.4688 21.9609 42.1823 21.9609 41.8828C21.9609 41.5807 21.8841 41.2943 21.7305 41.0234C21.5794 40.7526 21.375 40.543 21.1172 40.3945C20.8594 40.2435 20.5781 40.168 20.2734 40.168ZM23.5469 39.75H24.0898V40.5312C24.306 40.2344 24.5547 40.0117 24.8359 39.8633C25.1172 39.7148 25.431 39.6406 25.7773 39.6406C26.3815 39.6406 26.8984 39.8581 27.3281 40.293C27.7578 40.7279 27.9727 41.2513 27.9727 41.8633C27.9727 42.4883 27.7591 43.0195 27.332 43.457C26.9076 43.8919 26.3945 44.1094 25.793 44.1094C25.4544 44.1094 25.1432 44.0391 24.8594 43.8984C24.5755 43.7578 24.319 43.5482 24.0898 43.2695V45.5547H23.5469V39.75ZM25.7344 40.168C25.2604 40.168 24.8607 40.3333 24.5352 40.6641C24.2122 40.9948 24.0508 41.4062 24.0508 41.8984C24.0508 42.2214 24.1224 42.5117 24.2656 42.7695C24.4115 43.0273 24.6185 43.2318 24.8867 43.3828C25.1576 43.5339 25.4427 43.6094 25.7422 43.6094C26.0365 43.6094 26.3125 43.5339 26.5703 43.3828C26.8307 43.2292 27.0378 43.0156 27.1914 42.7422C27.3451 42.4688 27.4219 42.1823 27.4219 41.8828C27.4219 41.5807 27.3451 41.2943 27.1914 41.0234C27.0404 40.7526 26.8359 40.543 26.5781 40.3945C26.3203 40.2435 26.0391 40.168 25.7344 40.168ZM29.6016 43.1406C29.7344 43.1406 29.8477 43.1875 29.9414 43.2812C30.0352 43.375 30.082 43.4896 30.082 43.625C30.082 43.7578 30.0352 43.8724 29.9414 43.9688C29.8477 44.0625 29.7344 44.1094 29.6016 44.1094C29.4688 44.1094 29.3555 44.0625 29.2617 43.9688C29.168 43.8724 29.1211 43.7578 29.1211 43.625C29.1211 43.4896 29.168 43.375 29.2617 43.2812C29.3555 43.1875 29.4688 43.1406 29.6016 43.1406Z" fill="black"/>
</svg>
