<svg width="92" height="37" viewBox="0 0 92 37" fill="none" xmlns="http://www.w3.org/2000/svg">
<path d="M1 1V31.9091H81.3165L91 36V1H1Z" fill="white" stroke="black"/>
<path d="M7.61719 7.25391H8.19141V13H7.61719V7.25391ZM9.80469 8.91797H9.40234L9.31641 7.10938H9.89453L9.80469 8.91797ZM10.6055 8.75H11.1875L12.6094 11.8438L14.0195 8.75H14.6055L12.6602 13H12.5625L10.6055 8.75ZM19.0234 11.5898L19.4844 11.832C19.3333 12.1289 19.1589 12.3685 18.9609 12.5508C18.763 12.7331 18.5404 12.8724 18.293 12.9688C18.0456 13.0625 17.7656 13.1094 17.4531 13.1094C16.7604 13.1094 16.2188 12.8828 15.8281 12.4297C15.4375 11.974 15.2422 11.4596 15.2422 10.8867C15.2422 10.3477 15.4076 9.86719 15.7383 9.44531C16.1576 8.90885 16.7188 8.64062 17.4219 8.64062C18.1458 8.64062 18.724 8.91536 19.1562 9.46484C19.4635 9.85286 19.6198 10.3372 19.625 10.918H15.8047C15.8151 11.4128 15.9727 11.819 16.2773 12.1367C16.582 12.4518 16.9583 12.6094 17.4062 12.6094C17.6224 12.6094 17.832 12.5716 18.0352 12.4961C18.2409 12.4206 18.4154 12.3203 18.5586 12.1953C18.7018 12.0703 18.8568 11.8685 19.0234 11.5898ZM19.0234 10.4453C18.9505 10.1536 18.8438 9.92057 18.7031 9.74609C18.5651 9.57161 18.3815 9.43099 18.1523 9.32422C17.9232 9.21745 17.6823 9.16406 17.4297 9.16406C17.013 9.16406 16.6549 9.29818 16.3555 9.56641C16.1367 9.76172 15.9714 10.0547 15.8594 10.4453H19.0234ZM22.9023 13V7.10938H23.4453V9.48047C23.6745 9.19922 23.931 8.98958 24.2148 8.85156C24.4987 8.71094 24.8099 8.64062 25.1484 8.64062C25.75 8.64062 26.263 8.85938 26.6875 9.29688C27.1146 9.73177 27.3281 10.2604 27.3281 10.8828C27.3281 11.4974 27.1133 12.0221 26.6836 12.457C26.2539 12.8919 25.737 13.1094 25.1328 13.1094C24.7865 13.1094 24.4727 13.0352 24.1914 12.8867C23.9102 12.7383 23.6615 12.5156 23.4453 12.2188V13H22.9023ZM25.0898 12.582C25.3945 12.582 25.6758 12.5078 25.9336 12.3594C26.1914 12.2083 26.3958 11.9974 26.5469 11.7266C26.7005 11.4557 26.7773 11.1693 26.7773 10.8672C26.7773 10.5651 26.7005 10.2773 26.5469 10.0039C26.3932 9.73047 26.1862 9.51823 25.9258 9.36719C25.668 9.21354 25.3919 9.13672 25.0977 9.13672C24.7982 9.13672 24.513 9.21354 24.2422 9.36719C23.974 9.51823 23.7669 9.72266 23.6211 9.98047C23.4779 10.2383 23.4062 10.5286 23.4062 10.8516C23.4062 11.3438 23.5677 11.7552 23.8906 12.0859C24.2161 12.4167 24.6159 12.582 25.0898 12.582ZM31.9062 11.5898L32.3672 11.832C32.2161 12.1289 32.0417 12.3685 31.8438 12.5508C31.6458 12.7331 31.4232 12.8724 31.1758 12.9688C30.9284 13.0625 30.6484 13.1094 30.3359 13.1094C29.6432 13.1094 29.1016 12.8828 28.7109 12.4297C28.3203 11.974 28.125 11.4596 28.125 10.8867C28.125 10.3477 28.2904 9.86719 28.6211 9.44531C29.0404 8.90885 29.6016 8.64062 30.3047 8.64062C31.0286 8.64062 31.6068 8.91536 32.0391 9.46484C32.3464 9.85286 32.5026 10.3372 32.5078 10.918H28.6875C28.6979 11.4128 28.8555 11.819 29.1602 12.1367C29.4648 12.4518 29.8411 12.6094 30.2891 12.6094C30.5052 12.6094 30.7148 12.5716 30.918 12.4961C31.1237 12.4206 31.2982 12.3203 31.4414 12.1953C31.5846 12.0703 31.7396 11.8685 31.9062 11.5898ZM31.9062 10.4453C31.8333 10.1536 31.7266 9.92057 31.5859 9.74609C31.4479 9.57161 31.2643 9.43099 31.0352 9.32422C30.806 9.21745 30.5651 9.16406 30.3125 9.16406C29.8958 9.16406 29.5378 9.29818 29.2383 9.56641C29.0195 9.76172 28.8542 10.0547 28.7422 10.4453H31.9062ZM37.1094 11.5898L37.5703 11.832C37.4193 12.1289 37.2448 12.3685 37.0469 12.5508C36.849 12.7331 36.6263 12.8724 36.3789 12.9688C36.1315 13.0625 35.8516 13.1094 35.5391 13.1094C34.8464 13.1094 34.3047 12.8828 33.9141 12.4297C33.5234 11.974 33.3281 11.4596 33.3281 10.8867C33.3281 10.3477 33.4935 9.86719 33.8242 9.44531C34.2435 8.90885 34.8047 8.64062 35.5078 8.64062C36.2318 8.64062 36.8099 8.91536 37.2422 9.46484C37.5495 9.85286 37.7057 10.3372 37.7109 10.918H33.8906C33.901 11.4128 34.0586 11.819 34.3633 12.1367C34.668 12.4518 35.0443 12.6094 35.4922 12.6094C35.7083 12.6094 35.918 12.5716 36.1211 12.4961C36.3268 12.4206 36.5013 12.3203 36.6445 12.1953C36.7878 12.0703 36.9427 11.8685 37.1094 11.5898ZM37.1094 10.4453C37.0365 10.1536 36.9297 9.92057 36.7891 9.74609C36.651 9.57161 36.4674 9.43099 36.2383 9.32422C36.0091 9.21745 35.7682 9.16406 35.5156 9.16406C35.099 9.16406 34.7409 9.29818 34.4414 9.56641C34.2227 9.76172 34.0573 10.0547 33.9453 10.4453H37.1094ZM38.7344 8.75H39.2812V9.51172C39.5 9.22005 39.7422 9.0026 40.0078 8.85938C40.2734 8.71354 40.5625 8.64062 40.875 8.64062C41.1927 8.64062 41.474 8.72135 41.7188 8.88281C41.9661 9.04427 42.1484 9.26172 42.2656 9.53516C42.3828 9.80859 42.4414 10.2344 42.4414 10.8125V13H41.8984V10.9727C41.8984 10.4831 41.8776 10.1562 41.8359 9.99219C41.7708 9.71094 41.6484 9.5 41.4688 9.35938C41.2891 9.21615 41.0547 9.14453 40.7656 9.14453C40.4349 9.14453 40.138 9.25391 39.875 9.47266C39.6146 9.69141 39.4427 9.96224 39.3594 10.2852C39.3073 10.4961 39.2812 10.8815 39.2812 11.4414V13H38.7344V8.75ZM45.8438 8.75H46.3867V9.53125C46.6029 9.23438 46.8516 9.01172 47.1328 8.86328C47.4141 8.71484 47.7279 8.64062 48.0742 8.64062C48.6784 8.64062 49.1953 8.85807 49.625 9.29297C50.0547 9.72786 50.2695 10.2513 50.2695 10.8633C50.2695 11.4883 50.056 12.0195 49.6289 12.457C49.2044 12.8919 48.6914 13.1094 48.0898 13.1094C47.7513 13.1094 47.4401 13.0391 47.1562 12.8984C46.8724 12.7578 46.6159 12.5482 46.3867 12.2695V14.5547H45.8438V8.75ZM48.0312 9.16797C47.5573 9.16797 47.1576 9.33333 46.832 9.66406C46.5091 9.99479 46.3477 10.4062 46.3477 10.8984C46.3477 11.2214 46.4193 11.5117 46.5625 11.7695C46.7083 12.0273 46.9154 12.2318 47.1836 12.3828C47.4544 12.5339 47.7396 12.6094 48.0391 12.6094C48.3333 12.6094 48.6094 12.5339 48.8672 12.3828C49.1276 12.2292 49.3346 12.0156 49.4883 11.7422C49.6419 11.4688 49.7188 11.1823 49.7188 10.8828C49.7188 10.5807 49.6419 10.2943 49.4883 10.0234C49.3372 9.7526 49.1328 9.54297 48.875 9.39453C48.6172 9.24349 48.3359 9.16797 48.0312 9.16797ZM51.0898 8.75H51.6484V9.37109C51.8151 9.1263 51.9909 8.94401 52.1758 8.82422C52.3607 8.70182 52.5534 8.64062 52.7539 8.64062C52.9049 8.64062 53.0664 8.6888 53.2383 8.78516L52.9531 9.24609C52.8385 9.19661 52.7422 9.17188 52.6641 9.17188C52.4818 9.17188 52.306 9.2474 52.1367 9.39844C51.9674 9.54688 51.8385 9.77865 51.75 10.0938C51.6823 10.3359 51.6484 10.8255 51.6484 11.5625V13H51.0898V8.75ZM57.9375 8.75V13H57.3984V12.2695C57.1693 12.5482 56.9115 12.7578 56.625 12.8984C56.3411 13.0391 56.0299 13.1094 55.6914 13.1094C55.0898 13.1094 54.5755 12.8919 54.1484 12.457C53.724 12.0195 53.5117 11.4883 53.5117 10.8633C53.5117 10.2513 53.7266 9.72786 54.1562 9.29297C54.5859 8.85807 55.1029 8.64062 55.707 8.64062C56.056 8.64062 56.3711 8.71484 56.6523 8.86328C56.9362 9.01172 57.1849 9.23438 57.3984 9.53125V8.75H57.9375ZM55.75 9.16797C55.4453 9.16797 55.1641 9.24349 54.9062 9.39453C54.6484 9.54297 54.4427 9.7526 54.2891 10.0234C54.138 10.2943 54.0625 10.5807 54.0625 10.8828C54.0625 11.1823 54.1393 11.4688 54.293 11.7422C54.4466 12.0156 54.6523 12.2292 54.9102 12.3828C55.1706 12.5339 55.4492 12.6094 55.7461 12.6094C56.0456 12.6094 56.3294 12.5339 56.5977 12.3828C56.8659 12.2318 57.0716 12.0273 57.2148 11.7695C57.3607 11.5117 57.4336 11.2214 57.4336 10.8984C57.4336 10.4062 57.2708 9.99479 56.9453 9.66406C56.6224 9.33333 56.224 9.16797 55.75 9.16797ZM63.2969 9.63281L62.8633 9.90234C62.4883 9.40495 61.9766 9.15625 61.3281 9.15625C60.8099 9.15625 60.3789 9.32292 60.0352 9.65625C59.694 9.98958 59.5234 10.3945 59.5234 10.8711C59.5234 11.181 59.6016 11.4727 59.7578 11.7461C59.9167 12.0195 60.1328 12.2318 60.4062 12.3828C60.6823 12.5339 60.9909 12.6094 61.332 12.6094C61.957 12.6094 62.4674 12.3607 62.8633 11.8633L63.2969 12.1484C63.0938 12.4531 62.8203 12.6901 62.4766 12.8594C62.1354 13.026 61.7461 13.1094 61.3086 13.1094C60.6367 13.1094 60.0794 12.8958 59.6367 12.4688C59.194 12.0417 58.9727 11.5221 58.9727 10.9102C58.9727 10.4987 59.0755 10.1172 59.2812 9.76562C59.4896 9.41146 59.7747 9.13542 60.1367 8.9375C60.4987 8.73958 60.9036 8.64062 61.3516 8.64062C61.6328 8.64062 61.9036 8.68359 62.1641 8.76953C62.4271 8.85547 62.6497 8.96745 62.832 9.10547C63.0143 9.24349 63.1693 9.41927 63.2969 9.63281ZM64.8281 7.17188H65.3789V8.75H66.2461V9.21875H65.3789V13H64.8281V9.21875H64.082V8.75H64.8281V7.17188ZM67.2539 7C67.3789 7 67.4857 7.04427 67.5742 7.13281C67.6628 7.22135 67.707 7.32812 67.707 7.45312C67.707 7.57552 67.6628 7.68099 67.5742 7.76953C67.4857 7.85807 67.3789 7.90234 67.2539 7.90234C67.1315 7.90234 67.026 7.85807 66.9375 7.76953C66.849 7.68099 66.8047 7.57552 66.8047 7.45312C66.8047 7.32812 66.849 7.22135 66.9375 7.13281C67.026 7.04427 67.1315 7 67.2539 7ZM66.9805 8.75H67.5312V13H66.9805V8.75ZM72.7891 9.63281L72.3555 9.90234C71.9805 9.40495 71.4688 9.15625 70.8203 9.15625C70.3021 9.15625 69.8711 9.32292 69.5273 9.65625C69.1862 9.98958 69.0156 10.3945 69.0156 10.8711C69.0156 11.181 69.0938 11.4727 69.25 11.7461C69.4089 12.0195 69.625 12.2318 69.8984 12.3828C70.1745 12.5339 70.4831 12.6094 70.8242 12.6094C71.4492 12.6094 71.9596 12.3607 72.3555 11.8633L72.7891 12.1484C72.5859 12.4531 72.3125 12.6901 71.9688 12.8594C71.6276 13.026 71.2383 13.1094 70.8008 13.1094C70.1289 13.1094 69.5716 12.8958 69.1289 12.4688C68.6862 12.0417 68.4648 11.5221 68.4648 10.9102C68.4648 10.4987 68.5677 10.1172 68.7734 9.76562C68.9818 9.41146 69.2669 9.13542 69.6289 8.9375C69.9909 8.73958 70.3958 8.64062 70.8438 8.64062C71.125 8.64062 71.3958 8.68359 71.6562 8.76953C71.9193 8.85547 72.1419 8.96745 72.3242 9.10547C72.5065 9.24349 72.6615 9.41927 72.7891 9.63281ZM74.0352 7C74.1602 7 74.2669 7.04427 74.3555 7.13281C74.444 7.22135 74.4883 7.32812 74.4883 7.45312C74.4883 7.57552 74.444 7.68099 74.3555 7.76953C74.2669 7.85807 74.1602 7.90234 74.0352 7.90234C73.9128 7.90234 73.8073 7.85807 73.7188 7.76953C73.6302 7.68099 73.5859 7.57552 73.5859 7.45312C73.5859 7.32812 73.6302 7.22135 73.7188 7.13281C73.8073 7.04427 73.9128 7 74.0352 7ZM73.7617 8.75H74.3125V13H73.7617V8.75ZM75.4453 8.75H75.9922V9.51172C76.2109 9.22005 76.4531 9.0026 76.7188 8.85938C76.9844 8.71354 77.2734 8.64062 77.5859 8.64062C77.9036 8.64062 78.1849 8.72135 78.4297 8.88281C78.6771 9.04427 78.8594 9.26172 78.9766 9.53516C79.0938 9.80859 79.1523 10.2344 79.1523 10.8125V13H78.6094V10.9727C78.6094 10.4831 78.5885 10.1562 78.5469 9.99219C78.4818 9.71094 78.3594 9.5 78.1797 9.35938C78 9.21615 77.7656 9.14453 77.4766 9.14453C77.1458 9.14453 76.849 9.25391 76.5859 9.47266C76.3255 9.69141 76.1536 9.96224 76.0703 10.2852C76.0182 10.4961 75.9922 10.8815 75.9922 11.4414V13H75.4453V8.75ZM83.9883 8.75H84.5391V12.1367C84.5391 12.7331 84.487 13.1693 84.3828 13.4453C84.2396 13.8359 83.9909 14.1367 83.6367 14.3477C83.2826 14.5586 82.8568 14.6641 82.3594 14.6641C81.9948 14.6641 81.6667 14.612 81.375 14.5078C81.0859 14.4062 80.8503 14.2682 80.668 14.0938C80.4857 13.9219 80.3177 13.6693 80.1641 13.3359H80.7578C80.9193 13.6172 81.1276 13.8255 81.3828 13.9609C81.638 14.0964 81.9544 14.1641 82.332 14.1641C82.7044 14.1641 83.0182 14.0938 83.2734 13.9531C83.5312 13.8151 83.7148 13.6406 83.8242 13.4297C83.9336 13.2188 83.9883 12.8789 83.9883 12.4102V12.1914C83.7826 12.4518 83.5312 12.6523 83.2344 12.793C82.9375 12.931 82.6224 13 82.2891 13C81.8984 13 81.5312 12.9036 81.1875 12.7109C80.8438 12.5156 80.5781 12.2539 80.3906 11.9258C80.2031 11.5977 80.1094 11.237 80.1094 10.8438C80.1094 10.4505 80.207 10.0846 80.4023 9.74609C80.5977 9.40495 80.8672 9.13542 81.2109 8.9375C81.5573 8.73958 81.9219 8.64062 82.3047 8.64062C82.6224 8.64062 82.918 8.70703 83.1914 8.83984C83.4674 8.97005 83.7331 9.1862 83.9883 9.48828V8.75ZM82.375 9.16797C82.0651 9.16797 81.7773 9.24349 81.5117 9.39453C81.2461 9.54297 81.0378 9.75 80.8867 10.0156C80.7357 10.2786 80.6602 10.5638 80.6602 10.8711C80.6602 11.3372 80.8164 11.7227 81.1289 12.0273C81.4414 12.332 81.8464 12.4844 82.3438 12.4844C82.8464 12.4844 83.25 12.3333 83.5547 12.0312C83.862 11.7292 84.0156 11.332 84.0156 10.8398C84.0156 10.5195 83.9453 10.2344 83.8047 9.98438C83.6641 9.73177 83.4648 9.53255 83.207 9.38672C82.9492 9.24089 82.6719 9.16797 82.375 9.16797ZM11.8438 18.75V23H11.3047V22.2695C11.0755 22.5482 10.8177 22.7578 10.5312 22.8984C10.2474 23.0391 9.9362 23.1094 9.59766 23.1094C8.99609 23.1094 8.48177 22.8919 8.05469 22.457C7.63021 22.0195 7.41797 21.4883 7.41797 20.8633C7.41797 20.2513 7.63281 19.7279 8.0625 19.293C8.49219 18.8581 9.00911 18.6406 9.61328 18.6406C9.96224 18.6406 10.2773 18.7148 10.5586 18.8633C10.8424 19.0117 11.0911 19.2344 11.3047 19.5312V18.75H11.8438ZM9.65625 19.168C9.35156 19.168 9.07031 19.2435 8.8125 19.3945C8.55469 19.543 8.34896 19.7526 8.19531 20.0234C8.04427 20.2943 7.96875 20.5807 7.96875 20.8828C7.96875 21.1823 8.04557 21.4688 8.19922 21.7422C8.35286 22.0156 8.55859 22.2292 8.81641 22.3828C9.07682 22.5339 9.35547 22.6094 9.65234 22.6094C9.95182 22.6094 10.2357 22.5339 10.5039 22.3828C10.7721 22.2318 10.9779 22.0273 11.1211 21.7695C11.2669 21.5117 11.3398 21.2214 11.3398 20.8984C11.3398 20.4062 11.1771 19.9948 10.8516 19.6641C10.5286 19.3333 10.1302 19.168 9.65625 19.168ZM15.2148 17.1094H15.7617V23H15.2148V17.1094ZM18.9102 18.6406C19.5638 18.6406 20.1055 18.8776 20.5352 19.3516C20.9258 19.7839 21.1211 20.2956 21.1211 20.8867C21.1211 21.4805 20.9141 22 20.5 22.4453C20.0885 22.888 19.5586 23.1094 18.9102 23.1094C18.2591 23.1094 17.7266 22.888 17.3125 22.4453C16.901 22 16.6953 21.4805 16.6953 20.8867C16.6953 20.2982 16.8906 19.7878 17.2812 19.3555C17.7109 18.8789 18.2539 18.6406 18.9102 18.6406ZM18.9102 19.1758C18.457 19.1758 18.0677 19.3438 17.7422 19.6797C17.4167 20.0156 17.2539 20.4219 17.2539 20.8984C17.2539 21.2057 17.3281 21.4922 17.4766 21.7578C17.625 22.0234 17.8255 22.2292 18.0781 22.375C18.3307 22.5182 18.6081 22.5898 18.9102 22.5898C19.2122 22.5898 19.4896 22.5182 19.7422 22.375C19.9948 22.2292 20.1953 22.0234 20.3438 21.7578C20.4922 21.4922 20.5664 21.2057 20.5664 20.8984C20.5664 20.4219 20.4023 20.0156 20.0742 19.6797C19.7487 19.3438 19.3607 19.1758 18.9102 19.1758ZM22.6172 17.1719H23.168V18.75H24.0352V19.2188H23.168V23H22.6172V19.2188H21.8711V18.75H22.6172V17.1719ZM26.9883 17.1094H27.5352V23H26.9883V17.1094ZM32.9062 18.75V23H32.3672V22.2695C32.138 22.5482 31.8802 22.7578 31.5938 22.8984C31.3099 23.0391 30.9987 23.1094 30.6602 23.1094C30.0586 23.1094 29.5443 22.8919 29.1172 22.457C28.6927 22.0195 28.4805 21.4883 28.4805 20.8633C28.4805 20.2513 28.6953 19.7279 29.125 19.293C29.5547 18.8581 30.0716 18.6406 30.6758 18.6406C31.0247 18.6406 31.3398 18.7148 31.6211 18.8633C31.9049 19.0117 32.1536 19.2344 32.3672 19.5312V18.75H32.9062ZM30.7188 19.168C30.4141 19.168 30.1328 19.2435 29.875 19.3945C29.6172 19.543 29.4115 19.7526 29.2578 20.0234C29.1068 20.2943 29.0312 20.5807 29.0312 20.8828C29.0312 21.1823 29.1081 21.4688 29.2617 21.7422C29.4154 22.0156 29.6211 22.2292 29.8789 22.3828C30.1393 22.5339 30.418 22.6094 30.7148 22.6094C31.0143 22.6094 31.2982 22.5339 31.5664 22.3828C31.8346 22.2318 32.0404 22.0273 32.1836 21.7695C32.3294 21.5117 32.4023 21.2214 32.4023 20.8984C32.4023 20.4062 32.2396 19.9948 31.9141 19.6641C31.5911 19.3333 31.1927 19.168 30.7188 19.168ZM34.6172 17.1719H35.168V18.75H36.0352V19.2188H35.168V23H34.6172V19.2188H33.8711V18.75H34.6172V17.1719ZM40.4297 21.5898L40.8906 21.832C40.7396 22.1289 40.5651 22.3685 40.3672 22.5508C40.1693 22.7331 39.9466 22.8724 39.6992 22.9688C39.4518 23.0625 39.1719 23.1094 38.8594 23.1094C38.1667 23.1094 37.625 22.8828 37.2344 22.4297C36.8438 21.974 36.6484 21.4596 36.6484 20.8867C36.6484 20.3477 36.8138 19.8672 37.1445 19.4453C37.5638 18.9089 38.125 18.6406 38.8281 18.6406C39.5521 18.6406 40.1302 18.9154 40.5625 19.4648C40.8698 19.8529 41.026 20.3372 41.0312 20.918H37.2109C37.2214 21.4128 37.3789 21.819 37.6836 22.1367C37.9883 22.4518 38.3646 22.6094 38.8125 22.6094C39.0286 22.6094 39.2383 22.5716 39.4414 22.4961C39.6471 22.4206 39.8216 22.3203 39.9648 22.1953C40.1081 22.0703 40.263 21.8685 40.4297 21.5898ZM40.4297 20.4453C40.3568 20.1536 40.25 19.9206 40.1094 19.7461C39.9714 19.5716 39.7878 19.431 39.5586 19.3242C39.3294 19.2174 39.0885 19.1641 38.8359 19.1641C38.4193 19.1641 38.0612 19.2982 37.7617 19.5664C37.543 19.7617 37.3776 20.0547 37.2656 20.4453H40.4297ZM41.9727 17.1094H42.5195V23H41.9727V17.1094ZM43.1992 18.75H43.7773L45.2383 22.0234L46.6562 18.75H47.2383L44.7031 24.5547H44.125L44.9453 22.6797L43.1992 18.75ZM48.5469 22.1406C48.6797 22.1406 48.793 22.1875 48.8867 22.2812C48.9805 22.375 49.0273 22.4896 49.0273 22.625C49.0273 22.7578 48.9805 22.8724 48.8867 22.9688C48.793 23.0625 48.6797 23.1094 48.5469 23.1094C48.4141 23.1094 48.3008 23.0625 48.207 22.9688C48.1133 22.8724 48.0664 22.7578 48.0664 22.625C48.0664 22.4896 48.1133 22.375 48.207 22.2812C48.3008 22.1875 48.4141 22.1406 48.5469 22.1406Z" fill="black"/>
</svg>
