<svg width="347" height="358" viewBox="0 0 347 358" fill="none" xmlns="http://www.w3.org/2000/svg">
<rect width="346.829" height="358" rx="8" fill="white"/>
<rect width="330.829" height="342" transform="translate(8 8)" fill="#F4F7FA"/>
<rect width="41.3536" height="42.75" transform="translate(8 8)" fill="#F2F2F2"/>
<path d="M21.2812 21.2861C21.2812 21.9059 21.1377 22.4277 20.8506 22.8516C20.5635 23.2754 20.1715 23.5967 19.6748 23.8154C19.1826 24.0296 18.6266 24.1367 18.0068 24.1367C17.387 24.1367 16.8288 24.0296 16.332 23.8154C15.8353 23.5967 15.4434 23.2754 15.1562 22.8516C14.8691 22.4277 14.7256 21.9059 14.7256 21.2861C14.7256 20.876 14.8053 20.5046 14.9648 20.1719C15.1243 19.8346 15.3499 19.5452 15.6416 19.3037C15.9378 19.0576 16.2842 18.8685 16.6807 18.7363C17.0817 18.6042 17.5192 18.5381 17.9932 18.5381C18.6221 18.5381 19.1849 18.6543 19.6816 18.8867C20.1784 19.1191 20.568 19.4404 20.8506 19.8506C21.1377 20.2607 21.2812 20.7393 21.2812 21.2861ZM19.627 21.2041C19.627 20.8714 19.5586 20.5798 19.4219 20.3291C19.2852 20.0785 19.0938 19.8848 18.8477 19.748C18.6016 19.6113 18.3167 19.543 17.9932 19.543C17.665 19.543 17.3802 19.6113 17.1387 19.748C16.8971 19.8848 16.708 20.0785 16.5713 20.3291C16.4391 20.5798 16.373 20.8714 16.373 21.2041C16.373 21.5413 16.4391 21.833 16.5713 22.0791C16.7035 22.3206 16.8926 22.5052 17.1387 22.6328C17.3848 22.7604 17.6742 22.8242 18.0068 22.8242C18.3395 22.8242 18.6266 22.7604 18.8682 22.6328C19.1097 22.5052 19.2965 22.3206 19.4287 22.0791C19.5609 21.833 19.627 21.5413 19.627 21.2041ZM21.0557 16.665C21.0557 17.1618 20.9235 17.6038 20.6592 17.9912C20.3994 18.3786 20.0394 18.6839 19.5791 18.9072C19.1188 19.126 18.5947 19.2354 18.0068 19.2354C17.4144 19.2354 16.8857 19.126 16.4209 18.9072C15.9606 18.6839 15.5983 18.3786 15.334 17.9912C15.0742 17.6038 14.9443 17.1618 14.9443 16.665C14.9443 16.0726 15.0742 15.5736 15.334 15.168C15.5983 14.7578 15.9606 14.4456 16.4209 14.2314C16.8812 14.0173 17.4076 13.9102 18 13.9102C18.5924 13.9102 19.1188 14.0173 19.5791 14.2314C20.0394 14.4456 20.3994 14.7578 20.6592 15.168C20.9235 15.5736 21.0557 16.0726 21.0557 16.665ZM19.4082 16.7197C19.4082 16.4235 19.349 16.1637 19.2305 15.9404C19.1165 15.7126 18.9548 15.5348 18.7451 15.4072C18.5355 15.2796 18.2871 15.2158 18 15.2158C17.7129 15.2158 17.4645 15.2773 17.2549 15.4004C17.0452 15.5234 16.8835 15.6966 16.7695 15.9199C16.6556 16.1432 16.5986 16.4098 16.5986 16.7197C16.5986 17.0251 16.6556 17.2917 16.7695 17.5195C16.8835 17.7428 17.0452 17.9183 17.2549 18.0459C17.4691 18.1735 17.7197 18.2373 18.0068 18.2373C18.2939 18.2373 18.5423 18.1735 18.752 18.0459C18.9616 17.9183 19.1234 17.7428 19.2373 17.5195C19.3512 17.2917 19.4082 17.0251 19.4082 16.7197Z" fill="#5E5E5E"/>
<path d="M24.3686 15.5703C24.6825 15.5703 24.9767 15.6571 25.2302 15.8086C25.4836 15.6571 25.7778 15.5703 26.0917 15.5703H30.8301C31.144 15.5703 31.4382 15.6571 31.6917 15.8086C31.9451 15.6571 32.2393 15.5703 32.5532 15.5703H36.8608C37.8125 15.5703 38.5839 16.3678 38.5839 17.3516V21.3594C38.5839 21.92 38.3286 22.448 37.8947 22.7844L35.2359 24.8458L35.9888 31.8502C36.1881 33.7046 37.023 34.6454 38.2393 36.3219C38.463 36.6302 38.5839 37.0052 38.5839 37.3906V40.9531C38.5839 41.9369 37.8125 42.7344 36.8608 42.7344H20.061C19.1093 42.7344 18.3379 41.9369 18.3379 40.9531V37.3906C18.3379 37.0052 18.4588 36.6302 18.6825 36.3219C19.8988 34.6454 20.7337 33.7046 20.933 31.8502L21.6859 24.8458L19.0271 22.7844C18.5932 22.448 18.3379 21.92 18.3379 21.3594V17.3516C18.3379 16.3678 19.1093 15.5703 20.061 15.5703H24.3686Z" fill="#F4F7FA"/>
<path d="M20.0615 17.3516H24.3692V20.0234H26.0923V17.3516H30.8307V20.0234H32.5538V17.3516H36.8614V21.3594L33.4153 24.0312L34.2768 32.0469H22.6461L23.5077 24.0312L20.0615 21.3594V17.3516Z" fill="black"/>
<path d="M22.6461 33.8281H34.2768L36.8614 37.3906V40.9531H20.0615V37.3906L22.6461 33.8281Z" fill="black"/>
<rect width="41.3536" height="42.75" transform="translate(8 93.5)" fill="#F2F2F2"/>
<path d="M19.75 99.4854H19.9551V100.832H19.8389C19.251 100.832 18.7428 100.923 18.3145 101.105C17.8906 101.288 17.542 101.538 17.2686 101.857C16.9951 102.176 16.79 102.55 16.6533 102.979C16.5212 103.402 16.4551 103.854 16.4551 104.332V105.897C16.4551 106.294 16.4984 106.645 16.585 106.95C16.6715 107.251 16.7923 107.504 16.9473 107.709C17.1068 107.91 17.2891 108.062 17.4941 108.167C17.6992 108.272 17.9202 108.324 18.1572 108.324C18.4033 108.324 18.6266 108.274 18.8271 108.174C19.0277 108.069 19.1986 107.925 19.3398 107.743C19.4811 107.561 19.5882 107.344 19.6611 107.094C19.734 106.843 19.7705 106.57 19.7705 106.273C19.7705 105.991 19.734 105.727 19.6611 105.48C19.5928 105.23 19.4902 105.011 19.3535 104.824C19.2168 104.633 19.0459 104.485 18.8408 104.38C18.6403 104.271 18.4079 104.216 18.1436 104.216C17.8154 104.216 17.5169 104.293 17.248 104.448C16.9837 104.603 16.7695 104.806 16.6055 105.057C16.446 105.303 16.3594 105.565 16.3457 105.843L15.7168 105.638C15.7533 105.214 15.8467 104.833 15.9971 104.496C16.152 104.159 16.3548 103.872 16.6055 103.635C16.8561 103.398 17.1455 103.218 17.4736 103.095C17.8063 102.967 18.1709 102.903 18.5674 102.903C19.0505 102.903 19.4697 102.994 19.8252 103.177C20.1807 103.359 20.4746 103.607 20.707 103.922C20.944 104.232 21.1195 104.587 21.2334 104.988C21.3519 105.385 21.4111 105.799 21.4111 106.232C21.4111 106.711 21.3382 107.158 21.1924 107.572C21.0465 107.982 20.8324 108.342 20.5498 108.652C20.2718 108.962 19.9323 109.204 19.5312 109.377C19.1348 109.55 18.6836 109.637 18.1777 109.637C17.6445 109.637 17.1683 109.534 16.749 109.329C16.3343 109.124 15.9811 108.841 15.6895 108.481C15.4023 108.121 15.1836 107.707 15.0332 107.237C14.8828 106.768 14.8076 106.271 14.8076 105.747V105.063C14.8076 104.307 14.9033 103.594 15.0947 102.924C15.2861 102.249 15.5801 101.655 15.9766 101.14C16.3776 100.625 16.8903 100.221 17.5146 99.9297C18.139 99.6335 18.8841 99.4854 19.75 99.4854Z" fill="#5E5E5E"/>
<rect width="41.3536" height="42.75" transform="translate(8 179)" fill="#F2F2F2"/>
<path d="M21.6299 191.452V192.765H14.4521L14.3975 191.773L18.6904 185.047H20.0098L18.5811 187.494L16.1133 191.452H21.6299ZM20.3857 185.047V195H18.7383V185.047H20.3857Z" fill="#5E5E5E"/>
<rect width="41.3536" height="42.75" transform="translate(8 264.5)" fill="#F2F2F2"/>
<path d="M21.4453 279.188V280.5H14.7734V279.372L18.0137 275.838C18.3691 275.437 18.6494 275.09 18.8545 274.799C19.0596 274.507 19.2031 274.245 19.2852 274.013C19.3717 273.776 19.415 273.546 19.415 273.322C19.415 273.008 19.3558 272.732 19.2373 272.495C19.1234 272.254 18.9548 272.064 18.7314 271.928C18.5081 271.786 18.237 271.716 17.918 271.716C17.5488 271.716 17.2389 271.796 16.9883 271.955C16.7376 272.115 16.5485 272.336 16.4209 272.618C16.2933 272.896 16.2295 273.215 16.2295 273.575H14.582C14.582 272.996 14.7142 272.468 14.9785 271.989C15.2428 271.506 15.6257 271.123 16.127 270.841C16.6283 270.554 17.2321 270.41 17.9385 270.41C18.6038 270.41 19.1689 270.522 19.6338 270.745C20.0986 270.968 20.4518 271.285 20.6934 271.695C20.9395 272.105 21.0625 272.591 21.0625 273.151C21.0625 273.461 21.0124 273.769 20.9121 274.074C20.8118 274.38 20.6683 274.685 20.4814 274.99C20.2992 275.291 20.0827 275.594 19.832 275.899C19.5814 276.2 19.3057 276.506 19.0049 276.815L16.8516 279.188H21.4453Z" fill="#5E5E5E"/>
<path d="M23.1226 288.158C22.9171 288.448 22.6718 288.75 22.3858 289.061C21.3767 290.158 20.1392 291.06 19.3404 291.532L19.2061 291.612C18.6692 291.929 18.3379 292.519 18.3379 293.158V297.453C18.3379 298.437 19.1093 299.234 20.061 299.234H36.8608C37.8125 299.234 38.5839 298.437 38.5839 297.453V293.158C38.5839 292.519 38.2526 291.929 37.7157 291.612L37.5814 291.532C36.7826 291.06 35.5451 290.158 34.536 289.061C34.25 288.75 34.0048 288.448 33.7992 288.158C34.5554 287.97 35.1173 287.266 35.1173 286.426V283.527C35.1173 282.948 34.8453 282.405 34.3879 282.072L33.656 281.538C34.0783 280.689 34.3173 279.727 34.3173 278.708C34.3173 275.288 31.6356 272.516 28.3276 272.516C25.0195 272.516 22.3379 275.288 22.3379 278.708C22.3379 279.784 22.6044 280.797 23.0718 281.679L22.5339 282.072C22.0765 282.405 21.8045 282.948 21.8045 283.527V286.426C21.8045 287.266 22.3664 287.97 23.1226 288.158Z" fill="black"/>
<path d="M32.5948 278.708C32.5948 279.987 32.068 281.139 31.2264 281.945L33.3948 283.527V286.426H31.272C31.3744 287.77 32.2086 289.115 33.288 290.289C34.4335 291.534 35.8118 292.538 36.7271 293.079L36.8614 293.158V297.453H20.0615V293.158L20.1959 293.079C21.1112 292.538 22.4894 291.534 23.6349 290.289C24.7144 289.115 25.5485 287.77 25.6509 286.426H23.5282V283.527L25.5476 282.053C24.6377 281.244 24.0615 280.045 24.0615 278.708C24.0615 276.272 25.9717 274.297 28.3281 274.297C30.6845 274.297 32.5948 276.272 32.5948 278.708Z" fill="#F4F7FA"/>
<rect width="41.3536" height="42.75" transform="translate(8 50.75)" fill="#5E5E5E"/>
<path d="M21.3838 56.7969V57.6992L17.4053 66.75H15.6689L19.6406 58.1094H14.4863V56.7969H21.3838Z" fill="#F2F2F2"/>
<path d="M23.1226 74.4081C22.9171 74.6982 22.6718 75.0003 22.3858 75.3111C21.3767 76.4079 20.1392 77.3103 19.3404 77.7822L19.2061 77.8615C18.6692 78.1787 18.3379 78.7689 18.3379 79.4081V83.7031C18.3379 84.6869 19.1093 85.4844 20.061 85.4844H36.8608C37.8125 85.4844 38.5839 84.6869 38.5839 83.7031V79.4081C38.5839 78.7689 38.2526 78.1787 37.7157 77.8616L37.5814 77.7822C36.7826 77.3104 35.5451 76.4079 34.536 75.3111C34.25 75.0003 34.0048 74.6982 33.7992 74.4081C34.5554 74.2198 35.1173 73.5159 35.1173 72.6763V69.7768C35.1173 69.198 34.8453 68.6553 34.3879 68.3216L33.656 67.7876C34.0783 66.9394 34.3173 65.9769 34.3173 64.9576C34.3173 61.5379 31.6356 58.7656 28.3276 58.7656C25.0195 58.7656 22.3379 61.5379 22.3379 64.9576C22.3379 66.0343 22.6044 67.0472 23.0718 67.9291L22.5339 68.3216C22.0765 68.6553 21.8045 69.198 21.8045 69.7768V72.6763C21.8045 73.5159 22.3664 74.2198 23.1226 74.4081Z" fill="#F4F7FA"/>
<path d="M32.5948 64.9576C32.5948 66.2368 32.068 67.3889 31.2264 68.1945L33.3948 69.7768V72.6763H31.272C31.3744 74.0204 32.2086 75.3654 33.288 76.5387C34.4335 77.7838 35.8118 78.788 36.7271 79.3287L36.8614 79.4081V83.7031H20.0615V79.4081L20.1959 79.3287C21.1112 78.788 22.4894 77.7838 23.6349 76.5387C24.7144 75.3654 25.5485 74.0204 25.6509 72.6763H23.5282V69.7768L25.5476 68.3032C24.6377 67.4943 24.0615 66.2955 24.0615 64.9576C24.0615 62.5216 25.9717 60.5469 28.3281 60.5469C30.6845 60.5469 32.5948 62.5216 32.5948 64.9576Z" fill="black"/>
<rect width="41.3536" height="42.75" transform="translate(8 136.25)" fill="#5E5E5E"/>
<path d="M16.5029 147.622L15.1904 147.301L15.7305 142.297H21.0967V143.691H17.0977L16.8242 146.132C16.9792 146.041 17.1934 145.952 17.4668 145.865C17.7402 145.774 18.0524 145.729 18.4033 145.729C18.8727 145.729 19.292 145.806 19.6611 145.961C20.0348 146.111 20.3516 146.332 20.6113 146.624C20.8711 146.911 21.0693 147.262 21.2061 147.677C21.3428 148.087 21.4111 148.549 21.4111 149.064C21.4111 149.525 21.3428 149.955 21.2061 150.356C21.0739 150.757 20.8734 151.111 20.6045 151.416C20.3356 151.721 19.9961 151.961 19.5859 152.134C19.1803 152.302 18.6995 152.387 18.1436 152.387C17.7288 152.387 17.3301 152.327 16.9473 152.209C16.569 152.086 16.2295 151.906 15.9287 151.669C15.6279 151.427 15.3864 151.131 15.2041 150.78C15.0218 150.425 14.917 150.017 14.8896 149.557H16.5029C16.5439 149.88 16.6328 150.156 16.7695 150.384C16.9108 150.607 17.0977 150.778 17.3301 150.896C17.5625 151.015 17.8314 151.074 18.1367 151.074C18.4147 151.074 18.654 151.026 18.8545 150.931C19.055 150.83 19.2214 150.689 19.3535 150.507C19.4902 150.32 19.5905 150.101 19.6543 149.851C19.7227 149.6 19.7568 149.322 19.7568 149.017C19.7568 148.725 19.7181 148.458 19.6406 148.217C19.5677 147.975 19.4561 147.766 19.3057 147.588C19.1598 147.41 18.9753 147.273 18.752 147.178C18.5286 147.077 18.2712 147.027 17.9795 147.027C17.5876 147.027 17.2868 147.084 17.0771 147.198C16.8721 147.312 16.6807 147.453 16.5029 147.622Z" fill="#F2F2F2"/>
<rect width="41.3536" height="42.75" transform="translate(8 221.75)" fill="#5E5E5E"/>
<path d="M16.708 232.028H17.6924C18.0752 232.028 18.3919 231.962 18.6426 231.83C18.8978 231.698 19.0869 231.516 19.21 231.283C19.333 231.051 19.3945 230.784 19.3945 230.483C19.3945 230.169 19.3376 229.9 19.2236 229.677C19.1143 229.449 18.9456 229.273 18.7178 229.15C18.4945 229.027 18.2096 228.966 17.8633 228.966C17.5716 228.966 17.3073 229.025 17.0703 229.144C16.8379 229.257 16.6533 229.422 16.5166 229.636C16.3799 229.845 16.3115 230.096 16.3115 230.388H14.6572C14.6572 229.859 14.7962 229.39 15.0742 228.979C15.3522 228.569 15.7305 228.248 16.209 228.016C16.6921 227.779 17.2344 227.66 17.8359 227.66C18.4785 227.66 19.0391 227.767 19.5176 227.981C20.0007 228.191 20.3766 228.506 20.6455 228.925C20.9144 229.344 21.0488 229.864 21.0488 230.483C21.0488 230.766 20.9827 231.053 20.8506 231.345C20.7184 231.636 20.5225 231.903 20.2627 232.145C20.0029 232.382 19.6794 232.575 19.292 232.726C18.9046 232.871 18.4557 232.944 17.9453 232.944H16.708V232.028ZM16.708 233.313V232.411H17.9453C18.5286 232.411 19.0254 232.479 19.4355 232.616C19.8503 232.753 20.1875 232.942 20.4473 233.184C20.707 233.421 20.8962 233.692 21.0146 233.997C21.1377 234.302 21.1992 234.626 21.1992 234.968C21.1992 235.433 21.1149 235.847 20.9463 236.212C20.7822 236.572 20.5475 236.877 20.2422 237.128C19.9368 237.379 19.5791 237.568 19.1689 237.695C18.7633 237.823 18.3213 237.887 17.8428 237.887C17.4144 237.887 17.0042 237.827 16.6123 237.709C16.2204 237.59 15.8695 237.415 15.5596 237.183C15.2497 236.946 15.0036 236.652 14.8213 236.301C14.6436 235.945 14.5547 235.535 14.5547 235.07H16.2021C16.2021 235.367 16.2705 235.629 16.4072 235.856C16.5485 236.08 16.7445 236.255 16.9951 236.383C17.2503 236.51 17.542 236.574 17.8701 236.574C18.2165 236.574 18.515 236.513 18.7656 236.39C19.0163 236.267 19.2077 236.084 19.3398 235.843C19.4766 235.601 19.5449 235.31 19.5449 234.968C19.5449 234.58 19.4697 234.266 19.3193 234.024C19.1689 233.783 18.9548 233.605 18.6768 233.491C18.3988 233.373 18.0706 233.313 17.6924 233.313H16.708Z" fill="#F2F2F2"/>
<rect width="41.3536" height="42.75" transform="translate(8 307.25)" fill="#5E5E5E"/>
<path d="M39.2461 335.623L36.2725 344.25H34.4746L38.2207 334.297H39.3691L39.2461 335.623ZM41.7344 344.25L38.7539 335.623L38.624 334.297H39.7793L43.5391 344.25H41.7344ZM41.5908 340.559V341.919H36.1768V340.559H41.5908Z" fill="#F2F2F2"/>
<path d="M19.2715 313.263V323.25H17.624V315.218L15.1836 316.045V314.685L19.0732 313.263H19.2715Z" fill="#F2F2F2"/>
<path d="M24.3686 314.82C24.6825 314.82 24.9767 314.907 25.2302 315.059C25.4836 314.907 25.7778 314.82 26.0917 314.82H30.8301C31.144 314.82 31.4382 314.907 31.6917 315.059C31.9451 314.907 32.2393 314.82 32.5532 314.82H36.8608C37.8125 314.82 38.5839 315.618 38.5839 316.602V320.609C38.5839 321.17 38.3286 321.698 37.8947 322.034L35.2359 324.096L35.9888 331.1C36.1881 332.955 37.023 333.895 38.2393 335.572C38.463 335.88 38.5839 336.255 38.5839 336.641V340.203C38.5839 341.187 37.8125 341.984 36.8608 341.984H20.061C19.1093 341.984 18.3379 341.187 18.3379 340.203V336.641C18.3379 336.255 18.4588 335.88 18.6825 335.572C19.8988 333.895 20.7337 332.955 20.933 331.1L21.6859 324.096L19.0271 322.034C18.5932 321.698 18.3379 321.17 18.3379 320.609V316.602C18.3379 315.618 19.1093 314.82 20.061 314.82H24.3686Z" fill="black"/>
<path d="M20.0615 316.602H24.3692V319.273H26.0923V316.602H30.8307V319.273H32.5538V316.602H36.8614V320.609L33.4153 323.281L34.2768 331.297H22.6461L23.5077 323.281L20.0615 320.609V316.602Z" fill="#F4F7FA"/>
<path d="M22.6461 333.078H34.2768L36.8614 336.641V340.203H20.0615V336.641L22.6461 333.078Z" fill="#F4F7FA"/>
<rect width="41.3536" height="42.75" transform="translate(90.707 50.75)" fill="#5E5E5E"/>
<path d="M105.83 74.4081C105.624 74.6982 105.379 75.0003 105.093 75.3111C104.084 76.4079 102.846 77.3103 102.047 77.7822L101.913 77.8615C101.376 78.1787 101.045 78.7689 101.045 79.4081V83.7031C101.045 84.6869 101.816 85.4844 102.768 85.4844H119.568C120.52 85.4844 121.291 84.6869 121.291 83.7031V79.4081C121.291 78.7689 120.96 78.1787 120.423 77.8616L120.288 77.7822C119.49 77.3104 118.252 76.4079 117.243 75.3111C116.957 75.0003 116.712 74.6982 116.506 74.4081C117.262 74.2198 117.824 73.5159 117.824 72.6763V69.7768C117.824 69.198 117.552 68.6553 117.095 68.3216L116.363 67.7876C116.785 66.9394 117.024 65.9769 117.024 64.9576C117.024 61.5379 114.343 58.7656 111.035 58.7656C107.727 58.7656 105.045 61.5379 105.045 64.9576C105.045 66.0343 105.311 67.0472 105.779 67.9291L105.241 68.3216C104.784 68.6553 104.512 69.198 104.512 69.7768V72.6763C104.512 73.5159 105.073 74.2198 105.83 74.4081Z" fill="#F4F7FA"/>
<path d="M115.302 64.9576C115.302 66.2368 114.775 67.3889 113.933 68.1945L116.102 69.7768V72.6763H113.979C114.081 74.0204 114.916 75.3654 115.995 76.5387C117.141 77.7838 118.519 78.788 119.434 79.3287L119.568 79.4081V83.7031H102.769V79.4081L102.903 79.3287C103.818 78.788 105.196 77.7838 106.342 76.5387C107.421 75.3654 108.256 74.0204 108.358 72.6763H106.235V69.7768L108.255 68.3032C107.345 67.4943 106.769 66.2955 106.769 64.9576C106.769 62.5216 108.679 60.5469 111.035 60.5469C113.392 60.5469 115.302 62.5216 115.302 64.9576Z" fill="black"/>
<rect width="41.3536" height="42.75" transform="translate(90.707 136.25)" fill="#5E5E5E"/>
<rect width="41.3536" height="42.75" transform="translate(90.707 221.75)" fill="#5E5E5E"/>
<rect width="41.3536" height="42.75" transform="translate(90.707 307.25)" fill="#5E5E5E"/>
<path d="M124.024 341.01H125.733C125.679 341.661 125.496 342.243 125.187 342.753C124.877 343.259 124.441 343.658 123.881 343.949C123.32 344.241 122.639 344.387 121.837 344.387C121.222 344.387 120.668 344.277 120.176 344.059C119.684 343.835 119.262 343.521 118.911 343.115C118.56 342.705 118.291 342.211 118.104 341.632C117.922 341.053 117.831 340.406 117.831 339.69V338.863C117.831 338.148 117.924 337.501 118.111 336.922C118.303 336.343 118.576 335.849 118.932 335.438C119.287 335.024 119.713 334.707 120.21 334.488C120.711 334.27 121.274 334.16 121.898 334.16C122.691 334.16 123.361 334.306 123.908 334.598C124.455 334.889 124.879 335.293 125.18 335.808C125.485 336.323 125.672 336.913 125.74 337.578H124.031C123.986 337.15 123.885 336.783 123.73 336.478C123.58 336.172 123.357 335.94 123.061 335.78C122.764 335.616 122.377 335.534 121.898 335.534C121.507 335.534 121.165 335.607 120.873 335.753C120.581 335.899 120.338 336.113 120.142 336.396C119.946 336.678 119.798 337.027 119.697 337.441C119.602 337.852 119.554 338.321 119.554 338.85V339.69C119.554 340.192 119.597 340.647 119.684 341.058C119.775 341.463 119.911 341.812 120.094 342.104C120.281 342.395 120.518 342.621 120.805 342.78C121.092 342.94 121.436 343.02 121.837 343.02C122.325 343.02 122.719 342.942 123.02 342.787C123.325 342.632 123.555 342.407 123.71 342.11C123.869 341.81 123.974 341.443 124.024 341.01Z" fill="#F2F2F2"/>
<path d="M107.211 320.112C107.038 319.621 106.943 319.09 106.943 318.537C106.943 315.992 108.938 313.93 111.4 313.93C113.861 313.93 115.857 315.992 115.857 318.537C115.857 319.282 115.684 319.989 115.379 320.614C115.818 320.645 116.245 320.85 116.557 321.218C118.249 323.217 119.729 326.067 119.729 329.37C119.729 331.732 118.943 333.482 117.88 334.743L119.899 335.109C120.723 335.258 121.324 335.998 121.324 336.863V340.203C121.324 340.676 121.142 341.129 120.819 341.463C120.496 341.797 120.058 341.984 119.601 341.984L103.199 341.984C102.247 341.984 101.476 341.187 101.476 340.203V336.863C101.476 335.999 102.075 335.26 102.898 335.109L104.719 334.776C103.642 333.513 102.842 331.753 102.842 329.37C102.842 326.793 103.809 324.548 104.942 322.828C105.654 321.747 106.46 320.829 107.211 320.112Z" fill="black"/>
<path d="M112.245 329.135H110.522C110.522 325.864 111.482 322.599 113.605 320.208C113.938 319.74 114.134 319.162 114.134 318.537C114.134 316.976 112.91 315.711 111.4 315.711C109.891 315.711 108.667 316.976 108.667 318.537C108.667 319.307 108.965 320.005 109.448 320.515C107.74 321.773 104.566 325.147 104.566 329.37C104.566 333.632 107.799 335.358 109.494 335.712L103.199 336.863V340.203L119.601 340.203V336.863L113.157 335.695C114.872 335.305 118.007 333.567 118.007 329.37C118.007 326.622 116.768 324.172 115.261 322.391C113.605 323.727 112.245 326.844 112.245 329.135Z" fill="#F4F7FA"/>
<rect width="41.3536" height="42.75" transform="translate(173.414 50.75)" fill="#5E5E5E"/>
<path d="M188.537 74.4081C188.331 74.6982 188.086 75.0003 187.8 75.3111C186.791 76.4079 185.553 77.3103 184.754 77.7822L184.62 77.8615C184.083 78.1787 183.752 78.7689 183.752 79.4081V83.7031C183.752 84.6869 184.523 85.4844 185.475 85.4844H202.275C203.227 85.4844 203.998 84.6869 203.998 83.7031V79.4081C203.998 78.7689 203.667 78.1787 203.13 77.8616L202.995 77.7822C202.197 77.3104 200.959 76.4079 199.95 75.3111C199.664 75.0003 199.419 74.6982 199.213 74.4081C199.969 74.2198 200.531 73.5159 200.531 72.6763V69.7768C200.531 69.198 200.259 68.6553 199.802 68.3216L199.07 67.7876C199.492 66.9394 199.731 65.9769 199.731 64.9576C199.731 61.5379 197.05 58.7656 193.742 58.7656C190.434 58.7656 187.752 61.5379 187.752 64.9576C187.752 66.0343 188.018 67.0472 188.486 67.9291L187.948 68.3216C187.491 68.6553 187.219 69.198 187.219 69.7768V72.6763C187.219 73.5159 187.78 74.2198 188.537 74.4081Z" fill="#F4F7FA"/>
<path d="M198.009 64.9576C198.009 66.2368 197.482 67.3889 196.64 68.1945L198.809 69.7768V72.6763H196.686C196.788 74.0204 197.623 75.3654 198.702 76.5387C199.848 77.7838 201.226 78.788 202.141 79.3287L202.275 79.4081V83.7031H185.476V79.4081L185.61 79.3287C186.525 78.788 187.903 77.7838 189.049 76.5387C190.128 75.3654 190.963 74.0204 191.065 72.6763H188.942V69.7768L190.962 68.3032C190.052 67.4943 189.476 66.2955 189.476 64.9576C189.476 62.5216 191.386 60.5469 193.742 60.5469C196.099 60.5469 198.009 62.5216 198.009 64.9576Z" fill="black"/>
<rect width="41.3536" height="42.75" transform="translate(173.414 136.25)" fill="#5E5E5E"/>
<rect width="41.3536" height="42.75" transform="translate(173.414 221.75)" fill="#5E5E5E"/>
<rect width="41.3536" height="42.75" transform="translate(173.414 307.25)" fill="#5E5E5E"/>
<path d="M207.982 342.89V344.25H202.698V342.89H207.982ZM203.184 334.297V344.25H201.468V334.297H203.184ZM207.292 338.453V339.793H202.698V338.453H207.292ZM207.948 334.297V335.664H202.698V334.297H207.948Z" fill="#F2F2F2"/>
<g clip-path="url(#clip0_274_711)">
<path fill-rule="evenodd" clip-rule="evenodd" d="M191.506 314.319C191.536 313.358 192.298 312.594 193.229 312.594H195.813C196.744 312.594 197.506 313.358 197.536 314.319L197.551 314.82H198.398C199.35 314.82 200.121 315.618 200.121 316.602V317.682C201.999 317.243 204.026 317.536 205.747 319.018C209.322 322.098 208.993 328.553 204.75 332.084C203.727 332.936 202.922 333.642 202.369 334.37C202.242 334.536 202.134 334.697 202.043 334.854L203.789 335.098C204.644 335.218 205.281 335.972 205.281 336.863V340.203C205.281 341.187 204.51 341.984 203.558 341.984H185.484C184.532 341.984 183.761 341.187 183.761 340.203V336.863C183.761 335.972 184.398 335.218 185.253 335.098L186.999 334.854C186.908 334.697 186.8 334.536 186.673 334.37C186.12 333.642 185.315 332.936 184.292 332.084C180.049 328.553 179.72 322.098 183.295 319.018C185.016 317.536 187.043 317.243 188.921 317.682V316.602C188.921 315.618 189.692 314.82 190.644 314.82H191.491L191.506 314.319Z" fill="black"/>
<path fill-rule="evenodd" clip-rule="evenodd" d="M193.229 314.375H195.814L195.881 316.602H198.399V319.273H195.962L196.08 322.298C196.128 322.241 196.176 322.185 196.226 322.129C198.58 319.544 202.069 318.168 204.645 320.387C207.229 322.613 207.229 327.734 203.671 330.696C201.655 332.374 199.849 333.991 199.938 336.357L203.559 336.863V340.203H185.484V336.863L189.105 336.357C189.194 333.991 187.389 332.374 185.373 330.696C181.814 327.734 181.814 322.613 184.399 320.387C186.974 318.168 190.464 319.544 192.817 322.129C192.867 322.185 192.916 322.241 192.963 322.298L193.081 319.273H190.645V316.602H193.162L193.229 314.375ZM190.795 324.605C192.374 327.28 192.583 330.406 192.583 331.766C191.791 331.767 188.807 330.41 187.227 328.182C186.089 326.578 185.793 324.197 186.768 323.273C187.743 322.349 189.807 322.934 190.795 324.605ZM198.249 324.605C196.669 327.28 196.46 330.406 196.46 331.766C197.252 331.767 200.236 330.41 201.816 328.182C202.954 326.578 203.251 324.197 202.275 323.273C201.3 322.349 199.236 322.934 198.249 324.605Z" fill="#F4F7FA"/>
</g>
<rect width="41.3536" height="42.75" transform="translate(256.121 50.75)" fill="#5E5E5E"/>
<path d="M271.244 74.4081C271.038 74.6982 270.793 75.0003 270.507 75.3111C269.498 76.4079 268.26 77.3103 267.462 77.7822L267.327 77.8615C266.79 78.1787 266.459 78.7689 266.459 79.4081V83.7031C266.459 84.6869 267.23 85.4844 268.182 85.4844H284.982C285.934 85.4844 286.705 84.6869 286.705 83.7031V79.4081C286.705 78.7689 286.374 78.1787 285.837 77.8616L285.702 77.7822C284.904 77.3104 283.666 76.4079 282.657 75.3111C282.371 75.0003 282.126 74.6982 281.92 74.4081C282.676 74.2198 283.238 73.5159 283.238 72.6763V69.7768C283.238 69.198 282.966 68.6553 282.509 68.3216L281.777 67.7876C282.199 66.9394 282.438 65.9769 282.438 64.9576C282.438 61.5379 279.757 58.7656 276.449 58.7656C273.141 58.7656 270.459 61.5379 270.459 64.9576C270.459 66.0343 270.725 67.0472 271.193 67.9291L270.655 68.3216C270.198 68.6553 269.926 69.198 269.926 69.7768V72.6763C269.926 73.5159 270.487 74.2198 271.244 74.4081Z" fill="#F4F7FA"/>
<path d="M280.716 64.9576C280.716 66.2368 280.189 67.3889 279.348 68.1945L281.516 69.7768V72.6763H279.393C279.495 74.0204 280.33 75.3654 281.409 76.5387C282.555 77.7838 283.933 78.788 284.848 79.3287L284.983 79.4081V83.7031H268.183V79.4081L268.317 79.3287C269.232 78.788 270.61 77.7838 271.756 76.5387C272.835 75.3654 273.67 74.0204 273.772 72.6763H271.649V69.7768L273.669 68.3032C272.759 67.4943 272.183 66.2955 272.183 64.9576C272.183 62.5216 274.093 60.5469 276.449 60.5469C278.806 60.5469 280.716 62.5216 280.716 64.9576Z" fill="black"/>
<rect width="41.3536" height="42.75" transform="translate(256.121 136.25)" fill="#5E5E5E"/>
<rect opacity="0.5" x="265.121" y="145.25" width="24" height="24" rx="12" fill="#FFD335"/>
<rect width="41.3536" height="42.75" transform="translate(256.121 221.75)" fill="#5E5E5E"/>
<rect opacity="0.5" x="265.121" y="230.75" width="24" height="24" rx="12" fill="#FFD335"/>
<rect width="41.3536" height="42.75" transform="translate(256.121 307.25)" fill="#5E5E5E"/>
<path d="M291.004 339.164V342.965C290.863 343.152 290.642 343.357 290.341 343.58C290.045 343.799 289.65 343.988 289.158 344.147C288.666 344.307 288.053 344.387 287.319 344.387C286.695 344.387 286.123 344.282 285.604 344.072C285.084 343.858 284.635 343.546 284.257 343.136C283.883 342.726 283.594 342.227 283.389 341.639C283.184 341.046 283.081 340.372 283.081 339.615V338.925C283.081 338.173 283.174 337.503 283.361 336.915C283.553 336.323 283.826 335.821 284.182 335.411C284.537 335.001 284.965 334.691 285.467 334.481C285.973 334.267 286.545 334.16 287.183 334.16C287.998 334.16 288.673 334.297 289.206 334.57C289.744 334.839 290.159 335.213 290.45 335.691C290.742 336.17 290.926 336.717 291.004 337.332H289.322C289.268 336.986 289.16 336.676 289.001 336.402C288.846 336.129 288.623 335.915 288.331 335.76C288.044 335.6 287.67 335.521 287.21 335.521C286.813 335.521 286.465 335.596 286.164 335.746C285.863 335.896 285.613 336.118 285.412 336.409C285.216 336.701 285.068 337.056 284.968 337.476C284.868 337.895 284.817 338.373 284.817 338.911V339.615C284.817 340.162 284.874 340.647 284.988 341.071C285.107 341.495 285.275 341.853 285.494 342.145C285.717 342.436 285.989 342.657 286.308 342.808C286.627 342.953 286.987 343.026 287.388 343.026C287.78 343.026 288.101 342.994 288.352 342.931C288.602 342.862 288.8 342.783 288.946 342.691C289.097 342.596 289.213 342.505 289.295 342.418V340.442H287.224V339.164H291.004Z" fill="#F2F2F2"/>
<path d="M274.08 312.819C274.647 312.753 275.209 312.982 275.581 313.43L279.096 317.669C283.133 318.7 285.472 321.843 286.766 325.766C288.099 329.808 288.429 334.94 288.429 340.203C288.429 341.187 287.657 341.984 286.706 341.984H270.64C269.726 341.984 268.97 341.245 268.92 340.301C268.875 339.458 269.062 337.996 269.634 336.503L269.644 336.476C268.022 337.376 266.221 337.16 264.884 336.176C263.259 334.981 262.355 332.639 263.388 330.328C264.132 328.66 264.934 327.778 265.541 327.11C266.108 326.486 266.344 326.212 266.511 325.521C267.524 321.331 269.609 318.917 271.848 317.816C271.815 317.338 271.842 316.879 271.898 316.461C272.039 315.422 272.39 314.461 272.748 313.759C273.014 313.237 273.513 312.885 274.08 312.819Z" fill="black"/>
<path fill-rule="evenodd" clip-rule="evenodd" d="M278.163 319.281L274.272 314.589C273.708 315.695 273.162 317.646 273.947 319.055C273.566 319.09 273.202 319.156 272.92 319.273C271.123 320.019 269.151 321.945 268.182 325.953C267.901 327.113 267.396 327.669 266.796 328.33C266.229 328.953 265.578 329.669 264.951 331.074C263.659 333.969 267.146 336.863 269.69 334.234C271.119 332.756 272.369 332.146 273.418 331.634C274.929 330.896 276.023 330.362 276.642 327.734C276.936 328.96 276.818 331.852 273.994 333.617C271.169 335.382 270.58 339.1 270.639 340.203H286.705C286.705 329.731 285.364 320.683 278.163 319.281Z" fill="#F4F7FA"/>
<ellipse cx="273.352" cy="324.617" rx="1.2923" ry="1.33594" fill="black"/>
<rect width="41.3536" height="42.75" transform="translate(173.414 8)" fill="#F2F2F2"/>
<g clip-path="url(#clip1_274_711)">
<path fill-rule="evenodd" clip-rule="evenodd" d="M191.506 15.0694C191.536 14.1077 192.298 13.3438 193.229 13.3438H195.813C196.744 13.3438 197.506 14.1077 197.536 15.0694L197.551 15.5703H198.398C199.35 15.5703 200.121 16.3678 200.121 17.3516V18.4319C201.999 17.9925 204.026 18.286 205.747 19.7683C209.322 22.8477 208.993 29.3029 204.75 32.8337C203.727 33.6857 202.922 34.3921 202.369 35.12C202.242 35.286 202.134 35.4467 202.043 35.6039L203.789 35.8481C204.644 35.9676 205.281 36.7218 205.281 37.6133V40.9531C205.281 41.9369 204.51 42.7344 203.558 42.7344H185.484C184.532 42.7344 183.761 41.9369 183.761 40.9531V37.6133C183.761 36.7218 184.398 35.9676 185.253 35.8481L186.999 35.6039C186.908 35.4467 186.8 35.286 186.673 35.12C186.12 34.3921 185.315 33.6857 184.292 32.8337C180.049 29.3029 179.72 22.8477 183.295 19.7683C185.016 18.286 187.043 17.9925 188.921 18.4319V17.3516C188.921 16.3678 189.692 15.5703 190.644 15.5703H191.491L191.506 15.0694Z" fill="#F4F7FA"/>
<path fill-rule="evenodd" clip-rule="evenodd" d="M193.229 15.125H195.814L195.881 17.3516H198.399V20.0234H195.962L196.08 23.0484C196.128 22.9909 196.176 22.9345 196.226 22.8794C198.58 20.2938 202.069 18.9178 204.645 21.1367C207.229 23.3633 207.229 28.4844 203.671 31.4462C201.655 33.124 199.849 34.7414 199.938 37.107L203.559 37.6133V40.9531H185.484V37.6133L189.105 37.107C189.194 34.7414 187.389 33.124 185.373 31.4462C181.814 28.4844 181.814 23.3633 184.399 21.1367C186.974 18.9178 190.464 20.2938 192.817 22.8794C192.867 22.9345 192.916 22.9909 192.963 23.0484L193.081 20.0234H190.645V17.3516H193.162L193.229 15.125ZM190.795 25.3552C192.374 28.0298 192.583 31.1562 192.583 32.5159C191.791 32.5174 188.807 31.16 187.227 28.9318C186.089 27.3276 185.793 24.9475 186.768 24.0234C187.743 23.0994 189.807 23.6836 190.795 25.3552ZM198.249 25.3552C196.669 28.0298 196.46 31.1562 196.46 32.5159C197.252 32.5174 200.236 31.16 201.816 28.9318C202.954 27.3276 203.251 24.9475 202.275 24.0234C201.3 23.0994 199.236 23.6836 198.249 25.3552Z" fill="black"/>
</g>
<rect width="41.3536" height="42.75" transform="translate(173.414 93.5)" fill="#F2F2F2"/>
<rect opacity="0.5" x="182.414" y="102.5" width="24" height="24" rx="12" fill="#FFD335"/>
<rect width="41.3536" height="42.75" transform="translate(173.414 179)" fill="#F2F2F2"/>
<path d="M188.537 202.658C188.331 202.948 188.086 203.25 187.8 203.561C186.791 204.658 185.553 205.56 184.754 206.032L184.62 206.112C184.083 206.429 183.752 207.019 183.752 207.658V211.953C183.752 212.937 184.523 213.734 185.475 213.734H202.275C203.227 213.734 203.998 212.937 203.998 211.953V207.658C203.998 207.019 203.667 206.429 203.13 206.112L202.995 206.032C202.197 205.56 200.959 204.658 199.95 203.561C199.664 203.25 199.419 202.948 199.213 202.658C199.969 202.47 200.531 201.766 200.531 200.926V198.027C200.531 197.448 200.259 196.905 199.802 196.572L199.07 196.038C199.492 195.189 199.731 194.227 199.731 193.208C199.731 189.788 197.05 187.016 193.742 187.016C190.434 187.016 187.752 189.788 187.752 193.208C187.752 194.284 188.018 195.297 188.486 196.179L187.948 196.572C187.491 196.905 187.219 197.448 187.219 198.027V200.926C187.219 201.766 187.78 202.47 188.537 202.658Z" fill="black"/>
<path d="M198.009 193.208C198.009 194.487 197.482 195.639 196.64 196.445L198.809 198.027V200.926H196.686C196.788 202.27 197.623 203.615 198.702 204.789C199.848 206.034 201.226 207.038 202.141 207.579L202.275 207.658V211.953H185.476V207.658L185.61 207.579C186.525 207.038 187.903 206.034 189.049 204.789C190.128 203.615 190.963 202.27 191.065 200.926H188.942V198.027L190.962 196.553C190.052 195.744 189.476 194.545 189.476 193.208C189.476 190.772 191.386 188.797 193.742 188.797C196.099 188.797 198.009 190.772 198.009 193.208Z" fill="#F4F7FA"/>
<rect width="41.3536" height="42.75" transform="translate(173.414 264.5)" fill="#F2F2F2"/>
<rect opacity="0.5" x="182.414" y="273.5" width="24" height="24" rx="12" fill="#FFD335"/>
<rect width="41.3536" height="42.75" transform="translate(90.707 8)" fill="#F2F2F2"/>
<path d="M107.211 20.8623C107.038 20.3706 106.943 19.8399 106.943 19.287C106.943 16.7424 108.938 14.6797 111.4 14.6797C113.861 14.6797 115.857 16.7424 115.857 19.287C115.857 20.0323 115.684 20.7389 115.379 21.3636C115.818 21.395 116.245 21.5998 116.557 21.9677C118.249 23.9665 119.729 26.8166 119.729 30.12C119.729 32.4818 118.943 34.2318 117.88 35.4928L119.899 35.8588C120.723 36.0082 121.324 36.7482 121.324 37.6133V40.9531C121.324 41.4255 121.142 41.8786 120.819 42.2127C120.496 42.5467 120.058 42.7344 119.601 42.7344L103.199 42.7344C102.247 42.7344 101.476 41.9369 101.476 40.9531V37.6133C101.476 36.7492 102.075 36.0098 102.898 35.8593L104.719 35.5263C103.642 34.2629 102.842 32.503 102.842 30.12C102.842 27.5427 103.809 25.2981 104.942 23.5779C105.654 22.4967 106.46 21.5788 107.211 20.8623Z" fill="#F4F7FA"/>
<path d="M112.245 29.8845H110.522C110.522 26.6138 111.482 23.3485 113.605 20.9584C113.938 20.4903 114.134 19.9124 114.134 19.287C114.134 17.7262 112.91 16.4609 111.4 16.4609C109.891 16.4609 108.667 17.7262 108.667 19.287C108.667 20.057 108.965 20.7551 109.448 21.2648C107.74 22.5233 104.566 25.8966 104.566 30.12C104.566 34.3822 107.799 36.1078 109.494 36.462L103.199 37.6133V40.9531L119.601 40.9531V37.6133L113.157 36.4449C114.872 36.0546 118.007 34.3173 118.007 30.12C118.007 27.3718 116.768 24.9219 115.261 23.1406C113.605 24.4766 112.245 27.5937 112.245 29.8845Z" fill="black"/>
<rect width="41.3536" height="42.75" transform="translate(90.707 93.5)" fill="#F2F2F2"/>
<path d="M108.666 99.0693C109.233 99.0033 109.795 99.232 110.166 99.68L113.682 103.919C117.719 104.95 120.058 108.093 121.352 112.016C122.685 116.058 123.015 121.19 123.015 126.453C123.015 127.437 122.243 128.234 121.292 128.234H105.226C104.311 128.234 103.556 127.495 103.506 126.551C103.461 125.708 103.648 124.246 104.22 122.753L104.23 122.726C102.607 123.626 100.807 123.41 99.4695 122.426C97.8447 121.231 96.9413 118.889 97.9735 116.578C98.7178 114.91 99.52 114.028 100.127 113.36C100.694 112.736 100.93 112.462 101.097 111.771C102.11 107.581 104.195 105.167 106.434 104.066C106.401 103.588 106.428 103.129 106.484 102.711C106.625 101.672 106.976 100.711 107.334 100.009C107.6 99.4872 108.099 99.1352 108.666 99.0693Z" fill="#F4F7FA"/>
<path fill-rule="evenodd" clip-rule="evenodd" d="M112.749 105.531L108.857 100.839C108.294 101.945 107.748 103.896 108.533 105.305C108.152 105.34 107.788 105.406 107.506 105.523C105.709 106.269 103.737 108.195 102.768 112.203C102.487 113.363 101.982 113.919 101.382 114.58C100.815 115.203 100.164 115.919 99.537 117.324C98.2447 120.219 101.732 123.113 104.275 120.484C105.705 119.006 106.955 118.396 108.004 117.884C109.514 117.146 110.609 116.612 111.228 113.984C111.522 115.21 111.404 118.102 108.58 119.867C105.755 121.632 105.166 125.35 105.225 126.453H121.291C121.291 115.981 119.95 106.933 112.749 105.531Z" fill="black"/>
<ellipse cx="107.938" cy="110.867" rx="1.2923" ry="1.33594" fill="#F4F7FA"/>
<rect width="41.3536" height="42.75" transform="translate(90.707 179)" fill="#F2F2F2"/>
<rect width="41.3536" height="42.75" transform="translate(90.707 264.5)" fill="#F2F2F2"/>
<path d="M105.83 288.158C105.624 288.448 105.379 288.75 105.093 289.061C104.084 290.158 102.846 291.06 102.047 291.532L101.913 291.612C101.376 291.929 101.045 292.519 101.045 293.158V297.453C101.045 298.437 101.816 299.234 102.768 299.234H119.568C120.52 299.234 121.291 298.437 121.291 297.453V293.158C121.291 292.519 120.96 291.929 120.423 291.612L120.288 291.532C119.49 291.06 118.252 290.158 117.243 289.061C116.957 288.75 116.712 288.448 116.506 288.158C117.262 287.97 117.824 287.266 117.824 286.426V283.527C117.824 282.948 117.552 282.405 117.095 282.072L116.363 281.538C116.785 280.689 117.024 279.727 117.024 278.708C117.024 275.288 114.343 272.516 111.035 272.516C107.727 272.516 105.045 275.288 105.045 278.708C105.045 279.784 105.311 280.797 105.779 281.679L105.241 282.072C104.784 282.405 104.512 282.948 104.512 283.527V286.426C104.512 287.266 105.073 287.97 105.83 288.158Z" fill="black"/>
<path d="M115.302 278.708C115.302 279.987 114.775 281.139 113.933 281.945L116.102 283.527V286.426H113.979C114.081 287.77 114.916 289.115 115.995 290.289C117.141 291.534 118.519 292.538 119.434 293.079L119.568 293.158V297.453H102.769V293.158L102.903 293.079C103.818 292.538 105.196 291.534 106.342 290.289C107.421 289.115 108.256 287.77 108.358 286.426H106.235V283.527L108.255 282.053C107.345 281.244 106.769 280.045 106.769 278.708C106.769 276.272 108.679 274.297 111.035 274.297C113.392 274.297 115.302 276.272 115.302 278.708Z" fill="#F4F7FA"/>
<rect width="41.3536" height="42.75" transform="translate(256.121 8)" fill="#F2F2F2"/>
<path d="M274.08 13.5693C274.647 13.5033 275.209 13.732 275.581 14.18L279.096 18.4187C283.133 19.45 285.472 22.5926 286.766 26.5157C288.099 30.5582 288.429 35.6902 288.429 40.9529C288.429 41.9366 287.657 42.7341 286.706 42.7341H270.64C269.726 42.7341 268.97 41.9952 268.92 41.051C268.875 40.2084 269.062 38.7463 269.634 37.253L269.644 37.2256C268.022 38.1261 266.221 37.9104 264.884 36.9264C263.259 35.7305 262.355 33.3895 263.388 31.0775C264.132 29.4104 264.934 28.5276 265.541 27.8599C266.108 27.2363 266.344 26.9619 266.511 26.2709C267.524 22.0809 269.609 19.6673 271.848 18.5657C271.815 18.0884 271.842 17.6285 271.898 17.211C272.039 16.1717 272.39 15.2113 272.748 14.5092C273.014 13.9872 273.513 13.6352 274.08 13.5693Z" fill="#F4F7FA"/>
<path fill-rule="evenodd" clip-rule="evenodd" d="M278.163 20.0314L274.272 15.3394C273.708 16.4449 273.162 18.3961 273.947 19.8046C273.566 19.8397 273.202 19.9063 272.92 20.0232C271.123 20.7688 269.151 22.6951 268.182 26.7029C267.901 27.8634 267.396 28.4191 266.796 29.0796C266.229 29.7027 265.578 30.419 264.951 31.824C263.659 34.7185 267.146 37.613 269.69 34.9841C271.119 33.506 272.369 32.8958 273.418 32.3836C274.929 31.6462 276.023 31.1117 276.642 28.4841C276.936 29.7098 276.818 32.6022 273.994 34.3672C271.169 36.1321 270.58 39.8498 270.639 40.9529H286.705C286.705 30.4806 285.364 21.4325 278.163 20.0314Z" fill="black"/>
<ellipse cx="273.352" cy="25.3672" rx="1.2923" ry="1.33594" fill="#F4F7FA"/>
<rect width="41.3536" height="42.75" transform="translate(256.121 93.5)" fill="#F2F2F2"/>
<rect opacity="0.5" x="265.121" y="102.5" width="24" height="24" rx="12" fill="#FFD335"/>
<g clip-path="url(#clip2_274_711)">
<rect width="41.3536" height="42.75" transform="translate(256.121 179)" fill="#F2F2F2"/>
<rect opacity="0.5" x="256.121" y="179" width="41.3536" height="42.75" fill="#FFD335"/>
<path d="M269.044 188.797C269.044 189.237 269.112 189.66 269.239 190.055L268.388 190.468C267.683 189.712 266.693 189.242 265.598 189.242C263.456 189.242 261.721 191.037 261.721 193.25C261.721 195.223 263.1 196.863 264.916 197.196L266.959 204.436C267.001 204.587 267.063 204.732 267.143 204.866L268.32 206.858L268.313 206.859C267.49 207.01 266.89 207.749 266.89 208.613V211.953C266.89 212.937 267.661 213.734 268.613 213.734L285.015 213.734C285.472 213.734 285.91 213.547 286.234 213.213C286.557 212.879 286.738 212.426 286.738 211.953V208.613C286.738 207.748 286.137 207.008 285.313 206.859L285.278 206.853L286.452 204.866C286.532 204.732 286.594 204.587 286.636 204.436L288.679 197.196C290.495 196.863 291.874 195.223 291.874 193.25C291.874 191.037 290.139 189.242 287.997 189.242C286.9 189.242 285.91 189.713 285.204 190.471L284.355 190.059C284.482 189.662 284.551 189.238 284.551 188.797C284.551 186.583 282.816 184.789 280.674 184.789C278.533 184.789 276.798 186.583 276.798 188.797C276.798 186.583 275.062 184.789 272.921 184.789C270.779 184.789 269.044 186.583 269.044 188.797Z" fill="black"/>
<path d="M273.694 190.876C274.502 190.555 275.075 189.745 275.075 188.797C275.075 187.567 274.111 186.57 272.921 186.57C271.732 186.57 270.767 187.567 270.767 188.797C270.767 189.933 271.591 190.871 272.655 191.007L271.694 199.039L267.064 194.882C267.487 194.475 267.752 193.895 267.752 193.25C267.752 192.02 266.788 191.023 265.598 191.023C264.409 191.023 263.444 192.02 263.444 193.25C263.444 194.48 264.409 195.477 265.598 195.477C265.808 195.477 266.01 195.446 266.201 195.388L268.614 203.938L271.108 208.157L268.614 208.613V211.953L285.016 211.953V208.613L282.489 208.155L284.983 203.938L287.395 195.388C287.586 195.446 287.789 195.477 287.998 195.477C289.188 195.477 290.152 194.48 290.152 193.25C290.152 192.02 289.188 191.023 287.998 191.023C286.808 191.023 285.844 192.02 285.844 193.25C285.844 193.895 286.109 194.475 286.532 194.882L281.902 199.039L280.942 191.007C282.005 190.871 282.829 189.933 282.829 188.797C282.829 187.567 281.865 186.57 280.675 186.57C279.485 186.57 278.521 187.567 278.521 188.797C278.521 189.745 279.094 190.555 279.902 190.876L276.798 198.148L273.694 190.876Z" fill="#F4F7FA"/>
</g>
<rect width="41.3536" height="42.75" transform="translate(256.121 264.5)" fill="#F2F2F2"/>
<path d="M271.244 288.158C271.038 288.448 270.793 288.75 270.507 289.061C269.498 290.158 268.26 291.06 267.462 291.532L267.327 291.612C266.79 291.929 266.459 292.519 266.459 293.158V297.453C266.459 298.437 267.23 299.234 268.182 299.234H284.982C285.934 299.234 286.705 298.437 286.705 297.453V293.158C286.705 292.519 286.374 291.929 285.837 291.612L285.702 291.532C284.904 291.06 283.666 290.158 282.657 289.061C282.371 288.75 282.126 288.448 281.92 288.158C282.676 287.97 283.238 287.266 283.238 286.426V283.527C283.238 282.948 282.966 282.405 282.509 282.072L281.777 281.538C282.199 280.689 282.438 279.727 282.438 278.708C282.438 275.288 279.757 272.516 276.449 272.516C273.141 272.516 270.459 275.288 270.459 278.708C270.459 279.784 270.725 280.797 271.193 281.679L270.655 282.072C270.198 282.405 269.926 282.948 269.926 283.527V286.426C269.926 287.266 270.487 287.97 271.244 288.158Z" fill="black"/>
<path d="M280.716 278.708C280.716 279.987 280.189 281.139 279.348 281.945L281.516 283.527V286.426H279.393C279.495 287.77 280.33 289.115 281.409 290.289C282.555 291.534 283.933 292.538 284.848 293.079L284.983 293.158V297.453H268.183V293.158L268.317 293.079C269.232 292.538 270.61 291.534 271.756 290.289C272.835 289.115 273.67 287.77 273.772 286.426H271.649V283.527L273.669 282.053C272.759 281.244 272.183 280.045 272.183 278.708C272.183 276.272 274.093 274.297 276.449 274.297C278.806 274.297 280.716 276.272 280.716 278.708Z" fill="#F4F7FA"/>
<rect width="41.3536" height="42.75" transform="translate(49.3535 8)" fill="#5E5E5E"/>
<rect width="41.3536" height="42.75" transform="translate(49.3535 93.5)" fill="#5E5E5E"/>
<rect width="41.3536" height="42.75" transform="translate(49.3535 179)" fill="#5E5E5E"/>
<rect width="41.3536" height="42.75" transform="translate(49.3535 264.5)" fill="#5E5E5E"/>
<path d="M64.4761 288.158C64.2706 288.448 64.0253 288.75 63.7393 289.061C62.7303 290.158 61.4927 291.06 60.694 291.532L60.5596 291.612C60.0227 291.929 59.6914 292.519 59.6914 293.158V297.453C59.6914 298.437 60.4628 299.234 61.4145 299.234H78.2144C79.166 299.234 79.9374 298.437 79.9374 297.453V293.158C79.9374 292.519 79.6061 291.929 79.0692 291.612L78.9349 291.532C78.1362 291.06 76.8986 290.158 75.8895 289.061C75.6036 288.75 75.3583 288.448 75.1527 288.158C75.9089 287.97 76.4708 287.266 76.4708 286.426V283.527C76.4708 282.948 76.1988 282.405 75.7414 282.072L75.0096 281.538C75.4318 280.689 75.6708 279.727 75.6708 278.708C75.6708 275.288 72.9891 272.516 69.6811 272.516C66.3731 272.516 63.6914 275.288 63.6914 278.708C63.6914 279.784 63.9579 280.797 64.4253 281.679L63.8875 282.072C63.4301 282.405 63.1581 282.948 63.1581 283.527V286.426C63.1581 287.266 63.7199 287.97 64.4761 288.158Z" fill="black"/>
<path d="M73.9483 278.708C73.9483 279.987 73.4215 281.139 72.5799 281.945L74.7483 283.527V286.426H72.6255C72.7279 287.77 73.5621 289.115 74.6415 290.289C75.7871 291.534 77.1653 292.538 78.0806 293.079L78.2149 293.158V297.453H61.415V293.158L61.5494 293.079C62.4647 292.538 63.8429 291.534 64.9885 290.289C66.0679 289.115 66.9021 287.77 67.0044 286.426H64.8817V283.527L66.9011 282.053C65.9912 281.244 65.415 280.045 65.415 278.708C65.415 276.272 67.3253 274.297 69.6817 274.297C72.0381 274.297 73.9483 276.272 73.9483 278.708Z" fill="#F4F7FA"/>
<rect width="41.3536" height="42.75" transform="translate(49.3535 50.75)" fill="#F2F2F2"/>
<path d="M64.4761 74.4081C64.2706 74.6982 64.0253 75.0003 63.7393 75.3111C62.7303 76.4079 61.4927 77.3103 60.694 77.7822L60.5596 77.8615C60.0227 78.1787 59.6914 78.7689 59.6914 79.4081V83.7031C59.6914 84.6869 60.4628 85.4844 61.4145 85.4844H78.2144C79.166 85.4844 79.9374 84.6869 79.9374 83.7031V79.4081C79.9374 78.7689 79.6061 78.1787 79.0692 77.8616L78.9349 77.7822C78.1362 77.3104 76.8986 76.4079 75.8895 75.3111C75.6036 75.0003 75.3583 74.6982 75.1527 74.4081C75.9089 74.2198 76.4708 73.5159 76.4708 72.6763V69.7768C76.4708 69.198 76.1988 68.6553 75.7414 68.3216L75.0096 67.7876C75.4318 66.9394 75.6708 65.9769 75.6708 64.9576C75.6708 61.5379 72.9891 58.7656 69.6811 58.7656C66.3731 58.7656 63.6914 61.5379 63.6914 64.9576C63.6914 66.0343 63.9579 67.0472 64.4253 67.9291L63.8875 68.3216C63.4301 68.6553 63.1581 69.198 63.1581 69.7768V72.6763C63.1581 73.5159 63.7199 74.2198 64.4761 74.4081Z" fill="#F4F7FA"/>
<path d="M73.9483 64.9576C73.9483 66.2368 73.4215 67.3889 72.5799 68.1945L74.7483 69.7768V72.6763H72.6255C72.7279 74.0204 73.5621 75.3654 74.6415 76.5387C75.7871 77.7838 77.1653 78.788 78.0806 79.3287L78.2149 79.4081V83.7031H61.415V79.4081L61.5494 79.3287C62.4647 78.788 63.8429 77.7838 64.9885 76.5387C66.0679 75.3654 66.9021 74.0204 67.0044 72.6763H64.8817V69.7768L66.9011 68.3032C65.9912 67.4943 65.415 66.2955 65.415 64.9576C65.415 62.5216 67.3253 60.5469 69.6817 60.5469C72.0381 60.5469 73.9483 62.5216 73.9483 64.9576Z" fill="black"/>
<rect width="41.3536" height="42.75" transform="translate(49.3535 136.25)" fill="#F2F2F2"/>
<rect width="41.3536" height="42.75" transform="translate(49.3535 221.75)" fill="#F2F2F2"/>
<rect width="41.3536" height="42.75" transform="translate(49.3535 307.25)" fill="#F2F2F2"/>
<path d="M80.6748 339.752H78.1387L78.125 338.501H80.3398C80.7135 338.501 81.0303 338.446 81.29 338.337C81.5544 338.223 81.7549 338.061 81.8916 337.852C82.0283 337.637 82.0967 337.38 82.0967 337.079C82.0967 336.746 82.0329 336.475 81.9053 336.266C81.7777 336.056 81.5817 335.903 81.3174 335.808C81.0576 335.712 80.7249 335.664 80.3193 335.664H78.6582V344.25H76.9424V334.297H80.3193C80.8662 334.297 81.3538 334.349 81.7822 334.454C82.2152 334.559 82.582 334.723 82.8828 334.946C83.1882 335.165 83.4183 335.443 83.5732 335.78C83.7327 336.118 83.8125 336.519 83.8125 336.983C83.8125 337.394 83.7145 337.77 83.5186 338.111C83.3226 338.449 83.0332 338.724 82.6504 338.938C82.2676 339.153 81.7913 339.28 81.2217 339.321L80.6748 339.752ZM80.5996 344.25H77.5986L78.3711 342.89H80.5996C80.987 342.89 81.3105 342.826 81.5703 342.698C81.8301 342.566 82.0238 342.386 82.1514 342.158C82.2835 341.926 82.3496 341.655 82.3496 341.345C82.3496 341.021 82.2926 340.741 82.1787 340.504C82.0648 340.262 81.8848 340.078 81.6387 339.95C81.3926 339.818 81.0713 339.752 80.6748 339.752H78.7471L78.7607 338.501H81.2695L81.6592 338.973C82.2061 338.991 82.6549 339.112 83.0059 339.335C83.3613 339.558 83.6257 339.848 83.7988 340.203C83.972 340.559 84.0586 340.941 84.0586 341.352C84.0586 341.985 83.9196 342.516 83.6416 342.944C83.3682 343.373 82.974 343.699 82.459 343.922C81.944 344.141 81.3242 344.25 80.5996 344.25Z" fill="#5E5E5E"/>
<path d="M67.3123 312.819C67.8795 312.753 68.4415 312.982 68.813 313.43L72.3284 317.669C76.3655 318.7 78.7047 321.843 79.9984 325.766C81.3315 329.808 81.6612 334.94 81.6612 340.203C81.6612 341.187 80.8898 341.984 79.9382 341.984H63.8727C62.9579 341.984 62.2026 341.245 62.1522 340.301C62.1073 339.458 62.2948 337.996 62.8663 336.503L62.8768 336.476C61.254 337.376 59.453 337.16 58.116 336.176C56.4912 334.981 55.5878 332.639 56.62 330.328C57.3643 328.66 58.1665 327.778 58.7734 327.11C59.3402 326.486 59.5765 326.212 59.7436 325.521C60.7569 321.331 62.8414 318.917 65.0801 317.816C65.0477 317.338 65.0741 316.879 65.1307 316.461C65.2717 315.422 65.6226 314.461 65.9804 313.759C66.2464 313.237 66.7452 312.885 67.3123 312.819Z" fill="black"/>
<path fill-rule="evenodd" clip-rule="evenodd" d="M71.3954 319.281L67.5039 314.589C66.9406 315.695 66.3945 317.646 67.1797 319.055C66.7986 319.09 66.4344 319.156 66.1527 319.273C64.3555 320.019 62.3835 321.945 61.4143 325.953C61.1336 327.113 60.6285 327.669 60.0281 328.33C59.4618 328.953 58.8108 329.669 58.1835 331.074C56.8912 333.969 60.3788 336.863 62.9219 334.234C64.3517 332.756 65.6015 332.146 66.6507 331.634C68.1609 330.896 69.2558 330.362 69.8742 327.734C70.1685 328.96 70.0508 331.852 67.2261 333.617C64.4014 335.382 63.8129 339.1 63.8718 340.203H79.9372C79.9372 329.731 78.596 320.683 71.3954 319.281Z" fill="#F4F7FA"/>
<ellipse cx="66.5843" cy="324.617" rx="1.2923" ry="1.33594" fill="black"/>
<rect width="41.3536" height="42.75" transform="translate(132.061 50.75)" fill="#F2F2F2"/>
<path d="M147.183 74.4081C146.978 74.6982 146.732 75.0003 146.446 75.3111C145.437 76.4079 144.2 77.3103 143.401 77.7822L143.267 77.8615C142.73 78.1787 142.398 78.7689 142.398 79.4081V83.7031C142.398 84.6869 143.17 85.4844 144.122 85.4844H160.921C161.873 85.4844 162.644 84.6869 162.644 83.7031V79.4081C162.644 78.7689 162.313 78.1787 161.776 77.8616L161.642 77.7822C160.843 77.3104 159.606 76.4079 158.597 75.3111C158.311 75.0003 158.065 74.6982 157.86 74.4081C158.616 74.2198 159.178 73.5159 159.178 72.6763V69.7768C159.178 69.198 158.906 68.6553 158.448 68.3216L157.717 67.7876C158.139 66.9394 158.378 65.9769 158.378 64.9576C158.378 61.5379 155.696 58.7656 152.388 58.7656C149.08 58.7656 146.398 61.5379 146.398 64.9576C146.398 66.0343 146.665 67.0472 147.132 67.9291L146.594 68.3216C146.137 68.6553 145.865 69.198 145.865 69.7768V72.6763C145.865 73.5159 146.427 74.2198 147.183 74.4081Z" fill="#F4F7FA"/>
<path d="M156.655 64.9576C156.655 66.2368 156.129 67.3889 155.287 68.1945L157.455 69.7768V72.6763H155.333C155.435 74.0204 156.269 75.3654 157.349 76.5387C158.494 77.7838 159.872 78.788 160.788 79.3287L160.922 79.4081V83.7031H144.122V79.4081L144.256 79.3287C145.172 78.788 146.55 77.7838 147.695 76.5387C148.775 75.3654 149.609 74.0204 149.711 72.6763H147.589V69.7768L149.608 68.3032C148.698 67.4943 148.122 66.2955 148.122 64.9576C148.122 62.5216 150.032 60.5469 152.389 60.5469C154.745 60.5469 156.655 62.5216 156.655 64.9576Z" fill="black"/>
<rect width="41.3536" height="42.75" transform="translate(132.061 136.25)" fill="#F2F2F2"/>
<rect width="41.3536" height="42.75" transform="translate(132.061 221.75)" fill="#F2F2F2"/>
<rect width="41.3536" height="42.75" transform="translate(132.061 307.25)" fill="#F2F2F2"/>
<rect opacity="0.5" x="141.061" y="316.25" width="24" height="24" rx="12" fill="#FFD335"/>
<path d="M162.391 344.25H160.265L160.278 342.89H162.391C163.006 342.89 163.521 342.755 163.936 342.486C164.355 342.217 164.669 341.832 164.879 341.331C165.093 340.83 165.2 340.233 165.2 339.54V339C165.2 338.462 165.139 337.986 165.016 337.571C164.897 337.157 164.719 336.808 164.482 336.525C164.25 336.243 163.963 336.029 163.621 335.883C163.284 335.737 162.894 335.664 162.452 335.664H160.224V334.297H162.452C163.113 334.297 163.717 334.409 164.264 334.632C164.811 334.851 165.282 335.167 165.679 335.582C166.08 335.997 166.387 336.493 166.602 337.072C166.816 337.651 166.923 338.298 166.923 339.014V339.54C166.923 340.256 166.816 340.903 166.602 341.481C166.387 342.06 166.08 342.557 165.679 342.972C165.278 343.382 164.799 343.699 164.243 343.922C163.692 344.141 163.074 344.25 162.391 344.25ZM161.215 334.297V344.25H159.499V334.297H161.215Z" fill="#5E5E5E"/>
<rect width="41.3536" height="42.75" transform="translate(214.768 50.75)" fill="#F2F2F2"/>
<path d="M229.89 74.4081C229.685 74.6982 229.439 75.0003 229.153 75.3111C228.144 76.4079 226.907 77.3103 226.108 77.7822L225.974 77.8615C225.437 78.1787 225.105 78.7689 225.105 79.4081V83.7031C225.105 84.6869 225.877 85.4844 226.829 85.4844H243.628C244.58 85.4844 245.351 84.6869 245.351 83.7031V79.4081C245.351 78.7689 245.02 78.1787 244.483 77.8616L244.349 77.7822C243.55 77.3104 242.313 76.4079 241.304 75.3111C241.018 75.0003 240.772 74.6982 240.567 74.4081C241.323 74.2198 241.885 73.5159 241.885 72.6763V69.7768C241.885 69.198 241.613 68.6553 241.155 68.3216L240.424 67.7876C240.846 66.9394 241.085 65.9769 241.085 64.9576C241.085 61.5379 238.403 58.7656 235.095 58.7656C231.787 58.7656 229.105 61.5379 229.105 64.9576C229.105 66.0343 229.372 67.0472 229.839 67.9291L229.302 68.3216C228.844 68.6553 228.572 69.198 228.572 69.7768V72.6763C228.572 73.5159 229.134 74.2198 229.89 74.4081Z" fill="#F4F7FA"/>
<path d="M239.362 64.9576C239.362 66.2368 238.836 67.3889 237.994 68.1945L240.162 69.7768V72.6763H238.04C238.142 74.0204 238.976 75.3654 240.056 76.5387C241.201 77.7838 242.579 78.788 243.495 79.3287L243.629 79.4081V83.7031H226.829V79.4081L226.963 79.3287C227.879 78.788 229.257 77.7838 230.403 76.5387C231.482 75.3654 232.316 74.0204 232.418 72.6763H230.296V69.7768L232.315 68.3032C231.405 67.4943 230.829 66.2955 230.829 64.9576C230.829 62.5216 232.739 60.5469 235.096 60.5469C237.452 60.5469 239.362 62.5216 239.362 64.9576Z" fill="black"/>
<rect width="41.3536" height="42.75" transform="translate(214.768 136.25)" fill="#F2F2F2"/>
<rect opacity="0.5" x="223.768" y="145.25" width="24" height="24" rx="12" fill="#FFD335"/>
<rect width="41.3536" height="42.75" transform="translate(214.768 221.75)" fill="#F2F2F2"/>
<rect opacity="0.5" x="223.768" y="230.75" width="24" height="24" rx="12" fill="#FFD335"/>
<rect width="41.3536" height="42.75" transform="translate(214.768 307.25)" fill="#F2F2F2"/>
<path d="M244.64 334.297V344.25H242.924V334.297H244.64ZM248.7 338.651V340.012H244.202V338.651H248.7ZM249.268 334.297V335.664H244.202V334.297H249.268Z" fill="#5E5E5E"/>
<path d="M231.271 320.112C231.098 319.621 231.004 319.09 231.004 318.537C231.004 315.992 232.999 313.93 235.46 313.93C237.922 313.93 239.917 315.992 239.917 318.537C239.917 319.282 239.745 319.989 239.439 320.614C239.879 320.645 240.306 320.85 240.617 321.218C242.309 323.217 243.79 326.067 243.79 329.37C243.79 331.732 243.003 333.482 241.941 334.743L243.959 335.109C244.783 335.258 245.385 335.998 245.385 336.863V340.203C245.385 340.676 245.203 341.129 244.88 341.463C244.557 341.797 244.118 341.984 243.661 341.984L227.259 341.984C226.308 341.984 225.536 341.187 225.536 340.203V336.863C225.536 335.999 226.136 335.26 226.959 335.109L228.78 334.776C227.703 333.513 226.903 331.753 226.903 329.37C226.903 326.793 227.869 324.548 229.002 322.828C229.715 321.747 230.521 320.829 231.271 320.112Z" fill="black"/>
<path d="M236.306 329.135H234.583C234.583 325.864 235.542 322.599 237.665 320.208C237.998 319.74 238.195 319.162 238.195 318.537C238.195 316.976 236.971 315.711 235.461 315.711C233.951 315.711 232.727 316.976 232.727 318.537C232.727 319.307 233.025 320.005 233.508 320.515C231.801 321.773 228.627 325.147 228.627 329.37C228.627 333.632 231.859 335.358 233.555 335.712L227.26 336.863V340.203L243.662 340.203V336.863L237.218 335.695C238.933 335.305 242.067 333.567 242.067 329.37C242.067 326.622 240.829 324.172 239.321 322.391C237.665 323.727 236.306 326.844 236.306 329.135Z" fill="#F4F7FA"/>
<rect width="41.3536" height="42.75" transform="translate(297.475 50.75)" fill="#F2F2F2"/>
<path d="M312.597 74.4081C312.392 74.6982 312.146 75.0003 311.86 75.3111C310.851 76.4079 309.614 77.3103 308.815 77.7822L308.681 77.8615C308.144 78.1787 307.812 78.7689 307.812 79.4081V83.7031C307.812 84.6869 308.584 85.4844 309.536 85.4844H326.335C327.287 85.4844 328.059 84.6869 328.059 83.7031V79.4081C328.059 78.7689 327.727 78.1787 327.19 77.8616L327.056 77.7822C326.257 77.3104 325.02 76.4079 324.011 75.3111C323.725 75.0003 323.479 74.6982 323.274 74.4081C324.03 74.2198 324.592 73.5159 324.592 72.6763V69.7768C324.592 69.198 324.32 68.6553 323.862 68.3216L323.131 67.7876C323.553 66.9394 323.792 65.9769 323.792 64.9576C323.792 61.5379 321.11 58.7656 317.802 58.7656C314.494 58.7656 311.812 61.5379 311.812 64.9576C311.812 66.0343 312.079 67.0472 312.546 67.9291L312.009 68.3216C311.551 68.6553 311.279 69.198 311.279 69.7768V72.6763C311.279 73.5159 311.841 74.2198 312.597 74.4081Z" fill="#F4F7FA"/>
<path d="M322.069 64.9576C322.069 66.2368 321.543 67.3889 320.701 68.1945L322.869 69.7768V72.6763H320.747C320.849 74.0204 321.683 75.3654 322.763 76.5387C323.908 77.7838 325.286 78.788 326.202 79.3287L326.336 79.4081V83.7031H309.536V79.4081L309.67 79.3287C310.586 78.788 311.964 77.7838 313.11 76.5387C314.189 75.3654 315.023 74.0204 315.126 72.6763H313.003V69.7768L315.022 68.3032C314.112 67.4943 313.536 66.2955 313.536 64.9576C313.536 62.5216 315.446 60.5469 317.803 60.5469C320.159 60.5469 322.069 62.5216 322.069 64.9576Z" fill="black"/>
<rect width="41.3536" height="42.75" transform="translate(297.475 136.25)" fill="#F2F2F2"/>
<rect opacity="0.5" x="306.475" y="145.25" width="24" height="24" rx="12" fill="#FFD335"/>
<rect width="41.3536" height="42.75" transform="translate(297.475 221.75)" fill="#F2F2F2"/>
<rect opacity="0.5" x="306.475" y="230.75" width="24" height="24" rx="12" fill="#FFD335"/>
<rect width="41.3536" height="42.75" transform="translate(297.475 307.25)" fill="#F2F2F2"/>
<path d="M331.093 338.453V339.813H325.809V338.453H331.093ZM326.232 334.297V344.25H324.517V334.297H326.232ZM332.412 334.297V344.25H330.703V334.297H332.412Z" fill="#5E5E5E"/>
<path d="M313.843 314.82C314.157 314.82 314.451 314.907 314.705 315.059C314.958 314.907 315.252 314.82 315.566 314.82H320.305C320.619 314.82 320.913 314.907 321.166 315.059C321.42 314.907 321.714 314.82 322.028 314.82H326.335C327.287 314.82 328.059 315.618 328.059 316.602V320.609C328.059 321.17 327.803 321.698 327.369 322.034L324.711 324.096L325.463 331.1C325.663 332.955 326.498 333.895 327.714 335.572C327.938 335.88 328.059 336.255 328.059 336.641V340.203C328.059 341.187 327.287 341.984 326.335 341.984H309.536C308.584 341.984 307.812 341.187 307.812 340.203V336.641C307.812 336.255 307.933 335.88 308.157 335.572C309.373 333.895 310.208 332.955 310.408 331.1L311.16 324.096L308.502 322.034C308.068 321.698 307.812 321.17 307.812 320.609V316.602C307.812 315.618 308.584 314.82 309.536 314.82H313.843Z" fill="black"/>
<path d="M309.536 316.602H313.844V319.273H315.567V316.602H320.305V319.273H322.028V316.602H326.336V320.609L322.89 323.281L323.751 331.297H312.121L312.982 323.281L309.536 320.609V316.602Z" fill="#F4F7FA"/>
<path d="M312.121 333.078H323.751L326.336 336.641V340.203H309.536V336.641L312.121 333.078Z" fill="#F4F7FA"/>
<rect width="41.3536" height="42.75" transform="translate(214.768 8)" fill="#5E5E5E"/>
<path d="M231.271 20.8623C231.098 20.3706 231.004 19.8399 231.004 19.287C231.004 16.7424 232.999 14.6797 235.46 14.6797C237.922 14.6797 239.917 16.7424 239.917 19.287C239.917 20.0323 239.745 20.7389 239.439 21.3636C239.879 21.395 240.306 21.5998 240.617 21.9677C242.309 23.9665 243.79 26.8166 243.79 30.12C243.79 32.4818 243.003 34.2318 241.941 35.4928L243.959 35.8588C244.783 36.0082 245.385 36.7482 245.385 37.6133V40.9531C245.385 41.4255 245.203 41.8786 244.88 42.2127C244.557 42.5467 244.118 42.7344 243.661 42.7344L227.259 42.7344C226.308 42.7344 225.536 41.9369 225.536 40.9531V37.6133C225.536 36.7492 226.136 36.0098 226.959 35.8593L228.78 35.5263C227.703 34.2629 226.903 32.503 226.903 30.12C226.903 27.5427 227.869 25.2981 229.002 23.5779C229.715 22.4967 230.521 21.5788 231.271 20.8623Z" fill="#F4F7FA"/>
<path d="M236.306 29.8845H234.583C234.583 26.6138 235.542 23.3485 237.665 20.9584C237.998 20.4903 238.195 19.9124 238.195 19.287C238.195 17.7262 236.971 16.4609 235.461 16.4609C233.951 16.4609 232.727 17.7262 232.727 19.287C232.727 20.057 233.025 20.7551 233.508 21.2648C231.801 22.5233 228.627 25.8966 228.627 30.12C228.627 34.3822 231.859 36.1078 233.555 36.462L227.26 37.6133V40.9531L243.662 40.9531V37.6133L237.218 36.4449C238.933 36.0546 242.067 34.3173 242.067 30.12C242.067 27.3718 240.829 24.9219 239.321 23.1406C237.665 24.4766 236.306 27.5937 236.306 29.8845Z" fill="black"/>
<rect width="41.3536" height="42.75" transform="translate(214.768 93.5)" fill="#5E5E5E"/>
<rect width="41.3536" height="42.75" transform="translate(214.768 179)" fill="#5E5E5E"/>
<rect opacity="0.5" x="223.768" y="188" width="24" height="24" rx="12" fill="#FFD335"/>
<rect width="41.3536" height="42.75" transform="translate(214.768 264.5)" fill="#5E5E5E"/>
<path d="M229.89 288.158C229.685 288.448 229.439 288.75 229.153 289.061C228.144 290.158 226.907 291.06 226.108 291.532L225.974 291.612C225.437 291.929 225.105 292.519 225.105 293.158V297.453C225.105 298.437 225.877 299.234 226.829 299.234H243.628C244.58 299.234 245.351 298.437 245.351 297.453V293.158C245.351 292.519 245.02 291.929 244.483 291.612L244.349 291.532C243.55 291.06 242.313 290.158 241.304 289.061C241.018 288.75 240.772 288.448 240.567 288.158C241.323 287.97 241.885 287.266 241.885 286.426V283.527C241.885 282.948 241.613 282.405 241.155 282.072L240.424 281.538C240.846 280.689 241.085 279.727 241.085 278.708C241.085 275.288 238.403 272.516 235.095 272.516C231.787 272.516 229.105 275.288 229.105 278.708C229.105 279.784 229.372 280.797 229.839 281.679L229.302 282.072C228.844 282.405 228.572 282.948 228.572 283.527V286.426C228.572 287.266 229.134 287.97 229.89 288.158Z" fill="black"/>
<path d="M239.362 278.708C239.362 279.987 238.836 281.139 237.994 281.945L240.162 283.527V286.426H238.04C238.142 287.77 238.976 289.115 240.056 290.289C241.201 291.534 242.579 292.538 243.495 293.079L243.629 293.158V297.453H226.829V293.158L226.963 293.079C227.879 292.538 229.257 291.534 230.403 290.289C231.482 289.115 232.316 287.77 232.418 286.426H230.296V283.527L232.315 282.053C231.405 281.244 230.829 280.045 230.829 278.708C230.829 276.272 232.739 274.297 235.096 274.297C237.452 274.297 239.362 276.272 239.362 278.708Z" fill="#F4F7FA"/>
<rect width="41.3536" height="42.75" transform="translate(132.061 8)" fill="#5E5E5E"/>
<path d="M144.983 17.7969C144.983 18.2366 145.052 18.6596 145.178 19.0553L144.328 19.4677C143.622 18.7121 142.633 18.2422 141.537 18.2422C139.396 18.2422 137.66 20.0366 137.66 22.25C137.66 24.2231 139.039 25.8632 140.856 26.1961L142.898 33.4363C142.941 33.5874 143.003 33.732 143.082 33.8663L144.259 35.8579L144.252 35.8593C143.429 36.0098 142.829 36.7492 142.829 37.6133V40.9531C142.829 41.9369 143.601 42.7344 144.552 42.7344L160.955 42.7344C161.412 42.7344 161.85 42.5467 162.173 42.2127C162.496 41.8786 162.678 41.4255 162.678 40.9531V37.6133C162.678 36.7482 162.077 36.0082 161.252 35.8588L161.218 35.8525L162.392 33.8663C162.471 33.732 162.533 33.5874 162.576 33.4363L164.618 26.1961C166.435 25.8632 167.814 24.2231 167.814 22.25C167.814 20.0366 166.078 18.2422 163.937 18.2422C162.84 18.2422 161.849 18.7133 161.144 19.4706L160.295 19.0588C160.422 18.6621 160.491 18.2379 160.491 17.7969C160.491 15.5834 158.755 13.7891 156.614 13.7891C154.473 13.7891 152.737 15.5834 152.737 17.7969C152.737 15.5834 151.001 13.7891 148.86 13.7891C146.719 13.7891 144.983 15.5834 144.983 17.7969Z" fill="#F4F7FA"/>
<path d="M149.634 19.8757C150.441 19.5545 151.014 18.7449 151.014 17.7969C151.014 16.5672 150.05 15.5703 148.861 15.5703C147.671 15.5703 146.707 16.5672 146.707 17.7969C146.707 18.9332 147.53 19.8708 148.594 20.0065L147.634 28.0391L143.003 23.8817C143.427 23.4751 143.691 22.8945 143.691 22.25C143.691 21.0203 142.727 20.0234 141.538 20.0234C140.348 20.0234 139.384 21.0203 139.384 22.25C139.384 23.4797 140.348 24.4766 141.538 24.4766C141.747 24.4766 141.949 24.4457 142.141 24.3881L144.553 32.9375L147.047 37.1571L144.553 37.6133V40.9531L160.955 40.9531V37.6133L158.429 37.1552L160.922 32.9375L163.334 24.3881C163.526 24.4457 163.728 24.4766 163.937 24.4766C165.127 24.4766 166.091 23.4797 166.091 22.25C166.091 21.0203 165.127 20.0234 163.937 20.0234C162.748 20.0234 161.784 21.0203 161.784 22.25C161.784 22.8945 162.049 23.4751 162.472 23.8817L157.842 28.0391L156.881 20.0065C157.945 19.8708 158.768 18.9332 158.768 17.7969C158.768 16.5672 157.804 15.5703 156.614 15.5703C155.425 15.5703 154.461 16.5672 154.461 17.7969C154.461 18.7449 155.034 19.5545 155.841 19.8757L152.738 27.1484L149.634 19.8757Z" fill="black"/>
<rect width="41.3536" height="42.75" transform="translate(132.061 93.5)" fill="#5E5E5E"/>
<rect width="41.3536" height="42.75" transform="translate(132.061 179)" fill="#5E5E5E"/>
<rect width="41.3536" height="42.75" transform="translate(132.061 264.5)" fill="#5E5E5E"/>
<path d="M147.183 288.158C146.978 288.448 146.732 288.75 146.446 289.061C145.437 290.158 144.2 291.06 143.401 291.532L143.267 291.612C142.73 291.929 142.398 292.519 142.398 293.158V297.453C142.398 298.437 143.17 299.234 144.122 299.234H160.921C161.873 299.234 162.644 298.437 162.644 297.453V293.158C162.644 292.519 162.313 291.929 161.776 291.612L161.642 291.532C160.843 291.06 159.606 290.158 158.597 289.061C158.311 288.75 158.065 288.448 157.86 288.158C158.616 287.97 159.178 287.266 159.178 286.426V283.527C159.178 282.948 158.906 282.405 158.448 282.072L157.717 281.538C158.139 280.689 158.378 279.727 158.378 278.708C158.378 275.288 155.696 272.516 152.388 272.516C149.08 272.516 146.398 275.288 146.398 278.708C146.398 279.784 146.665 280.797 147.132 281.679L146.594 282.072C146.137 282.405 145.865 282.948 145.865 283.527V286.426C145.865 287.266 146.427 287.97 147.183 288.158Z" fill="black"/>
<path d="M156.655 278.708C156.655 279.987 156.129 281.139 155.287 281.945L157.455 283.527V286.426H155.333C155.435 287.77 156.269 289.115 157.349 290.289C158.494 291.534 159.872 292.538 160.788 293.079L160.922 293.158V297.453H144.122V293.158L144.256 293.079C145.172 292.538 146.55 291.534 147.695 290.289C148.775 289.115 149.609 287.77 149.711 286.426H147.589V283.527L149.608 282.053C148.698 281.244 148.122 280.045 148.122 278.708C148.122 276.272 150.032 274.297 152.389 274.297C154.745 274.297 156.655 276.272 156.655 278.708Z" fill="#F4F7FA"/>
<rect width="41.3536" height="42.75" transform="translate(297.475 8)" fill="#5E5E5E"/>
<path d="M313.843 15.5703C314.157 15.5703 314.451 15.6571 314.705 15.8086C314.958 15.6571 315.252 15.5703 315.566 15.5703H320.305C320.619 15.5703 320.913 15.6571 321.166 15.8086C321.42 15.6571 321.714 15.5703 322.028 15.5703H326.335C327.287 15.5703 328.059 16.3678 328.059 17.3516V21.3594C328.059 21.92 327.803 22.448 327.369 22.7844L324.711 24.8458L325.463 31.8502C325.663 33.7046 326.498 34.6454 327.714 36.3219C327.938 36.6302 328.059 37.0052 328.059 37.3906V40.9531C328.059 41.9369 327.287 42.7344 326.335 42.7344H309.536C308.584 42.7344 307.812 41.9369 307.812 40.9531V37.3906C307.812 37.0052 307.933 36.6302 308.157 36.3219C309.373 34.6454 310.208 33.7046 310.408 31.8502L311.16 24.8458L308.502 22.7844C308.068 22.448 307.812 21.92 307.812 21.3594V17.3516C307.812 16.3678 308.584 15.5703 309.536 15.5703H313.843Z" fill="#F4F7FA"/>
<path d="M309.536 17.3516H313.844V20.0234H315.567V17.3516H320.305V20.0234H322.028V17.3516H326.336V21.3594L322.89 24.0312L323.751 32.0469H312.121L312.982 24.0312L309.536 21.3594V17.3516Z" fill="black"/>
<path d="M312.121 33.8281H323.751L326.336 37.3906V40.9531H309.536V37.3906L312.121 33.8281Z" fill="black"/>
<rect width="41.3536" height="42.75" transform="translate(297.475 93.5)" fill="#5E5E5E"/>
<rect width="41.3536" height="42.75" transform="translate(297.475 179)" fill="#5E5E5E"/>
<rect opacity="0.5" x="306.475" y="188" width="24" height="24" rx="12" fill="#FFD335"/>
<rect width="41.3536" height="42.75" transform="translate(297.475 264.5)" fill="#5E5E5E"/>
<path d="M312.597 288.158C312.392 288.448 312.146 288.75 311.86 289.061C310.851 290.158 309.614 291.06 308.815 291.532L308.681 291.612C308.144 291.929 307.812 292.519 307.812 293.158V297.453C307.812 298.437 308.584 299.234 309.536 299.234H326.335C327.287 299.234 328.059 298.437 328.059 297.453V293.158C328.059 292.519 327.727 291.929 327.19 291.612L327.056 291.532C326.257 291.06 325.02 290.158 324.011 289.061C323.725 288.75 323.479 288.448 323.274 288.158C324.03 287.97 324.592 287.266 324.592 286.426V283.527C324.592 282.948 324.32 282.405 323.862 282.072L323.131 281.538C323.553 280.689 323.792 279.727 323.792 278.708C323.792 275.288 321.11 272.516 317.802 272.516C314.494 272.516 311.812 275.288 311.812 278.708C311.812 279.784 312.079 280.797 312.546 281.679L312.009 282.072C311.551 282.405 311.279 282.948 311.279 283.527V286.426C311.279 287.266 311.841 287.97 312.597 288.158Z" fill="black"/>
<path d="M322.069 278.708C322.069 279.987 321.543 281.139 320.701 281.945L322.869 283.527V286.426H320.747C320.849 287.77 321.683 289.115 322.763 290.289C323.908 291.534 325.286 292.538 326.202 293.079L326.336 293.158V297.453H309.536V293.158L309.67 293.079C310.586 292.538 311.964 291.534 313.11 290.289C314.189 289.115 315.023 287.77 315.126 286.426H313.003V283.527L315.022 282.053C314.112 281.244 313.536 280.045 313.536 278.708C313.536 276.272 315.446 274.297 317.803 274.297C320.159 274.297 322.069 276.272 322.069 278.708Z" fill="#F4F7FA"/>
<defs>
<clipPath id="clip0_274_711">
<rect width="31.0152" height="32.0625" fill="white" transform="translate(178.583 312.594)"/>
</clipPath>
<clipPath id="clip1_274_711">
<rect width="31.0152" height="32.0625" fill="white" transform="translate(178.583 13.3438)"/>
</clipPath>
<clipPath id="clip2_274_711">
<rect width="41.3536" height="42.75" fill="white" transform="translate(256.121 179)"/>
</clipPath>
</defs>
</svg>
