<svg width="66" height="192" viewBox="0 0 66 192" fill="none" xmlns="http://www.w3.org/2000/svg">
<rect width="63.9601" height="12.61" transform="matrix(1 -5.03305e-09 0.00708456 0.999975 1.66748 178.648)" fill="white"/>
<path d="M28.4672 0.221435L34.5011 0.221435L35.7697 179.278L10.427 179.278C10.427 179.278 8.26192 176.419 7.97768 174.235C7.68469 171.983 7.41847 169.502 7.92806 167.299C9.20414 161.784 10.3652 159.294 13.2698 154.69C16.8497 149.015 23.3016 135.96 26.3123 121.905C29.0356 109.19 29.0925 88.489 29.0925 88.489L26.0755 88.489L26.0532 85.3366L15.1697 82.1842L25.9951 77.1403L25.8656 58.8563L16.0727 39.3114L25.6556 29.2236L31.0862 29.2236L30.9879 15.353L26.7642 15.353L26.782 17.8749L22.5582 17.8749L22.4823 7.15674L26.7061 7.15674L26.7329 10.9396L30.9567 10.9396L30.912 4.63481L28.4984 4.63481L28.4672 0.221435Z" fill="white"/>
<path d="M40.2267 0.221436L34.1927 0.221436L35.4613 179.278L60.804 179.278C60.804 179.278 62.9285 176.419 63.1818 174.235C63.4429 171.983 63.674 169.502 63.1332 167.299C61.779 161.784 60.5826 159.294 57.6128 154.69C53.9524 149.015 47.3156 135.96 44.1058 121.905C41.2023 109.19 40.852 88.489 40.852 88.489L43.869 88.489L43.8467 85.3366L54.6855 82.1842L43.7886 77.1403L43.6591 58.8563L53.175 39.3114L43.4492 29.2236L38.0186 29.2236L37.9203 15.353L42.1441 15.353L42.162 17.8749L46.3857 17.8749L46.3098 7.15674L42.086 7.15674L42.1128 10.9396L37.889 10.9396L37.8444 4.63481L40.258 4.63481L40.2267 0.221436Z" fill="white"/>
</svg>
