<svg width="86" height="133" viewBox="0 0 86 133" fill="none" xmlns="http://www.w3.org/2000/svg">
<path d="M11.4418 100.027C12.2273 109.258 23.2254 119.843 23.2254 119.843L59.0175 119.843C59.0175 119.843 71.4834 114.285 70.5717 107.277C69.8486 101.717 62.3918 103.018 61.0162 97.6104C59.7256 92.5371 60.8024 88.2654 62.8331 83.5364C66.1279 75.8638 73.1073 72.9035 79.0795 63.7206C83.4422 57.0124 84.9342 51.445 84.5387 42.9963C83.9725 30.9021 79.5278 23.8047 70.1056 14.4229C61.854 6.20656 45.6763 1.9148 45.6763 1.9148C39.5446 0.617222 35.809 0.481619 29.7208 1.91481C24.7707 3.08007 21.5375 3.36474 17.684 7.23123C14.1447 10.7825 7.35824 10.6144 8.69324 16.4141C9.64203 18.5932 11.667 18.398 13.0329 20.2806C17.5442 26.4987 11.0206 40.5797 11.0206 40.5797L5.09666 56.529C5.09666 56.529 3.82311 59.4289 2.10835 60.8788C1.25973 62.812 0.0888809 64.5763 0.85597 66.6785C1.9044 69.5517 3.87056 70.5272 6.49621 71.5116C9.05763 72.472 10.8092 72.3345 13.3959 71.5116C16.3104 70.5845 17.4606 68.7847 19.8301 66.6785C22.1555 64.6116 23.1885 63.103 25.395 60.8788C28.6688 57.5788 31.5959 56.8267 33.9614 52.6625C35.871 49.301 33.78 44.8862 36.9115 42.9963C40.1392 41.0483 43.6475 42.6954 45.9879 45.8961C48.5598 49.4134 47.6048 53.3188 46.0701 57.4956C43.9064 63.3846 38.6921 62.9985 34.0607 66.6785C29.6532 70.1807 26.6966 71.5399 22.9138 75.8614C16.2387 83.4873 10.5325 89.3425 11.4418 100.027Z" fill="black"/>
<rect width="80.5158" height="13.7376" transform="matrix(1 -1.00661e-08 0.00708456 0.999975 2.79688 119.031)" fill="black"/>
</svg>
