<svg width="184" height="250" viewBox="0 0 184 250" fill="none" xmlns="http://www.w3.org/2000/svg">
<rect y="0.00244141" width="184" height="250" fill="black"/>
<rect x="7.48828" y="22.0024" width="169.023" height="190" fill="white"/>
<rect x="7.48828" y="219.002" width="169.023" height="20" fill="white"/>
<g clip-path="url(#clip0_274_536)">
<path d="M164.014 227.881L161.039 231.455C161.004 231.496 160.982 231.545 160.974 231.595C160.966 231.646 160.972 231.698 160.992 231.744L162.686 235.704C162.838 236.072 163.403 236.056 163.56 235.678L168.169 224.628C168.201 224.552 168.21 224.47 168.194 224.39C168.179 224.311 168.14 224.239 168.082 224.181C168.024 224.122 167.949 224.081 167.866 224.061C167.783 224.041 167.694 224.044 167.61 224.068L155.497 227.596C155.083 227.716 155.027 228.242 155.408 228.408L159.516 230.264C159.565 230.286 159.619 230.295 159.674 230.291C159.729 230.287 159.782 230.27 159.828 230.241L163.85 227.715C163.875 227.699 163.905 227.692 163.934 227.695C163.964 227.697 163.991 227.71 164.011 227.73C164.031 227.749 164.042 227.776 164.043 227.803C164.043 227.831 164.034 227.858 164.015 227.88" fill="black"/>
</g>
<path d="M19.3838 226.815V226.256H22.5361V226.815H21.2549V232.002H20.6689V226.815H19.3838ZM22.8135 227.752H23.3916L24.8525 231.026L26.2705 227.752H26.8525L24.3174 233.557H23.7393L24.5596 231.682L22.8135 227.752ZM27.5674 227.752H28.1104V228.534C28.3265 228.237 28.5752 228.014 28.8564 227.866C29.1377 227.717 29.4515 227.643 29.7979 227.643C30.402 227.643 30.9189 227.861 31.3486 228.295C31.7783 228.73 31.9932 229.254 31.9932 229.866C31.9932 230.491 31.7796 231.022 31.3525 231.459C30.9281 231.894 30.415 232.112 29.8135 232.112C29.4749 232.112 29.1637 232.042 28.8799 231.901C28.596 231.76 28.3395 231.551 28.1104 231.272V233.557H27.5674V227.752ZM29.7549 228.17C29.2809 228.17 28.8812 228.336 28.5557 228.667C28.2327 228.997 28.0713 229.409 28.0713 229.901C28.0713 230.224 28.1429 230.514 28.2861 230.772C28.432 231.03 28.639 231.234 28.9072 231.385C29.1781 231.536 29.4632 231.612 29.7627 231.612C30.057 231.612 30.333 231.536 30.5908 231.385C30.8512 231.232 31.0583 231.018 31.2119 230.745C31.3656 230.471 31.4424 230.185 31.4424 229.885C31.4424 229.583 31.3656 229.297 31.2119 229.026C31.0609 228.755 30.8564 228.545 30.5986 228.397C30.3408 228.246 30.0596 228.17 29.7549 228.17ZM36.5986 230.592L37.0596 230.834C36.9085 231.131 36.734 231.371 36.5361 231.553C36.3382 231.736 36.1156 231.875 35.8682 231.971C35.6208 232.065 35.3408 232.112 35.0283 232.112C34.3356 232.112 33.7939 231.885 33.4033 231.432C33.0127 230.976 32.8174 230.462 32.8174 229.889C32.8174 229.35 32.9827 228.87 33.3135 228.448C33.7327 227.911 34.2939 227.643 34.9971 227.643C35.721 227.643 36.2992 227.918 36.7314 228.467C37.0387 228.855 37.195 229.34 37.2002 229.92H33.3799C33.3903 230.415 33.5479 230.821 33.8525 231.139C34.1572 231.454 34.5335 231.612 34.9814 231.612C35.1976 231.612 35.4072 231.574 35.6104 231.499C35.8161 231.423 35.9906 231.323 36.1338 231.198C36.277 231.073 36.432 230.871 36.5986 230.592ZM36.5986 229.448C36.5257 229.156 36.4189 228.923 36.2783 228.749C36.1403 228.574 35.9567 228.433 35.7275 228.327C35.4984 228.22 35.2575 228.167 35.0049 228.167C34.5882 228.167 34.2301 228.301 33.9307 228.569C33.7119 228.764 33.5465 229.057 33.4346 229.448H36.5986ZM39.9854 227.752H40.5635L42.0244 231.026L43.4424 227.752H44.0244L41.4893 233.557H40.9111L41.7314 231.682L39.9854 227.752ZM46.7432 227.643C47.3968 227.643 47.9385 227.88 48.3682 228.354C48.7588 228.786 48.9541 229.298 48.9541 229.889C48.9541 230.483 48.7471 231.002 48.333 231.448C47.9215 231.89 47.3916 232.112 46.7432 232.112C46.0921 232.112 45.5596 231.89 45.1455 231.448C44.734 231.002 44.5283 230.483 44.5283 229.889C44.5283 229.301 44.7236 228.79 45.1143 228.358C45.5439 227.881 46.0869 227.643 46.7432 227.643ZM46.7432 228.178C46.29 228.178 45.9007 228.346 45.5752 228.682C45.2497 229.018 45.0869 229.424 45.0869 229.901C45.0869 230.208 45.1611 230.495 45.3096 230.76C45.458 231.026 45.6585 231.232 45.9111 231.377C46.1637 231.521 46.4411 231.592 46.7432 231.592C47.0452 231.592 47.3226 231.521 47.5752 231.377C47.8278 231.232 48.0283 231.026 48.1768 230.76C48.3252 230.495 48.3994 230.208 48.3994 229.901C48.3994 229.424 48.2354 229.018 47.9072 228.682C47.5817 228.346 47.1937 228.178 46.7432 228.178ZM49.9033 227.752H50.4541V229.737C50.4541 230.221 50.4801 230.555 50.5322 230.737C50.6104 230.997 50.7588 231.203 50.9775 231.354C51.1989 231.505 51.4619 231.581 51.7666 231.581C52.0713 231.581 52.3291 231.508 52.54 231.362C52.7536 231.213 52.9007 231.019 52.9814 230.78C53.0361 230.616 53.0635 230.268 53.0635 229.737V227.752H53.6221V229.838C53.6221 230.424 53.5531 230.866 53.415 231.163C53.2796 231.459 53.0739 231.693 52.7979 231.862C52.5244 232.028 52.1807 232.112 51.7666 232.112C51.3525 232.112 51.0062 232.028 50.7275 231.862C50.4515 231.693 50.2445 231.458 50.1064 231.159C49.971 230.857 49.9033 230.403 49.9033 229.799V227.752ZM54.6338 227.752H55.1924V228.374C55.359 228.129 55.5348 227.946 55.7197 227.827C55.9046 227.704 56.0973 227.643 56.2979 227.643C56.4489 227.643 56.6104 227.691 56.7822 227.788L56.4971 228.249C56.3825 228.199 56.2861 228.174 56.208 228.174C56.0257 228.174 55.8499 228.25 55.6807 228.401C55.5114 228.549 55.3825 228.781 55.2939 229.096C55.2262 229.338 55.1924 229.828 55.1924 230.565V232.002H54.6338V227.752ZM59.4619 227.752H60.0049V228.487C60.195 228.216 60.3903 228.018 60.5908 227.893C60.8669 227.726 61.1572 227.643 61.4619 227.643C61.6676 227.643 61.863 227.683 62.0479 227.764C62.2327 227.845 62.3838 227.953 62.501 228.088C62.6182 228.221 62.7197 228.413 62.8057 228.663C62.988 228.329 63.2158 228.077 63.4893 227.905C63.7627 227.73 64.057 227.643 64.3721 227.643C64.6663 227.643 64.9255 227.717 65.1494 227.866C65.376 228.014 65.5439 228.221 65.6533 228.487C65.7627 228.752 65.8174 229.151 65.8174 229.682V232.002H65.2588V229.682C65.2588 229.226 65.2262 228.914 65.1611 228.745C65.096 228.573 64.984 228.435 64.8252 228.331C64.6689 228.226 64.4814 228.174 64.2627 228.174C63.9971 228.174 63.7536 228.252 63.5322 228.409C63.3135 228.565 63.1533 228.773 63.0518 229.034C62.9502 229.294 62.8994 229.729 62.8994 230.338V232.002H62.3564V229.827C62.3564 229.314 62.3239 228.966 62.2588 228.784C62.1963 228.599 62.0856 228.452 61.9268 228.342C61.7679 228.23 61.5791 228.174 61.3604 228.174C61.1077 228.174 60.8708 228.251 60.6494 228.405C60.4307 228.556 60.2679 228.76 60.1611 229.018C60.057 229.276 60.0049 229.67 60.0049 230.202V232.002H59.4619V227.752ZM70.5518 230.592L71.0127 230.834C70.8617 231.131 70.6872 231.371 70.4893 231.553C70.2913 231.736 70.0687 231.875 69.8213 231.971C69.5739 232.065 69.2939 232.112 68.9814 232.112C68.2887 232.112 67.7471 231.885 67.3564 231.432C66.9658 230.976 66.7705 230.462 66.7705 229.889C66.7705 229.35 66.9359 228.87 67.2666 228.448C67.6859 227.911 68.2471 227.643 68.9502 227.643C69.6742 227.643 70.2523 227.918 70.6846 228.467C70.9919 228.855 71.1481 229.34 71.1533 229.92H67.333C67.3434 230.415 67.501 230.821 67.8057 231.139C68.1104 231.454 68.4867 231.612 68.9346 231.612C69.1507 231.612 69.3604 231.574 69.5635 231.499C69.7692 231.423 69.9437 231.323 70.0869 231.198C70.2301 231.073 70.3851 230.871 70.5518 230.592ZM70.5518 229.448C70.4788 229.156 70.3721 228.923 70.2314 228.749C70.0934 228.574 69.9098 228.433 69.6807 228.327C69.4515 228.22 69.2106 228.167 68.958 228.167C68.5413 228.167 68.1833 228.301 67.8838 228.569C67.665 228.764 67.4997 229.057 67.3877 229.448H70.5518ZM74.3135 228.217L73.9619 228.581C73.6702 228.297 73.3851 228.155 73.1064 228.155C72.9294 228.155 72.777 228.213 72.6494 228.331C72.5244 228.448 72.4619 228.584 72.4619 228.741C72.4619 228.879 72.514 229.01 72.6182 229.135C72.7223 229.263 72.9411 229.413 73.2744 229.584C73.6807 229.795 73.9567 229.999 74.1025 230.194C74.2458 230.392 74.3174 230.614 74.3174 230.862C74.3174 231.211 74.195 231.506 73.9502 231.749C73.7054 231.991 73.3994 232.112 73.0322 232.112C72.7874 232.112 72.5531 232.058 72.3291 231.952C72.1077 231.845 71.9242 231.698 71.7783 231.51L72.1221 231.12C72.4007 231.435 72.6963 231.592 73.0088 231.592C73.2275 231.592 73.4137 231.522 73.5674 231.381C73.721 231.241 73.7979 231.075 73.7979 230.885C73.7979 230.729 73.7471 230.59 73.6455 230.467C73.5439 230.347 73.3148 230.196 72.958 230.014C72.5752 229.816 72.3148 229.621 72.1768 229.428C72.0387 229.236 71.9697 229.015 71.9697 228.768C71.9697 228.445 72.0791 228.177 72.2979 227.963C72.5192 227.75 72.7979 227.643 73.1338 227.643C73.5244 227.643 73.9176 227.834 74.3135 228.217ZM77.4229 228.217L77.0713 228.581C76.7796 228.297 76.4945 228.155 76.2158 228.155C76.0387 228.155 75.8864 228.213 75.7588 228.331C75.6338 228.448 75.5713 228.584 75.5713 228.741C75.5713 228.879 75.6234 229.01 75.7275 229.135C75.8317 229.263 76.0505 229.413 76.3838 229.584C76.79 229.795 77.0661 229.999 77.2119 230.194C77.3551 230.392 77.4268 230.614 77.4268 230.862C77.4268 231.211 77.3044 231.506 77.0596 231.749C76.8148 231.991 76.5088 232.112 76.1416 232.112C75.8968 232.112 75.6624 232.058 75.4385 231.952C75.2171 231.845 75.0335 231.698 74.8877 231.51L75.2314 231.12C75.5101 231.435 75.8057 231.592 76.1182 231.592C76.3369 231.592 76.5231 231.522 76.6768 231.381C76.8304 231.241 76.9072 231.075 76.9072 230.885C76.9072 230.729 76.8564 230.59 76.7549 230.467C76.6533 230.347 76.4242 230.196 76.0674 230.014C75.6846 229.816 75.4242 229.621 75.2861 229.428C75.1481 229.236 75.0791 229.015 75.0791 228.768C75.0791 228.445 75.1885 228.177 75.4072 227.963C75.6286 227.75 75.9072 227.643 76.2432 227.643C76.6338 227.643 77.027 227.834 77.4229 228.217ZM82.6299 227.752V232.002H82.0908V231.272C81.8617 231.551 81.6038 231.76 81.3174 231.901C81.0335 232.042 80.7223 232.112 80.3838 232.112C79.7822 232.112 79.2679 231.894 78.8408 231.459C78.4163 231.022 78.2041 230.491 78.2041 229.866C78.2041 229.254 78.4189 228.73 78.8486 228.295C79.2783 227.861 79.7952 227.643 80.3994 227.643C80.7484 227.643 81.0635 227.717 81.3447 227.866C81.6286 228.014 81.8773 228.237 82.0908 228.534V227.752H82.6299ZM80.4424 228.17C80.1377 228.17 79.8564 228.246 79.5986 228.397C79.3408 228.545 79.1351 228.755 78.9814 229.026C78.8304 229.297 78.7549 229.583 78.7549 229.885C78.7549 230.185 78.8317 230.471 78.9854 230.745C79.139 231.018 79.3447 231.232 79.6025 231.385C79.863 231.536 80.1416 231.612 80.4385 231.612C80.738 231.612 81.0218 231.536 81.29 231.385C81.5583 231.234 81.764 231.03 81.9072 230.772C82.0531 230.514 82.126 230.224 82.126 229.901C82.126 229.409 81.9632 228.997 81.6377 228.667C81.3148 228.336 80.9163 228.17 80.4424 228.17ZM87.5244 227.752H88.0752V231.139C88.0752 231.736 88.0231 232.172 87.9189 232.448C87.7757 232.838 87.527 233.139 87.1729 233.35C86.8187 233.561 86.3929 233.667 85.8955 233.667C85.5309 233.667 85.2028 233.614 84.9111 233.51C84.6221 233.409 84.3864 233.271 84.2041 233.096C84.0218 232.924 83.8538 232.672 83.7002 232.338H84.2939C84.4554 232.62 84.6637 232.828 84.9189 232.963C85.1742 233.099 85.4906 233.167 85.8682 233.167C86.2406 233.167 86.5544 233.096 86.8096 232.956C87.0674 232.818 87.251 232.643 87.3604 232.432C87.4697 232.221 87.5244 231.881 87.5244 231.413V231.194C87.3187 231.454 87.0674 231.655 86.7705 231.795C86.4736 231.933 86.1585 232.002 85.8252 232.002C85.4346 232.002 85.0674 231.906 84.7236 231.713C84.3799 231.518 84.1143 231.256 83.9268 230.928C83.7393 230.6 83.6455 230.239 83.6455 229.846C83.6455 229.453 83.7432 229.087 83.9385 228.749C84.1338 228.407 84.4033 228.138 84.7471 227.94C85.0934 227.742 85.458 227.643 85.8408 227.643C86.1585 227.643 86.4541 227.709 86.7275 227.842C87.0036 227.972 87.2692 228.189 87.5244 228.491V227.752ZM85.9111 228.17C85.6012 228.17 85.3135 228.246 85.0479 228.397C84.7822 228.545 84.5739 228.752 84.4229 229.018C84.2718 229.281 84.1963 229.566 84.1963 229.874C84.1963 230.34 84.3525 230.725 84.665 231.03C84.9775 231.334 85.3825 231.487 85.8799 231.487C86.3825 231.487 86.7861 231.336 87.0908 231.034C87.3981 230.732 87.5518 230.334 87.5518 229.842C87.5518 229.522 87.4814 229.237 87.3408 228.987C87.2002 228.734 87.001 228.535 86.7432 228.389C86.4854 228.243 86.208 228.17 85.9111 228.17ZM92.8252 230.592L93.2861 230.834C93.1351 231.131 92.9606 231.371 92.7627 231.553C92.5648 231.736 92.3421 231.875 92.0947 231.971C91.8473 232.065 91.5674 232.112 91.2549 232.112C90.5622 232.112 90.0205 231.885 89.6299 231.432C89.2393 230.976 89.0439 230.462 89.0439 229.889C89.0439 229.35 89.2093 228.87 89.54 228.448C89.9593 227.911 90.5205 227.643 91.2236 227.643C91.9476 227.643 92.5257 227.918 92.958 228.467C93.2653 228.855 93.4215 229.34 93.4268 229.92H89.6064C89.6169 230.415 89.7744 230.821 90.0791 231.139C90.3838 231.454 90.7601 231.612 91.208 231.612C91.4242 231.612 91.6338 231.574 91.8369 231.499C92.0426 231.423 92.2171 231.323 92.3604 231.198C92.5036 231.073 92.6585 230.871 92.8252 230.592ZM92.8252 229.448C92.7523 229.156 92.6455 228.923 92.5049 228.749C92.3669 228.574 92.1833 228.433 91.9541 228.327C91.7249 228.22 91.484 228.167 91.2314 228.167C90.8148 228.167 90.4567 228.301 90.1572 228.569C89.9385 228.764 89.7731 229.057 89.6611 229.448H92.8252ZM96.6689 226.112H97.2158V228.514C97.4372 228.222 97.6807 228.005 97.9463 227.862C98.2119 227.716 98.4997 227.643 98.8096 227.643C99.1273 227.643 99.4085 227.724 99.6533 227.885C99.9007 228.047 100.083 228.264 100.2 228.538C100.317 228.808 100.376 229.234 100.376 229.815V232.002H99.8291V229.975C99.8291 229.486 99.8096 229.159 99.7705 228.995C99.7028 228.713 99.5791 228.502 99.3994 228.362C99.2223 228.219 98.9893 228.147 98.7002 228.147C98.3695 228.147 98.0726 228.256 97.8096 228.475C97.5492 228.694 97.3773 228.965 97.2939 229.288C97.2419 229.496 97.2158 229.881 97.2158 230.444V232.002H96.6689V226.112ZM105.13 230.592L105.591 230.834C105.44 231.131 105.265 231.371 105.067 231.553C104.869 231.736 104.647 231.875 104.399 231.971C104.152 232.065 103.872 232.112 103.56 232.112C102.867 232.112 102.325 231.885 101.935 231.432C101.544 230.976 101.349 230.462 101.349 229.889C101.349 229.35 101.514 228.87 101.845 228.448C102.264 227.911 102.825 227.643 103.528 227.643C104.252 227.643 104.83 227.918 105.263 228.467C105.57 228.855 105.726 229.34 105.731 229.92H101.911C101.922 230.415 102.079 230.821 102.384 231.139C102.688 231.454 103.065 231.612 103.513 231.612C103.729 231.612 103.938 231.574 104.142 231.499C104.347 231.423 104.522 231.323 104.665 231.198C104.808 231.073 104.963 230.871 105.13 230.592ZM105.13 229.448C105.057 229.156 104.95 228.923 104.81 228.749C104.672 228.574 104.488 228.433 104.259 228.327C104.03 228.22 103.789 228.167 103.536 228.167C103.119 228.167 102.761 228.301 102.462 228.569C102.243 228.764 102.078 229.057 101.966 229.448H105.13ZM106.548 227.752H107.106V228.374C107.273 228.129 107.449 227.946 107.634 227.827C107.819 227.704 108.011 227.643 108.212 227.643C108.363 227.643 108.524 227.691 108.696 227.788L108.411 228.249C108.297 228.199 108.2 228.174 108.122 228.174C107.94 228.174 107.764 228.25 107.595 228.401C107.425 228.549 107.297 228.781 107.208 229.096C107.14 229.338 107.106 229.828 107.106 230.565V232.002H106.548V227.752ZM112.739 230.592L113.2 230.834C113.049 231.131 112.875 231.371 112.677 231.553C112.479 231.736 112.256 231.875 112.009 231.971C111.761 232.065 111.481 232.112 111.169 232.112C110.476 232.112 109.935 231.885 109.544 231.432C109.153 230.976 108.958 230.462 108.958 229.889C108.958 229.35 109.123 228.87 109.454 228.448C109.873 227.911 110.435 227.643 111.138 227.643C111.862 227.643 112.44 227.918 112.872 228.467C113.179 228.855 113.336 229.34 113.341 229.92H109.521C109.531 230.415 109.688 230.821 109.993 231.139C110.298 231.454 110.674 231.612 111.122 231.612C111.338 231.612 111.548 231.574 111.751 231.499C111.957 231.423 112.131 231.323 112.274 231.198C112.418 231.073 112.573 230.871 112.739 230.592ZM112.739 229.448C112.666 229.156 112.56 228.923 112.419 228.749C112.281 228.574 112.097 228.433 111.868 228.327C111.639 228.22 111.398 228.167 111.146 228.167C110.729 228.167 110.371 228.301 110.071 228.569C109.853 228.764 109.687 229.057 109.575 229.448H112.739ZM114.966 231.143C115.099 231.143 115.212 231.19 115.306 231.284C115.399 231.377 115.446 231.492 115.446 231.627C115.446 231.76 115.399 231.875 115.306 231.971C115.212 232.065 115.099 232.112 114.966 232.112C114.833 232.112 114.72 232.065 114.626 231.971C114.532 231.875 114.485 231.76 114.485 231.627C114.485 231.492 114.532 231.377 114.626 231.284C114.72 231.19 114.833 231.143 114.966 231.143ZM117.185 231.143C117.317 231.143 117.431 231.19 117.524 231.284C117.618 231.377 117.665 231.492 117.665 231.627C117.665 231.76 117.618 231.875 117.524 231.971C117.431 232.065 117.317 232.112 117.185 232.112C117.052 232.112 116.938 232.065 116.845 231.971C116.751 231.875 116.704 231.76 116.704 231.627C116.704 231.492 116.751 231.377 116.845 231.284C116.938 231.19 117.052 231.143 117.185 231.143ZM119.403 231.143C119.536 231.143 119.649 231.19 119.743 231.284C119.837 231.377 119.884 231.492 119.884 231.627C119.884 231.76 119.837 231.875 119.743 231.971C119.649 232.065 119.536 232.112 119.403 232.112C119.271 232.112 119.157 232.065 119.063 231.971C118.97 231.875 118.923 231.76 118.923 231.627C118.923 231.492 118.97 231.377 119.063 231.284C119.157 231.19 119.271 231.143 119.403 231.143Z" fill="#1E1E1E"/>
<path d="M30.8252 6.81738H32.4463C33.4912 6.81738 34.2676 6.94759 34.7754 7.20801C35.2832 7.46517 35.7015 7.88509 36.0303 8.46777C36.359 9.05046 36.5234 9.73079 36.5234 10.5088C36.5234 11.0622 36.4307 11.5716 36.2451 12.0371C36.0628 12.4993 35.8089 12.8835 35.4834 13.1895C35.1611 13.4954 34.8112 13.707 34.4336 13.8242C34.056 13.9414 33.4017 14 32.4707 14H30.8252V6.81738ZM32.1875 8.13574V12.6621H32.8223C33.4473 12.6621 33.8997 12.5905 34.1797 12.4473C34.4629 12.304 34.694 12.0632 34.873 11.7246C35.0521 11.3861 35.1416 10.9694 35.1416 10.4746C35.1416 9.71289 34.9284 9.12207 34.502 8.70215C34.1178 8.32454 33.501 8.13574 32.6514 8.13574H32.1875ZM38.1982 6.5C38.4326 6.5 38.6328 6.58464 38.7988 6.75391C38.9681 6.92318 39.0527 7.12826 39.0527 7.36914C39.0527 7.60677 38.9697 7.81022 38.8037 7.97949C38.6377 8.14551 38.4391 8.22852 38.208 8.22852C37.9704 8.22852 37.7669 8.14388 37.5977 7.97461C37.4316 7.80208 37.3486 7.59375 37.3486 7.34961C37.3486 7.11523 37.4316 6.91504 37.5977 6.74902C37.7637 6.58301 37.9639 6.5 38.1982 6.5ZM37.5293 8.6875H38.8672V14H37.5293V8.6875ZM39.5068 8.6875H40.8643L42.207 11.8223L43.5449 8.6875H44.8975L42.6367 14H41.7725L39.5068 8.6875ZM45.0928 8.6875H46.4551L47.8369 12.0225L49.3604 8.6875H50.7275L47.3975 15.9434H46.0205L47.1143 13.6045L45.0928 8.6875ZM55.4102 8.6875H56.7383V14H55.4102V13.4385C55.1497 13.6859 54.8877 13.8649 54.624 13.9756C54.3636 14.083 54.0804 14.1367 53.7744 14.1367C53.0876 14.1367 52.4935 13.8714 51.9922 13.3408C51.4909 12.807 51.2402 12.1445 51.2402 11.3535C51.2402 10.5332 51.4827 9.861 51.9678 9.33691C52.4528 8.81283 53.042 8.55078 53.7354 8.55078C54.0544 8.55078 54.3538 8.611 54.6338 8.73145C54.9137 8.85189 55.1725 9.03255 55.4102 9.27344V8.6875ZM54.0088 9.78125C53.5954 9.78125 53.252 9.92773 52.9785 10.2207C52.7051 10.5104 52.5684 10.8831 52.5684 11.3389C52.5684 11.7979 52.7067 12.1755 52.9834 12.4717C53.2633 12.7679 53.6068 12.916 54.0137 12.916C54.4336 12.916 54.7819 12.7712 55.0586 12.4814C55.3353 12.1885 55.4736 11.806 55.4736 11.334C55.4736 10.8717 55.3353 10.4974 55.0586 10.2109C54.7819 9.92448 54.432 9.78125 54.0088 9.78125ZM58.0859 8.6875H59.4141V9.22949C59.7168 8.97559 59.9902 8.7998 60.2344 8.70215C60.4818 8.60124 60.734 8.55078 60.9912 8.55078C61.5186 8.55078 61.9661 8.7347 62.334 9.10254C62.6432 9.41504 62.7979 9.87728 62.7979 10.4893V14H61.4795V11.6709C61.4795 11.0361 61.4502 10.6146 61.3916 10.4062C61.3363 10.1979 61.237 10.04 61.0938 9.93262C60.9538 9.82194 60.7796 9.7666 60.5713 9.7666C60.3011 9.7666 60.0684 9.85775 59.873 10.04C59.681 10.2191 59.5475 10.4681 59.4727 10.7871C59.4336 10.9531 59.4141 11.3128 59.4141 11.8662V14H58.0859V8.6875ZM67.3438 9.42969L66.5186 10.2549C66.1833 9.92285 65.8789 9.75684 65.6055 9.75684C65.4557 9.75684 65.3385 9.78939 65.2539 9.85449C65.1693 9.91634 65.127 9.99447 65.127 10.0889C65.127 10.1605 65.153 10.2272 65.2051 10.2891C65.2604 10.3477 65.3939 10.429 65.6055 10.5332L66.0938 10.7773C66.6081 11.0312 66.9613 11.29 67.1533 11.5537C67.3454 11.8174 67.4414 12.1266 67.4414 12.4814C67.4414 12.9535 67.2673 13.3473 66.9189 13.6631C66.5739 13.9788 66.11 14.1367 65.5273 14.1367C64.7526 14.1367 64.1341 13.834 63.6719 13.2285L64.4922 12.335C64.6484 12.5173 64.8307 12.6654 65.0391 12.7793C65.2507 12.89 65.4378 12.9453 65.6006 12.9453C65.7764 12.9453 65.918 12.903 66.0254 12.8184C66.1328 12.7337 66.1865 12.6361 66.1865 12.5254C66.1865 12.3203 65.9928 12.1201 65.6055 11.9248L65.1562 11.7002C64.2969 11.2673 63.8672 10.7253 63.8672 10.0742C63.8672 9.6543 64.0283 9.29622 64.3506 9C64.6761 8.70052 65.0911 8.55078 65.5957 8.55078C65.9408 8.55078 66.2646 8.62728 66.5674 8.78027C66.8734 8.93001 67.1322 9.14648 67.3438 9.42969ZM68.501 6.63672H69.8242V9.22461C70.0846 9 70.3467 8.83236 70.6104 8.72168C70.874 8.60775 71.141 8.55078 71.4111 8.55078C71.9385 8.55078 72.3828 8.73307 72.7441 9.09766C73.0534 9.41341 73.208 9.87728 73.208 10.4893V14H71.8945V11.6709C71.8945 11.0557 71.8652 10.639 71.8066 10.4209C71.748 10.2028 71.6471 10.04 71.5039 9.93262C71.3639 9.8252 71.1898 9.77148 70.9814 9.77148C70.7113 9.77148 70.4785 9.861 70.2832 10.04C70.0911 10.2191 69.9577 10.4632 69.8828 10.7725C69.8438 10.932 69.8242 11.2965 69.8242 11.8662V14H68.501V6.63672Z" fill="white"/>
<path d="M14.4423 5.50244C15.057 5.50244 15.6466 5.76583 16.0812 6.23467C16.5159 6.70352 16.7601 7.3394 16.7601 8.00244C16.7601 8.66548 16.5159 9.30137 16.0812 9.77021C15.6466 10.239 15.057 10.5024 14.4423 10.5024C13.8276 10.5024 13.238 10.239 12.8033 9.77021C12.3687 9.30137 12.1245 8.66548 12.1245 8.00244C12.1245 7.3394 12.3687 6.70352 12.8033 6.23467C13.238 5.76583 13.8276 5.50244 14.4423 5.50244ZM14.4423 11.7524C17.0035 11.7524 19.0779 12.8712 19.0779 14.2524V15.5024H9.80664V14.2524C9.80664 12.8712 11.8811 11.7524 14.4423 11.7524Z" fill="white"/>
<path d="M105.907 37.0024V51.1323H159.368L165.814 53.0024V37.0024H105.907Z" fill="#B9B9B9" stroke="#B6B6B6"/>
<path d="M115.156 41.2563H115.734V43.6665H118.656V41.2563H119.234V47.0024H118.656V44.229H115.734V47.0024H115.156V41.2563ZM120.734 41.0024C120.859 41.0024 120.966 41.0467 121.055 41.1353C121.143 41.2238 121.188 41.3306 121.188 41.4556C121.188 41.578 121.143 41.6834 121.055 41.772C120.966 41.8605 120.859 41.9048 120.734 41.9048C120.612 41.9048 120.507 41.8605 120.418 41.772C120.329 41.6834 120.285 41.578 120.285 41.4556C120.285 41.3306 120.329 41.2238 120.418 41.1353C120.507 41.0467 120.612 41.0024 120.734 41.0024ZM120.461 42.7524H121.012V47.0024H120.461V42.7524ZM122.688 45.9478L123.215 46.1978L122.422 47.6743L122.035 47.5103L122.688 45.9478ZM126.375 42.7524H126.934V43.3735C127.1 43.1287 127.276 42.9465 127.461 42.8267C127.646 42.7043 127.839 42.6431 128.039 42.6431C128.19 42.6431 128.352 42.6912 128.523 42.7876L128.238 43.2485C128.124 43.1991 128.027 43.1743 127.949 43.1743C127.767 43.1743 127.591 43.2498 127.422 43.4009C127.253 43.5493 127.124 43.7811 127.035 44.0962C126.967 44.3384 126.934 44.828 126.934 45.5649V47.0024H126.375V42.7524ZM132.566 45.5923L133.027 45.8345C132.876 46.1313 132.702 46.3709 132.504 46.5532C132.306 46.7355 132.083 46.8748 131.836 46.9712C131.589 47.0649 131.309 47.1118 130.996 47.1118C130.303 47.1118 129.762 46.8853 129.371 46.4321C128.98 45.9764 128.785 45.4621 128.785 44.8892C128.785 44.3501 128.951 43.8696 129.281 43.4478C129.701 42.9113 130.262 42.6431 130.965 42.6431C131.689 42.6431 132.267 42.9178 132.699 43.4673C133.007 43.8553 133.163 44.3397 133.168 44.9204H129.348C129.358 45.4152 129.516 45.8215 129.82 46.1392C130.125 46.4543 130.501 46.6118 130.949 46.6118C131.165 46.6118 131.375 46.5741 131.578 46.4985C131.784 46.423 131.958 46.3228 132.102 46.1978C132.245 46.0728 132.4 45.8709 132.566 45.5923ZM132.566 44.4478C132.493 44.1561 132.387 43.923 132.246 43.7485C132.108 43.5741 131.924 43.4334 131.695 43.3267C131.466 43.2199 131.225 43.1665 130.973 43.1665C130.556 43.1665 130.198 43.3006 129.898 43.5688C129.68 43.7642 129.514 44.0571 129.402 44.4478H132.566ZM138.426 42.7524V47.0024H137.887V46.272C137.658 46.5506 137.4 46.7603 137.113 46.9009C136.829 47.0415 136.518 47.1118 136.18 47.1118C135.578 47.1118 135.064 46.8944 134.637 46.4595C134.212 46.022 134 45.4907 134 44.8657C134 44.2537 134.215 43.7303 134.645 43.2954C135.074 42.8605 135.591 42.6431 136.195 42.6431C136.544 42.6431 136.859 42.7173 137.141 42.8657C137.424 43.0142 137.673 43.2368 137.887 43.5337V42.7524H138.426ZM136.238 43.1704C135.934 43.1704 135.652 43.2459 135.395 43.397C135.137 43.5454 134.931 43.755 134.777 44.0259C134.626 44.2967 134.551 44.5832 134.551 44.8853C134.551 45.1847 134.628 45.4712 134.781 45.7446C134.935 46.0181 135.141 46.2316 135.398 46.3853C135.659 46.5363 135.938 46.6118 136.234 46.6118C136.534 46.6118 136.818 46.5363 137.086 46.3853C137.354 46.2342 137.56 46.0298 137.703 45.772C137.849 45.5142 137.922 45.2238 137.922 44.9009C137.922 44.4087 137.759 43.9972 137.434 43.6665C137.111 43.3358 136.712 43.1704 136.238 43.1704ZM143.902 41.1118V47.0024H143.363V46.272C143.134 46.5506 142.876 46.7603 142.59 46.9009C142.306 47.0415 141.995 47.1118 141.656 47.1118C141.055 47.1118 140.54 46.8944 140.113 46.4595C139.689 46.022 139.477 45.4907 139.477 44.8657C139.477 44.2537 139.691 43.7303 140.121 43.2954C140.551 42.8605 141.068 42.6431 141.672 42.6431C142.021 42.6431 142.336 42.7173 142.617 42.8657C142.901 43.0142 143.15 43.2368 143.363 43.5337V41.1118H143.902ZM141.715 43.1704C141.41 43.1704 141.129 43.2459 140.871 43.397C140.613 43.5454 140.408 43.755 140.254 44.0259C140.103 44.2967 140.027 44.5832 140.027 44.8853C140.027 45.1847 140.104 45.4712 140.258 45.7446C140.411 46.0181 140.617 46.2316 140.875 46.3853C141.135 46.5363 141.414 46.6118 141.711 46.6118C142.01 46.6118 142.294 46.5363 142.562 46.3853C142.831 46.2342 143.036 46.0298 143.18 45.772C143.326 45.5142 143.398 45.2238 143.398 44.9009C143.398 44.4087 143.236 43.9972 142.91 43.6665C142.587 43.3358 142.189 43.1704 141.715 43.1704ZM144.688 42.7524H145.266L146.727 46.0259L148.145 42.7524H148.727L146.191 48.5571H145.613L146.434 46.6821L144.688 42.7524ZM152.273 42.8188H151.707C151.712 42.2928 151.868 41.8774 152.176 41.5728C152.486 41.2655 152.9 41.1118 153.418 41.1118C153.928 41.1118 154.329 41.2407 154.621 41.4985C154.913 41.7563 155.059 42.0767 155.059 42.4595C155.059 42.6418 155.018 42.811 154.938 42.9673C154.859 43.1209 154.74 43.2603 154.578 43.3853C154.417 43.5076 154.134 43.6483 153.73 43.8071C153.223 44.0103 152.915 44.1613 152.809 44.2603C152.699 44.3618 152.645 44.4842 152.645 44.6274C152.645 44.7785 152.717 44.9139 152.863 45.0337C153.012 45.1535 153.203 45.2134 153.438 45.2134C153.695 45.2134 153.893 45.1483 154.031 45.0181C154.169 44.8853 154.254 44.6743 154.285 44.3853H154.855C154.837 44.8201 154.702 45.1587 154.449 45.4009C154.199 45.6405 153.862 45.7603 153.438 45.7603C153.016 45.7603 152.68 45.6509 152.43 45.4321C152.18 45.2134 152.055 44.9438 152.055 44.6235C152.055 44.4673 152.089 44.3201 152.156 44.1821C152.227 44.0415 152.324 43.9243 152.449 43.8306C152.577 43.7368 152.815 43.6183 153.164 43.4751C153.727 43.2459 154.087 43.0741 154.246 42.9595C154.402 42.8449 154.48 42.6808 154.48 42.4673C154.48 42.2407 154.384 42.0493 154.191 41.8931C154.001 41.7368 153.746 41.6587 153.426 41.6587C153.035 41.6587 152.732 41.7876 152.516 42.0454C152.365 42.2251 152.284 42.4829 152.273 42.8188ZM153.414 46.1431C153.547 46.1431 153.66 46.1899 153.754 46.2837C153.848 46.3774 153.895 46.492 153.895 46.6274C153.895 46.7603 153.848 46.8748 153.754 46.9712C153.66 47.0649 153.547 47.1118 153.414 47.1118C153.281 47.1118 153.168 47.0649 153.074 46.9712C152.98 46.8748 152.934 46.7603 152.934 46.6274C152.934 46.492 152.98 46.3774 153.074 46.2837C153.168 46.1899 153.281 46.1431 153.414 46.1431Z" fill="black"/>
<path d="M62.9238 66.0024V80.1323H21.0923L16.0487 82.0024V66.0024H62.9238Z" fill="black"/>
<path d="M23.0498 70.2563H23.6279V72.6665H26.5498V70.2563H27.1279V76.0024H26.5498V73.229H23.6279V76.0024H23.0498V70.2563ZM32.0146 74.5923L32.4756 74.8345C32.3245 75.1313 32.1501 75.3709 31.9521 75.5532C31.7542 75.7355 31.5316 75.8748 31.2842 75.9712C31.0368 76.0649 30.7568 76.1118 30.4443 76.1118C29.7516 76.1118 29.21 75.8853 28.8193 75.4321C28.4287 74.9764 28.2334 74.4621 28.2334 73.8892C28.2334 73.3501 28.3988 72.8696 28.7295 72.4478C29.1488 71.9113 29.71 71.6431 30.4131 71.6431C31.137 71.6431 31.7152 71.9178 32.1475 72.4673C32.4548 72.8553 32.611 73.3397 32.6162 73.9204H28.7959C28.8063 74.4152 28.9639 74.8215 29.2686 75.1392C29.5732 75.4543 29.9495 75.6118 30.3975 75.6118C30.6136 75.6118 30.8232 75.5741 31.0264 75.4985C31.2321 75.423 31.4066 75.3228 31.5498 75.1978C31.693 75.0728 31.848 74.8709 32.0146 74.5923ZM32.0146 73.4478C31.9417 73.1561 31.835 72.923 31.6943 72.7485C31.5563 72.5741 31.3727 72.4334 31.1436 72.3267C30.9144 72.2199 30.6735 72.1665 30.4209 72.1665C30.0042 72.1665 29.6462 72.3006 29.3467 72.5688C29.1279 72.7642 28.9626 73.0571 28.8506 73.4478H32.0146ZM33.1826 71.7524H33.7607L35.2217 75.0259L36.6396 71.7524H37.2217L34.6865 77.5571H34.1084L34.9287 75.6821L33.1826 71.7524ZM38.4717 74.9478L38.999 75.1978L38.2061 76.6743L37.8193 76.5103L38.4717 74.9478ZM42.0029 70.2563H42.667L44.1357 72.6235L45.5811 70.2563H46.2451L44.4248 73.2563V76.0024H43.8584V73.2563L42.0029 70.2563ZM50.6787 74.5923L51.1396 74.8345C50.9886 75.1313 50.8141 75.3709 50.6162 75.5532C50.4183 75.7355 50.1956 75.8748 49.9482 75.9712C49.7008 76.0649 49.4209 76.1118 49.1084 76.1118C48.4157 76.1118 47.874 75.8853 47.4834 75.4321C47.0928 74.9764 46.8975 74.4621 46.8975 73.8892C46.8975 73.3501 47.0628 72.8696 47.3936 72.4478C47.8128 71.9113 48.374 71.6431 49.0771 71.6431C49.8011 71.6431 50.3792 71.9178 50.8115 72.4673C51.1188 72.8553 51.2751 73.3397 51.2803 73.9204H47.46C47.4704 74.4152 47.6279 74.8215 47.9326 75.1392C48.2373 75.4543 48.6136 75.6118 49.0615 75.6118C49.2777 75.6118 49.4873 75.5741 49.6904 75.4985C49.8962 75.423 50.0706 75.3228 50.2139 75.1978C50.3571 75.0728 50.512 74.8709 50.6787 74.5923ZM50.6787 73.4478C50.6058 73.1561 50.499 72.923 50.3584 72.7485C50.2204 72.5741 50.0368 72.4334 49.8076 72.3267C49.5785 72.2199 49.3376 72.1665 49.085 72.1665C48.6683 72.1665 48.3102 72.3006 48.0107 72.5688C47.792 72.7642 47.6266 73.0571 47.5146 73.4478H50.6787ZM54.4404 72.2173L54.0889 72.5806C53.7972 72.2967 53.512 72.1548 53.2334 72.1548C53.0563 72.1548 52.904 72.2134 52.7764 72.3306C52.6514 72.4478 52.5889 72.5845 52.5889 72.7407C52.5889 72.8787 52.641 73.0103 52.7451 73.1353C52.8493 73.2629 53.068 73.4126 53.4014 73.5845C53.8076 73.7954 54.0837 73.9985 54.2295 74.1938C54.3727 74.3918 54.4443 74.6144 54.4443 74.8618C54.4443 75.2108 54.3219 75.5063 54.0771 75.7485C53.8324 75.9907 53.5264 76.1118 53.1592 76.1118C52.9144 76.1118 52.68 76.0584 52.4561 75.9517C52.2347 75.8449 52.0511 75.6978 51.9053 75.5103L52.249 75.1196C52.5277 75.4347 52.8232 75.5923 53.1357 75.5923C53.3545 75.5923 53.5407 75.522 53.6943 75.3813C53.848 75.2407 53.9248 75.0754 53.9248 74.8853C53.9248 74.729 53.874 74.5897 53.7725 74.4673C53.6709 74.3475 53.4417 74.1965 53.085 74.0142C52.7021 73.8162 52.4417 73.6209 52.3037 73.4282C52.1657 73.2355 52.0967 73.0155 52.0967 72.7681C52.0967 72.4451 52.2061 72.1769 52.4248 71.9634C52.6462 71.7498 52.9248 71.6431 53.2607 71.6431C53.6514 71.6431 54.0446 71.8345 54.4404 72.2173ZM23.8154 80.1118V84.5649H23.249V80.1118H23.8154ZM23.5381 85.1431C23.6709 85.1431 23.7842 85.1899 23.8779 85.2837C23.9717 85.3774 24.0186 85.492 24.0186 85.6274C24.0186 85.7603 23.9717 85.8748 23.8779 85.9712C23.7842 86.0649 23.6709 86.1118 23.5381 86.1118C23.4053 86.1118 23.292 86.0649 23.1982 85.9712C23.1045 85.8748 23.0576 85.7603 23.0576 85.6274C23.0576 85.492 23.1045 85.3774 23.1982 85.2837C23.292 85.1899 23.4053 85.1431 23.5381 85.1431Z" fill="white"/>
<path d="M92.4766 138.002V152.132H24.4134L16.2072 154.002V138.002H92.4766Z" fill="black"/>
<path d="M22.5938 142.815V142.256H25.7461V142.815H24.4648V148.002H23.8789V142.815H22.5938ZM26.4805 142.112H27.0273V144.514C27.2487 144.222 27.4922 144.005 27.7578 143.862C28.0234 143.716 28.3112 143.643 28.6211 143.643C28.9388 143.643 29.2201 143.724 29.4648 143.885C29.7122 144.047 29.8945 144.264 30.0117 144.538C30.1289 144.808 30.1875 145.234 30.1875 145.815V148.002H29.6406V145.975C29.6406 145.486 29.6211 145.159 29.582 144.995C29.5143 144.713 29.3906 144.502 29.2109 144.362C29.0339 144.219 28.8008 144.147 28.5117 144.147C28.181 144.147 27.8841 144.256 27.6211 144.475C27.3607 144.694 27.1888 144.965 27.1055 145.288C27.0534 145.496 27.0273 145.881 27.0273 146.444V148.002H26.4805V142.112ZM35.5977 143.752V148.002H35.0586V147.272C34.8294 147.551 34.5716 147.76 34.2852 147.901C34.0013 148.042 33.6901 148.112 33.3516 148.112C32.75 148.112 32.2357 147.894 31.8086 147.459C31.3841 147.022 31.1719 146.491 31.1719 145.866C31.1719 145.254 31.3867 144.73 31.8164 144.295C32.2461 143.861 32.763 143.643 33.3672 143.643C33.7161 143.643 34.0312 143.717 34.3125 143.866C34.5964 144.014 34.8451 144.237 35.0586 144.534V143.752H35.5977ZM33.4102 144.17C33.1055 144.17 32.8242 144.246 32.5664 144.397C32.3086 144.545 32.1029 144.755 31.9492 145.026C31.7982 145.297 31.7227 145.583 31.7227 145.885C31.7227 146.185 31.7995 146.471 31.9531 146.745C32.1068 147.018 32.3125 147.232 32.5703 147.385C32.8307 147.536 33.1094 147.612 33.4062 147.612C33.7057 147.612 33.9896 147.536 34.2578 147.385C34.526 147.234 34.7318 147.03 34.875 146.772C35.0208 146.514 35.0938 146.224 35.0938 145.901C35.0938 145.409 34.931 144.997 34.6055 144.667C34.2826 144.336 33.8841 144.17 33.4102 144.17ZM37.3086 142.174H37.8594V143.752H38.7266V144.221H37.8594V148.002H37.3086V144.221H36.5625V143.752H37.3086V142.174ZM40.2891 144.256L39.9883 144.084C40.0872 143.887 40.1536 143.732 40.1875 143.62C40.2214 143.508 40.2461 143.363 40.2617 143.186H39.918V142.112H40.625V142.784C40.625 143.12 40.6016 143.384 40.5547 143.577C40.5104 143.767 40.4219 143.993 40.2891 144.256ZM44.4922 144.217L44.1406 144.581C43.849 144.297 43.5638 144.155 43.2852 144.155C43.1081 144.155 42.9557 144.213 42.8281 144.331C42.7031 144.448 42.6406 144.584 42.6406 144.741C42.6406 144.879 42.6927 145.01 42.7969 145.135C42.901 145.263 43.1198 145.413 43.4531 145.584C43.8594 145.795 44.1354 145.999 44.2812 146.194C44.4245 146.392 44.4961 146.614 44.4961 146.862C44.4961 147.211 44.3737 147.506 44.1289 147.749C43.8841 147.991 43.5781 148.112 43.2109 148.112C42.9661 148.112 42.7318 148.058 42.5078 147.952C42.2865 147.845 42.1029 147.698 41.957 147.51L42.3008 147.12C42.5794 147.435 42.875 147.592 43.1875 147.592C43.4062 147.592 43.5924 147.522 43.7461 147.381C43.8997 147.241 43.9766 147.075 43.9766 146.885C43.9766 146.729 43.9258 146.59 43.8242 146.467C43.7227 146.347 43.4935 146.196 43.1367 146.014C42.7539 145.816 42.4935 145.621 42.3555 145.428C42.2174 145.236 42.1484 145.015 42.1484 144.768C42.1484 144.445 42.2578 144.177 42.4766 143.963C42.6979 143.75 42.9766 143.643 43.3125 143.643C43.7031 143.643 44.0964 143.834 44.4922 144.217ZM51.918 143.752V148.002H51.3789V147.272C51.1497 147.551 50.8919 147.76 50.6055 147.901C50.3216 148.042 50.0104 148.112 49.6719 148.112C49.0703 148.112 48.556 147.894 48.1289 147.459C47.7044 147.022 47.4922 146.491 47.4922 145.866C47.4922 145.254 47.707 144.73 48.1367 144.295C48.5664 143.861 49.0833 143.643 49.6875 143.643C50.0365 143.643 50.3516 143.717 50.6328 143.866C50.9167 144.014 51.1654 144.237 51.3789 144.534V143.752H51.918ZM49.7305 144.17C49.4258 144.17 49.1445 144.246 48.8867 144.397C48.6289 144.545 48.4232 144.755 48.2695 145.026C48.1185 145.297 48.043 145.583 48.043 145.885C48.043 146.185 48.1198 146.471 48.2734 146.745C48.4271 147.018 48.6328 147.232 48.8906 147.385C49.151 147.536 49.4297 147.612 49.7266 147.612C50.026 147.612 50.3099 147.536 50.5781 147.385C50.8464 147.234 51.0521 147.03 51.1953 146.772C51.3411 146.514 51.4141 146.224 51.4141 145.901C51.4141 145.409 51.2513 144.997 50.9258 144.667C50.6029 144.336 50.2044 144.17 49.7305 144.17ZM52.5781 143.752H53.1406L54.4414 146.838L55.8047 143.752H55.9023L57.2617 146.838L58.5859 143.752H59.1562L57.3125 148.002H57.207L55.8555 144.959L54.4922 148.002H54.3906L52.5781 143.752ZM63.3789 146.592L63.8398 146.834C63.6888 147.131 63.5143 147.371 63.3164 147.553C63.1185 147.736 62.8958 147.875 62.6484 147.971C62.401 148.065 62.1211 148.112 61.8086 148.112C61.1159 148.112 60.5742 147.885 60.1836 147.432C59.793 146.976 59.5977 146.462 59.5977 145.889C59.5977 145.35 59.763 144.87 60.0938 144.448C60.513 143.911 61.0742 143.643 61.7773 143.643C62.5013 143.643 63.0794 143.918 63.5117 144.467C63.819 144.855 63.9753 145.34 63.9805 145.92H60.1602C60.1706 146.415 60.3281 146.821 60.6328 147.139C60.9375 147.454 61.3138 147.612 61.7617 147.612C61.9779 147.612 62.1875 147.574 62.3906 147.499C62.5964 147.423 62.7708 147.323 62.9141 147.198C63.0573 147.073 63.2122 146.871 63.3789 146.592ZM63.3789 145.448C63.306 145.156 63.1992 144.923 63.0586 144.749C62.9206 144.574 62.737 144.433 62.5078 144.327C62.2786 144.22 62.0378 144.167 61.7852 144.167C61.3685 144.167 61.0104 144.301 60.7109 144.569C60.4922 144.764 60.3268 145.057 60.2148 145.448H63.3789ZM67.1406 144.217L66.7891 144.581C66.4974 144.297 66.2122 144.155 65.9336 144.155C65.7565 144.155 65.6042 144.213 65.4766 144.331C65.3516 144.448 65.2891 144.584 65.2891 144.741C65.2891 144.879 65.3411 145.01 65.4453 145.135C65.5495 145.263 65.7682 145.413 66.1016 145.584C66.5078 145.795 66.7839 145.999 66.9297 146.194C67.0729 146.392 67.1445 146.614 67.1445 146.862C67.1445 147.211 67.0221 147.506 66.7773 147.749C66.5326 147.991 66.2266 148.112 65.8594 148.112C65.6146 148.112 65.3802 148.058 65.1562 147.952C64.9349 147.845 64.7513 147.698 64.6055 147.51L64.9492 147.12C65.2279 147.435 65.5234 147.592 65.8359 147.592C66.0547 147.592 66.2409 147.522 66.3945 147.381C66.5482 147.241 66.625 147.075 66.625 146.885C66.625 146.729 66.5742 146.59 66.4727 146.467C66.3711 146.347 66.1419 146.196 65.7852 146.014C65.4023 145.816 65.1419 145.621 65.0039 145.428C64.8659 145.236 64.7969 145.015 64.7969 144.768C64.7969 144.445 64.9062 144.177 65.125 143.963C65.3464 143.75 65.625 143.643 65.9609 143.643C66.3516 143.643 66.7448 143.834 67.1406 144.217ZM70.125 143.643C70.7786 143.643 71.3203 143.88 71.75 144.354C72.1406 144.786 72.3359 145.298 72.3359 145.889C72.3359 146.483 72.1289 147.002 71.7148 147.448C71.3034 147.89 70.7734 148.112 70.125 148.112C69.474 148.112 68.9414 147.89 68.5273 147.448C68.1159 147.002 67.9102 146.483 67.9102 145.889C67.9102 145.301 68.1055 144.79 68.4961 144.358C68.9258 143.881 69.4688 143.643 70.125 143.643ZM70.125 144.178C69.6719 144.178 69.2826 144.346 68.957 144.682C68.6315 145.018 68.4688 145.424 68.4688 145.901C68.4688 146.208 68.543 146.495 68.6914 146.76C68.8398 147.026 69.0404 147.232 69.293 147.377C69.5456 147.521 69.8229 147.592 70.125 147.592C70.4271 147.592 70.7044 147.521 70.957 147.377C71.2096 147.232 71.4102 147.026 71.5586 146.76C71.707 146.495 71.7812 146.208 71.7812 145.901C71.7812 145.424 71.6172 145.018 71.2891 144.682C70.9635 144.346 70.5755 144.178 70.125 144.178ZM73.3516 143.752H73.8945V144.487C74.0846 144.216 74.2799 144.018 74.4805 143.893C74.7565 143.726 75.0469 143.643 75.3516 143.643C75.5573 143.643 75.7526 143.683 75.9375 143.764C76.1224 143.845 76.2734 143.953 76.3906 144.088C76.5078 144.221 76.6094 144.413 76.6953 144.663C76.8776 144.329 77.1055 144.077 77.3789 143.905C77.6523 143.73 77.9466 143.643 78.2617 143.643C78.556 143.643 78.8151 143.717 79.0391 143.866C79.2656 144.014 79.4336 144.221 79.543 144.487C79.6523 144.752 79.707 145.151 79.707 145.682V148.002H79.1484V145.682C79.1484 145.226 79.1159 144.914 79.0508 144.745C78.9857 144.573 78.8737 144.435 78.7148 144.331C78.5586 144.226 78.3711 144.174 78.1523 144.174C77.8867 144.174 77.6432 144.252 77.4219 144.409C77.2031 144.565 77.043 144.773 76.9414 145.034C76.8398 145.294 76.7891 145.729 76.7891 146.338V148.002H76.2461V145.827C76.2461 145.314 76.2135 144.966 76.1484 144.784C76.0859 144.599 75.9753 144.452 75.8164 144.342C75.6576 144.23 75.4688 144.174 75.25 144.174C74.9974 144.174 74.7604 144.251 74.5391 144.405C74.3203 144.556 74.1576 144.76 74.0508 145.018C73.9466 145.276 73.8945 145.67 73.8945 146.202V148.002H73.3516V143.752ZM84.4414 146.592L84.9023 146.834C84.7513 147.131 84.5768 147.371 84.3789 147.553C84.181 147.736 83.9583 147.875 83.7109 147.971C83.4635 148.065 83.1836 148.112 82.8711 148.112C82.1784 148.112 81.6367 147.885 81.2461 147.432C80.8555 146.976 80.6602 146.462 80.6602 145.889C80.6602 145.35 80.8255 144.87 81.1562 144.448C81.5755 143.911 82.1367 143.643 82.8398 143.643C83.5638 143.643 84.1419 143.918 84.5742 144.467C84.8815 144.855 85.0378 145.34 85.043 145.92H81.2227C81.2331 146.415 81.3906 146.821 81.6953 147.139C82 147.454 82.3763 147.612 82.8242 147.612C83.0404 147.612 83.25 147.574 83.4531 147.499C83.6589 147.423 83.8333 147.323 83.9766 147.198C84.1198 147.073 84.2747 146.871 84.4414 146.592ZM84.4414 145.448C84.3685 145.156 84.2617 144.923 84.1211 144.749C83.9831 144.574 83.7995 144.433 83.5703 144.327C83.3411 144.22 83.1003 144.167 82.8477 144.167C82.431 144.167 82.0729 144.301 81.7734 144.569C81.5547 144.764 81.3893 145.057 81.2773 145.448H84.4414ZM89.1328 142.112V146.565H88.5664V142.112H89.1328ZM88.8555 147.143C88.9883 147.143 89.1016 147.19 89.1953 147.284C89.2891 147.377 89.3359 147.492 89.3359 147.627C89.3359 147.76 89.2891 147.875 89.1953 147.971C89.1016 148.065 88.9883 148.112 88.8555 148.112C88.7227 148.112 88.6094 148.065 88.5156 147.971C88.4219 147.875 88.375 147.76 88.375 147.627C88.375 147.492 88.4219 147.377 88.5156 147.284C88.6094 147.19 88.7227 147.143 88.8555 147.143Z" fill="white"/>
<path d="M69.5332 94.0024V121.379H155.453L165.812 125.002V94.0024H69.5332Z" fill="#B9B9B9" stroke="#B6B6B6"/>
<path d="M74.6172 99.2539H75.1914V105H74.6172V99.2539ZM76.8047 100.918H76.4023L76.3164 99.1094H76.8945L76.8047 100.918ZM77.6055 100.75H78.1875L79.6094 103.844L81.0195 100.75H81.6055L79.6602 105H79.5625L77.6055 100.75ZM86.0234 103.59L86.4844 103.832C86.3333 104.129 86.1589 104.368 85.9609 104.551C85.763 104.733 85.5404 104.872 85.293 104.969C85.0456 105.062 84.7656 105.109 84.4531 105.109C83.7604 105.109 83.2188 104.883 82.8281 104.43C82.4375 103.974 82.2422 103.46 82.2422 102.887C82.2422 102.348 82.4076 101.867 82.7383 101.445C83.1576 100.909 83.7188 100.641 84.4219 100.641C85.1458 100.641 85.724 100.915 86.1562 101.465C86.4635 101.853 86.6198 102.337 86.625 102.918H82.8047C82.8151 103.413 82.9727 103.819 83.2773 104.137C83.582 104.452 83.9583 104.609 84.4062 104.609C84.6224 104.609 84.832 104.572 85.0352 104.496C85.2409 104.421 85.4154 104.32 85.5586 104.195C85.7018 104.07 85.8568 103.868 86.0234 103.59ZM86.0234 102.445C85.9505 102.154 85.8438 101.921 85.7031 101.746C85.5651 101.572 85.3815 101.431 85.1523 101.324C84.9232 101.217 84.6823 101.164 84.4297 101.164C84.013 101.164 83.6549 101.298 83.3555 101.566C83.1367 101.762 82.9714 102.055 82.8594 102.445H86.0234ZM89.9023 105V99.1094H90.4453V101.48C90.6745 101.199 90.931 100.99 91.2148 100.852C91.4987 100.711 91.8099 100.641 92.1484 100.641C92.75 100.641 93.263 100.859 93.6875 101.297C94.1146 101.732 94.3281 102.26 94.3281 102.883C94.3281 103.497 94.1133 104.022 93.6836 104.457C93.2539 104.892 92.737 105.109 92.1328 105.109C91.7865 105.109 91.4727 105.035 91.1914 104.887C90.9102 104.738 90.6615 104.516 90.4453 104.219V105H89.9023ZM92.0898 104.582C92.3945 104.582 92.6758 104.508 92.9336 104.359C93.1914 104.208 93.3958 103.997 93.5469 103.727C93.7005 103.456 93.7773 103.169 93.7773 102.867C93.7773 102.565 93.7005 102.277 93.5469 102.004C93.3932 101.73 93.1862 101.518 92.9258 101.367C92.668 101.214 92.3919 101.137 92.0977 101.137C91.7982 101.137 91.513 101.214 91.2422 101.367C90.974 101.518 90.7669 101.723 90.6211 101.98C90.4779 102.238 90.4062 102.529 90.4062 102.852C90.4062 103.344 90.5677 103.755 90.8906 104.086C91.2161 104.417 91.6159 104.582 92.0898 104.582ZM98.9062 103.59L99.3672 103.832C99.2161 104.129 99.0417 104.368 98.8438 104.551C98.6458 104.733 98.4232 104.872 98.1758 104.969C97.9284 105.062 97.6484 105.109 97.3359 105.109C96.6432 105.109 96.1016 104.883 95.7109 104.43C95.3203 103.974 95.125 103.46 95.125 102.887C95.125 102.348 95.2904 101.867 95.6211 101.445C96.0404 100.909 96.6016 100.641 97.3047 100.641C98.0286 100.641 98.6068 100.915 99.0391 101.465C99.3464 101.853 99.5026 102.337 99.5078 102.918H95.6875C95.6979 103.413 95.8555 103.819 96.1602 104.137C96.4648 104.452 96.8411 104.609 97.2891 104.609C97.5052 104.609 97.7148 104.572 97.918 104.496C98.1237 104.421 98.2982 104.32 98.4414 104.195C98.5846 104.07 98.7396 103.868 98.9062 103.59ZM98.9062 102.445C98.8333 102.154 98.7266 101.921 98.5859 101.746C98.4479 101.572 98.2643 101.431 98.0352 101.324C97.806 101.217 97.5651 101.164 97.3125 101.164C96.8958 101.164 96.5378 101.298 96.2383 101.566C96.0195 101.762 95.8542 102.055 95.7422 102.445H98.9062ZM104.109 103.59L104.57 103.832C104.419 104.129 104.245 104.368 104.047 104.551C103.849 104.733 103.626 104.872 103.379 104.969C103.132 105.062 102.852 105.109 102.539 105.109C101.846 105.109 101.305 104.883 100.914 104.43C100.523 103.974 100.328 103.46 100.328 102.887C100.328 102.348 100.493 101.867 100.824 101.445C101.243 100.909 101.805 100.641 102.508 100.641C103.232 100.641 103.81 100.915 104.242 101.465C104.549 101.853 104.706 102.337 104.711 102.918H100.891C100.901 103.413 101.059 103.819 101.363 104.137C101.668 104.452 102.044 104.609 102.492 104.609C102.708 104.609 102.918 104.572 103.121 104.496C103.327 104.421 103.501 104.32 103.645 104.195C103.788 104.07 103.943 103.868 104.109 103.59ZM104.109 102.445C104.036 102.154 103.93 101.921 103.789 101.746C103.651 101.572 103.467 101.431 103.238 101.324C103.009 101.217 102.768 101.164 102.516 101.164C102.099 101.164 101.741 101.298 101.441 101.566C101.223 101.762 101.057 102.055 100.945 102.445H104.109ZM105.734 100.75H106.281V101.512C106.5 101.22 106.742 101.003 107.008 100.859C107.273 100.714 107.562 100.641 107.875 100.641C108.193 100.641 108.474 100.721 108.719 100.883C108.966 101.044 109.148 101.262 109.266 101.535C109.383 101.809 109.441 102.234 109.441 102.812V105H108.898V102.973C108.898 102.483 108.878 102.156 108.836 101.992C108.771 101.711 108.648 101.5 108.469 101.359C108.289 101.216 108.055 101.145 107.766 101.145C107.435 101.145 107.138 101.254 106.875 101.473C106.615 101.691 106.443 101.962 106.359 102.285C106.307 102.496 106.281 102.882 106.281 103.441V105H105.734V100.75ZM112.844 100.75H113.387V101.531C113.603 101.234 113.852 101.012 114.133 100.863C114.414 100.715 114.728 100.641 115.074 100.641C115.678 100.641 116.195 100.858 116.625 101.293C117.055 101.728 117.27 102.251 117.27 102.863C117.27 103.488 117.056 104.02 116.629 104.457C116.204 104.892 115.691 105.109 115.09 105.109C114.751 105.109 114.44 105.039 114.156 104.898C113.872 104.758 113.616 104.548 113.387 104.27V106.555H112.844V100.75ZM115.031 101.168C114.557 101.168 114.158 101.333 113.832 101.664C113.509 101.995 113.348 102.406 113.348 102.898C113.348 103.221 113.419 103.512 113.562 103.77C113.708 104.027 113.915 104.232 114.184 104.383C114.454 104.534 114.74 104.609 115.039 104.609C115.333 104.609 115.609 104.534 115.867 104.383C116.128 104.229 116.335 104.016 116.488 103.742C116.642 103.469 116.719 103.182 116.719 102.883C116.719 102.581 116.642 102.294 116.488 102.023C116.337 101.753 116.133 101.543 115.875 101.395C115.617 101.243 115.336 101.168 115.031 101.168ZM118.09 100.75H118.648V101.371C118.815 101.126 118.991 100.944 119.176 100.824C119.361 100.702 119.553 100.641 119.754 100.641C119.905 100.641 120.066 100.689 120.238 100.785L119.953 101.246C119.839 101.197 119.742 101.172 119.664 101.172C119.482 101.172 119.306 101.247 119.137 101.398C118.967 101.547 118.839 101.779 118.75 102.094C118.682 102.336 118.648 102.826 118.648 103.562V105H118.09V100.75ZM124.938 100.75V105H124.398V104.27C124.169 104.548 123.911 104.758 123.625 104.898C123.341 105.039 123.03 105.109 122.691 105.109C122.09 105.109 121.576 104.892 121.148 104.457C120.724 104.02 120.512 103.488 120.512 102.863C120.512 102.251 120.727 101.728 121.156 101.293C121.586 100.858 122.103 100.641 122.707 100.641C123.056 100.641 123.371 100.715 123.652 100.863C123.936 101.012 124.185 101.234 124.398 101.531V100.75H124.938ZM122.75 101.168C122.445 101.168 122.164 101.243 121.906 101.395C121.648 101.543 121.443 101.753 121.289 102.023C121.138 102.294 121.062 102.581 121.062 102.883C121.062 103.182 121.139 103.469 121.293 103.742C121.447 104.016 121.652 104.229 121.91 104.383C122.171 104.534 122.449 104.609 122.746 104.609C123.046 104.609 123.329 104.534 123.598 104.383C123.866 104.232 124.072 104.027 124.215 103.77C124.361 103.512 124.434 103.221 124.434 102.898C124.434 102.406 124.271 101.995 123.945 101.664C123.622 101.333 123.224 101.168 122.75 101.168ZM130.297 101.633L129.863 101.902C129.488 101.405 128.977 101.156 128.328 101.156C127.81 101.156 127.379 101.323 127.035 101.656C126.694 101.99 126.523 102.395 126.523 102.871C126.523 103.181 126.602 103.473 126.758 103.746C126.917 104.02 127.133 104.232 127.406 104.383C127.682 104.534 127.991 104.609 128.332 104.609C128.957 104.609 129.467 104.361 129.863 103.863L130.297 104.148C130.094 104.453 129.82 104.69 129.477 104.859C129.135 105.026 128.746 105.109 128.309 105.109C127.637 105.109 127.079 104.896 126.637 104.469C126.194 104.042 125.973 103.522 125.973 102.91C125.973 102.499 126.076 102.117 126.281 101.766C126.49 101.411 126.775 101.135 127.137 100.938C127.499 100.74 127.904 100.641 128.352 100.641C128.633 100.641 128.904 100.684 129.164 100.77C129.427 100.855 129.65 100.967 129.832 101.105C130.014 101.243 130.169 101.419 130.297 101.633ZM131.828 99.1719H132.379V100.75H133.246V101.219H132.379V105H131.828V101.219H131.082V100.75H131.828V99.1719ZM134.254 99C134.379 99 134.486 99.0443 134.574 99.1328C134.663 99.2214 134.707 99.3281 134.707 99.4531C134.707 99.5755 134.663 99.681 134.574 99.7695C134.486 99.8581 134.379 99.9023 134.254 99.9023C134.132 99.9023 134.026 99.8581 133.938 99.7695C133.849 99.681 133.805 99.5755 133.805 99.4531C133.805 99.3281 133.849 99.2214 133.938 99.1328C134.026 99.0443 134.132 99 134.254 99ZM133.98 100.75H134.531V105H133.98V100.75ZM139.789 101.633L139.355 101.902C138.98 101.405 138.469 101.156 137.82 101.156C137.302 101.156 136.871 101.323 136.527 101.656C136.186 101.99 136.016 102.395 136.016 102.871C136.016 103.181 136.094 103.473 136.25 103.746C136.409 104.02 136.625 104.232 136.898 104.383C137.174 104.534 137.483 104.609 137.824 104.609C138.449 104.609 138.96 104.361 139.355 103.863L139.789 104.148C139.586 104.453 139.312 104.69 138.969 104.859C138.628 105.026 138.238 105.109 137.801 105.109C137.129 105.109 136.572 104.896 136.129 104.469C135.686 104.042 135.465 103.522 135.465 102.91C135.465 102.499 135.568 102.117 135.773 101.766C135.982 101.411 136.267 101.135 136.629 100.938C136.991 100.74 137.396 100.641 137.844 100.641C138.125 100.641 138.396 100.684 138.656 100.77C138.919 100.855 139.142 100.967 139.324 101.105C139.507 101.243 139.661 101.419 139.789 101.633ZM141.035 99C141.16 99 141.267 99.0443 141.355 99.1328C141.444 99.2214 141.488 99.3281 141.488 99.4531C141.488 99.5755 141.444 99.681 141.355 99.7695C141.267 99.8581 141.16 99.9023 141.035 99.9023C140.913 99.9023 140.807 99.8581 140.719 99.7695C140.63 99.681 140.586 99.5755 140.586 99.4531C140.586 99.3281 140.63 99.2214 140.719 99.1328C140.807 99.0443 140.913 99 141.035 99ZM140.762 100.75H141.312V105H140.762V100.75ZM142.445 100.75H142.992V101.512C143.211 101.22 143.453 101.003 143.719 100.859C143.984 100.714 144.273 100.641 144.586 100.641C144.904 100.641 145.185 100.721 145.43 100.883C145.677 101.044 145.859 101.262 145.977 101.535C146.094 101.809 146.152 102.234 146.152 102.812V105H145.609V102.973C145.609 102.483 145.589 102.156 145.547 101.992C145.482 101.711 145.359 101.5 145.18 101.359C145 101.216 144.766 101.145 144.477 101.145C144.146 101.145 143.849 101.254 143.586 101.473C143.326 101.691 143.154 101.962 143.07 102.285C143.018 102.496 142.992 102.882 142.992 103.441V105H142.445V100.75ZM150.988 100.75H151.539V104.137C151.539 104.733 151.487 105.169 151.383 105.445C151.24 105.836 150.991 106.137 150.637 106.348C150.283 106.559 149.857 106.664 149.359 106.664C148.995 106.664 148.667 106.612 148.375 106.508C148.086 106.406 147.85 106.268 147.668 106.094C147.486 105.922 147.318 105.669 147.164 105.336H147.758C147.919 105.617 148.128 105.826 148.383 105.961C148.638 106.096 148.954 106.164 149.332 106.164C149.704 106.164 150.018 106.094 150.273 105.953C150.531 105.815 150.715 105.641 150.824 105.43C150.934 105.219 150.988 104.879 150.988 104.41V104.191C150.783 104.452 150.531 104.652 150.234 104.793C149.938 104.931 149.622 105 149.289 105C148.898 105 148.531 104.904 148.188 104.711C147.844 104.516 147.578 104.254 147.391 103.926C147.203 103.598 147.109 103.237 147.109 102.844C147.109 102.451 147.207 102.085 147.402 101.746C147.598 101.405 147.867 101.135 148.211 100.938C148.557 100.74 148.922 100.641 149.305 100.641C149.622 100.641 149.918 100.707 150.191 100.84C150.467 100.97 150.733 101.186 150.988 101.488V100.75ZM149.375 101.168C149.065 101.168 148.777 101.243 148.512 101.395C148.246 101.543 148.038 101.75 147.887 102.016C147.736 102.279 147.66 102.564 147.66 102.871C147.66 103.337 147.816 103.723 148.129 104.027C148.441 104.332 148.846 104.484 149.344 104.484C149.846 104.484 150.25 104.333 150.555 104.031C150.862 103.729 151.016 103.332 151.016 102.84C151.016 102.52 150.945 102.234 150.805 101.984C150.664 101.732 150.465 101.533 150.207 101.387C149.949 101.241 149.672 101.168 149.375 101.168ZM159.164 100.75V105H158.625V104.27C158.396 104.548 158.138 104.758 157.852 104.898C157.568 105.039 157.257 105.109 156.918 105.109C156.316 105.109 155.802 104.892 155.375 104.457C154.951 104.02 154.738 103.488 154.738 102.863C154.738 102.251 154.953 101.728 155.383 101.293C155.812 100.858 156.329 100.641 156.934 100.641C157.283 100.641 157.598 100.715 157.879 100.863C158.163 101.012 158.411 101.234 158.625 101.531V100.75H159.164ZM156.977 101.168C156.672 101.168 156.391 101.243 156.133 101.395C155.875 101.543 155.669 101.753 155.516 102.023C155.365 102.294 155.289 102.581 155.289 102.883C155.289 103.182 155.366 103.469 155.52 103.742C155.673 104.016 155.879 104.229 156.137 104.383C156.397 104.534 156.676 104.609 156.973 104.609C157.272 104.609 157.556 104.534 157.824 104.383C158.092 104.232 158.298 104.027 158.441 103.77C158.587 103.512 158.66 103.221 158.66 102.898C158.66 102.406 158.497 101.995 158.172 101.664C157.849 101.333 157.451 101.168 156.977 101.168ZM74.5273 109.109H75.0742V115H74.5273V109.109ZM78.2227 110.641C78.8763 110.641 79.418 110.878 79.8477 111.352C80.2383 111.784 80.4336 112.296 80.4336 112.887C80.4336 113.48 80.2266 114 79.8125 114.445C79.401 114.888 78.8711 115.109 78.2227 115.109C77.5716 115.109 77.0391 114.888 76.625 114.445C76.2135 114 76.0078 113.48 76.0078 112.887C76.0078 112.298 76.2031 111.788 76.5938 111.355C77.0234 110.879 77.5664 110.641 78.2227 110.641ZM78.2227 111.176C77.7695 111.176 77.3802 111.344 77.0547 111.68C76.7292 112.016 76.5664 112.422 76.5664 112.898C76.5664 113.206 76.6406 113.492 76.7891 113.758C76.9375 114.023 77.138 114.229 77.3906 114.375C77.6432 114.518 77.9206 114.59 78.2227 114.59C78.5247 114.59 78.8021 114.518 79.0547 114.375C79.3073 114.229 79.5078 114.023 79.6562 113.758C79.8047 113.492 79.8789 113.206 79.8789 112.898C79.8789 112.422 79.7148 112.016 79.3867 111.68C79.0612 111.344 78.6732 111.176 78.2227 111.176ZM81.9297 109.172H82.4805V110.75H83.3477V111.219H82.4805V115H81.9297V111.219H81.1836V110.75H81.9297V109.172ZM86.3008 109.109H86.8477V115H86.3008V109.109ZM92.2188 110.75V115H91.6797V114.27C91.4505 114.548 91.1927 114.758 90.9062 114.898C90.6224 115.039 90.3112 115.109 89.9727 115.109C89.3711 115.109 88.8568 114.892 88.4297 114.457C88.0052 114.02 87.793 113.488 87.793 112.863C87.793 112.251 88.0078 111.728 88.4375 111.293C88.8672 110.858 89.3841 110.641 89.9883 110.641C90.3372 110.641 90.6523 110.715 90.9336 110.863C91.2174 111.012 91.4661 111.234 91.6797 111.531V110.75H92.2188ZM90.0312 111.168C89.7266 111.168 89.4453 111.243 89.1875 111.395C88.9297 111.543 88.724 111.753 88.5703 112.023C88.4193 112.294 88.3438 112.581 88.3438 112.883C88.3438 113.182 88.4206 113.469 88.5742 113.742C88.7279 114.016 88.9336 114.229 89.1914 114.383C89.4518 114.534 89.7305 114.609 90.0273 114.609C90.3268 114.609 90.6107 114.534 90.8789 114.383C91.1471 114.232 91.3529 114.027 91.4961 113.77C91.6419 113.512 91.7148 113.221 91.7148 112.898C91.7148 112.406 91.5521 111.995 91.2266 111.664C90.9036 111.333 90.5052 111.168 90.0312 111.168ZM93.9297 109.172H94.4805V110.75H95.3477V111.219H94.4805V115H93.9297V111.219H93.1836V110.75H93.9297V109.172ZM99.7422 113.59L100.203 113.832C100.052 114.129 99.8776 114.368 99.6797 114.551C99.4818 114.733 99.2591 114.872 99.0117 114.969C98.7643 115.062 98.4844 115.109 98.1719 115.109C97.4792 115.109 96.9375 114.883 96.5469 114.43C96.1562 113.974 95.9609 113.46 95.9609 112.887C95.9609 112.348 96.1263 111.867 96.457 111.445C96.8763 110.909 97.4375 110.641 98.1406 110.641C98.8646 110.641 99.4427 110.915 99.875 111.465C100.182 111.853 100.339 112.337 100.344 112.918H96.5234C96.5339 113.413 96.6914 113.819 96.9961 114.137C97.3008 114.452 97.6771 114.609 98.125 114.609C98.3411 114.609 98.5508 114.572 98.7539 114.496C98.9596 114.421 99.1341 114.32 99.2773 114.195C99.4206 114.07 99.5755 113.868 99.7422 113.59ZM99.7422 112.445C99.6693 112.154 99.5625 111.921 99.4219 111.746C99.2839 111.572 99.1003 111.431 98.8711 111.324C98.6419 111.217 98.401 111.164 98.1484 111.164C97.7318 111.164 97.3737 111.298 97.0742 111.566C96.8555 111.762 96.6901 112.055 96.5781 112.445H99.7422ZM101.285 109.109H101.832V115H101.285V109.109ZM102.512 110.75H103.09L104.551 114.023L105.969 110.75H106.551L104.016 116.555H103.438L104.258 114.68L102.512 110.75ZM107.859 114.141C107.992 114.141 108.105 114.188 108.199 114.281C108.293 114.375 108.34 114.49 108.34 114.625C108.34 114.758 108.293 114.872 108.199 114.969C108.105 115.062 107.992 115.109 107.859 115.109C107.727 115.109 107.613 115.062 107.52 114.969C107.426 114.872 107.379 114.758 107.379 114.625C107.379 114.49 107.426 114.375 107.52 114.281C107.613 114.188 107.727 114.141 107.859 114.141Z" fill="black"/>
<defs>
<clipPath id="clip0_274_536">
<rect width="14.7901" height="14.1672" fill="white" transform="matrix(0.753808 -0.657095 0.706247 0.707965 152.977 227.973)"/>
</clipPath>
</defs>
</svg>
