<svg width="246" height="56" viewBox="0 0 246 56" fill="none" xmlns="http://www.w3.org/2000/svg">
<rect width="32.1268" height="33.3846" fill="#AF1A1A"/>
<rect x="15.6045" width="45.8955" height="33.3846" fill="#D9A10F"/>
<rect x="40.8975" y="2" width="25.4359" height="29.3846" fill="#009618" stroke="white" stroke-width="4"/>
<rect x="67.9248" width="57.8283" height="33.3846" fill="#07BDA7"/>
<rect x="67.9248" width="57.8283" height="33.3846" fill="#07BDA7"/>
<rect x="102.806" width="57.8283" height="33.3846" fill="#07BDA7"/>
<rect x="102.806" width="57.8283" height="33.3846" fill="#0C1BA1"/>
<rect x="145.029" width="57.8283" height="33.3846" fill="#07BDA7"/>
<rect x="145.029" width="57.8283" height="33.3846" fill="#7B00DB"/>
<rect x="188.171" width="57.8283" height="33.3846" fill="#07BDA7"/>
<rect x="188.171" width="57.8283" height="33.3846" fill="#DB009E"/>
<path d="M48.5625 24.7561V51.9157L50.322 50.4548L54.6049 46.8689L56.7639 51.1529L57.2283 52.1155L58.1919 51.6172L61.4783 49.9235L62.4079 49.4592L61.9436 48.4955L59.9844 44.644L65.3638 43.9799L67.5207 43.7143L65.9949 42.1875L50.39 26.5485L48.5625 24.7561ZM50.6875 29.9029L62.9732 42.1535L58.1919 42.7187L56.697 42.9185L57.3951 44.2785L59.5859 48.5285L58.1909 49.2595L55.9001 44.678L55.269 43.4827L54.2405 44.3454L50.6875 47.3342V29.9029Z" fill="black"/>
</svg>
