<svg width="80" height="135" viewBox="0 0 80 135" fill="none" xmlns="http://www.w3.org/2000/svg">
<path d="M33.8545 40.8196L27.7713 81.6752C27.7713 81.6752 16.0133 90.3997 11.9297 98.0175C7.79557 105.729 10.1215 119.56 10.1215 119.56L41.1596 119.56L41.7175 40.8196L33.8545 40.8196Z" fill="black"/>
<path d="M49.1669 40.8201L54.6712 81.6757C54.6712 81.6757 66.3056 90.4002 70.2814 98.018C74.3062 105.73 71.7843 119.56 71.7843 119.56L40.7461 119.56L41.304 40.8201L49.1669 40.8201Z" fill="black"/>
<rect width="77.8018" height="14.857" transform="matrix(1 5.03305e-09 -0.00708456 0.999975 1.01758 119.56)" fill="black"/>
<rect width="36.4179" height="8.91419" transform="matrix(1 5.03305e-09 -0.00708456 0.999975 23.1475 33.3916)" fill="black"/>
<ellipse cx="21.5196" cy="18.5712" rx="21.5196" ry="18.5712" transform="matrix(1 5.03305e-09 -0.00708456 0.999975 20.0684 0.707031)" fill="black"/>
</svg>
