<svg width="67" height="192" viewBox="0 0 67 192" fill="none" xmlns="http://www.w3.org/2000/svg">
<rect width="63.9603" height="13.7442" transform="matrix(1 2.16603e-10 -0.00708457 0.999975 1.06445 177.549)" fill="black"/>
<path d="M25.6484 13.9963L33.6319 13.9963L33.666 9.18595L27.9552 9.18595L27.9845 5.06279L33.6952 5.06279L33.7293 0.252441L36.5847 0.252441L35.3286 177.548L33.0558 177.548L33.0443 177.548L9.0707 177.548C9.0707 177.548 7.06285 174.431 6.82535 172.051C6.58053 169.597 6.36437 166.892 6.87844 164.492C8.16574 158.48 9.30052 155.766 12.1159 150.748C15.586 144.563 21.8805 130.334 24.9327 115.014C27.6936 101.156 28.0462 78.5925 28.0462 78.5925L25.1908 78.5925L25.2151 75.1565L14.9601 71.7205L25.2784 66.223L25.4196 46.2944L11.8777 21.5554L18.1449 23.617L25.6484 13.9963Z" fill="black"/>
<path d="M47.0465 13.9963L39.063 13.9963L39.0971 9.18595L44.8078 9.18595L44.837 5.06279L39.1263 5.06279L39.1604 0.252441L36.305 0.252441L35.0489 177.548L37.3216 177.548L37.3332 177.548L61.3068 177.548C61.3068 177.548 63.3588 174.431 63.63 172.051C63.9096 169.597 64.1641 166.892 63.684 164.492C62.4819 158.48 61.3856 155.766 58.6413 150.748C55.2589 144.563 49.1659 130.334 46.3308 115.014C43.7663 101.156 43.7335 78.5925 43.7335 78.5925L46.5888 78.5925L46.6132 75.1565L56.9169 71.7205L46.6765 66.223L46.8177 46.2944L60.7101 21.5554L54.4137 23.617L47.0465 13.9963Z" fill="black"/>
</svg>
