<svg width="76" height="131" viewBox="0 0 76 131" fill="none" xmlns="http://www.w3.org/2000/svg">
<rect width="74.1831" height="11.6426" transform="matrix(1 -5.03305e-09 0.00708456 0.999975 1.65137 118.522)" fill="white"/>
<path d="M18.3986 105.231C16.7906 110.716 12.5074 118.522 12.5074 118.522L64.0737 118.522C64.0737 118.522 60.0331 110.667 58.4546 105.231C56.301 97.8147 56.013 85.5412 56.013 85.5412L55.6468 33.8548L62.0926 33.8548L62.0612 29.4245L55.6155 29.4245L55.5841 24.9942C55.5841 24.9942 58.761 24.8275 60.1812 24.0097C61.8059 23.0741 61.9985 20.5639 61.9985 20.5639L61.8555 0.381592L56.3305 0.381592L56.3968 9.73439L51.3322 9.73439L51.266 0.381592L41.1369 0.381592L41.2031 9.73439L34.2969 9.73439L34.2307 0.381592L24.1016 0.381592L24.1678 9.73439L19.5637 9.73439L19.4974 0.381592L13.0517 0.381592L13.1946 20.5639C13.1946 20.5639 14.0641 22.9217 15.5211 24.0097C17.1484 25.2248 20.1322 24.9942 20.1322 24.9942L20.1636 29.4245L13.7178 29.4245L13.7492 33.8548L20.195 33.8548L20.5612 85.5412C20.5612 85.5412 20.5617 97.8529 18.3986 105.231Z" fill="white"/>
</svg>
