<svg width="102" height="102" viewBox="0 0 102 102" fill="none" xmlns="http://www.w3.org/2000/svg">
<rect width="51" height="51" fill="black"/>
<rect x="0.5" y="51.5" width="50" height="50" fill="white" stroke="black"/>
<rect x="51.5" y="0.5" width="50" height="50" fill="white" stroke="black"/>
<rect x="51" y="51" width="51" height="51" fill="black"/>
<ellipse cx="76.3672" cy="19.4894" rx="5.71094" ry="5.48936" fill="black"/>
<rect x="72.25" y="23.1915" width="8.23438" height="9.95745" fill="black"/>
<path d="M70.3906 33.1489L72.25 23.3192V33.1489H70.3906Z" fill="black"/>
<path d="M82.3438 33.149L80.4844 23.1915V33.149H82.3438Z" fill="black"/>
<rect x="68" y="33.1489" width="17" height="4.85106" fill="black"/>
<ellipse cx="25.3672" cy="70.4894" rx="5.71094" ry="5.48936" fill="black"/>
<rect x="21.25" y="74.1915" width="8.23438" height="9.95745" fill="black"/>
<path d="M19.3906 84.1489L21.25 74.3192V84.1489H19.3906Z" fill="black"/>
<path d="M31.3438 84.149L29.4844 74.1915V84.149H31.3438Z" fill="black"/>
<rect x="17" y="84.1489" width="17" height="4.85106" fill="black"/>
<path d="M33.0303 20.6482C29.8053 12.6482 21.6526 15.1954 21.6526 15.1954L28.7009 32.6795C28.7009 32.6795 36.2553 28.6482 33.0303 20.6482Z" fill="white"/>
<path d="M19.5613 13.9047L21.8419 15.2381L29.349 34.2857H34.0053V38H15V34.2857H19.5613V28.9523L24.2176 24.2857L23.2673 23.4285L18.706 27.9047L15 25.0476L19.5613 17.7142V13.9047Z" fill="white"/>
<path d="M84.0303 71.6482C80.8053 63.6482 72.6526 66.1954 72.6526 66.1954L79.7009 83.6795C79.7009 83.6795 87.2553 79.6482 84.0303 71.6482Z" fill="white"/>
<path d="M70.5613 64.9047L72.8419 66.2381L80.349 85.2857H85.0053V89H66V85.2857H70.5613V79.9523L75.2176 75.2857L74.2673 74.4285L69.706 78.9047L66 76.0476L70.5613 68.7142V64.9047Z" fill="white"/>
</svg>
