<svg width="474" height="271" viewBox="0 0 474 271" fill="none" xmlns="http://www.w3.org/2000/svg">
<path d="M270 160L271.5 179.5H338.5L332 160H270Z" fill="black"/>
<path d="M116 234L125.5 207.5H197.5L194.5 234H116Z" fill="black"/>
<path d="M274.5 207.5L278 235H357L347 207.5H274.5Z" fill="black"/>
<path d="M123.5 203.5H53L64.5 183H132L123.5 203.5Z" fill="black"/>
<path d="M203.5 183L201 205H272L269.5 183H203.5Z" fill="black"/>
<path d="M340 183L349 205H419.5L408 183H340Z" fill="black"/>
<path d="M64.5 179H0L13.5 161.5H74.5L64.5 179Z" fill="black"/>
<path d="M398 160.5L409.5 179H474L459.5 160.5H398Z" fill="black"/>
<rect x="197" y="236" width="79" height="35" fill="black"/>
<path d="M197 271V236L191 271H197Z" fill="black"/>
<path d="M276 271V236L282 271H276Z" fill="black"/>
<path d="M142 161L135.5 177.5H202.5V161H142Z" fill="black"/>
<rect x="311" y="142" width="56" height="10" fill="black"/>
<path d="M321.957 81.7132L331.226 78.5814C331.226 78.5814 331.419 75.8552 331.5 74C331.596 71.7974 331.445 70.1229 331 68C329.743 62 328.312 62.6917 328 59C327.684 55.2574 327.922 52.9084 329.5 49.5C330.387 47.5834 331.041 46.527 332.5 45C334.147 43.2768 337.5 41.5 337.5 41.5V35H334.5V31.5H337.5V29H340L339.97 142H338.951H338.94H317.323C317.323 142 315.492 140.224 315.263 138.868C315.026 137.47 314.814 135.93 315.262 134.562C316.385 131.137 317.391 129.591 319.897 126.733C322.987 123.209 327 118.5 331.226 104.5C333.611 96.6007 332.5 86.5 332.5 86.5L329.5 86V83.5L321.957 81.7132Z" fill="black"/>
<path d="M357.043 81.7132L347.774 78.5814C347.774 78.5814 347.581 75.8552 347.5 74C347.404 71.7974 347.555 70.1229 348 68C349.257 62 350.688 62.6917 351 59C351.316 55.2574 351.078 52.9084 349.5 49.5C348.613 47.5834 347.959 46.527 346.5 45C344.853 43.2768 341.5 41.5 341.5 41.5V35H344.5V31.5H341.5V29H339L339.03 142H340.049H340.06H361.677C361.677 142 363.508 140.224 363.737 138.868C363.974 137.47 364.186 135.93 363.738 134.562C362.615 131.137 361.609 129.591 359.103 126.733C356.013 123.209 352 118.5 347.774 104.5C345.389 96.6007 346.5 86.5 346.5 86.5L349.5 86V83.5L357.043 81.7132Z" fill="black"/>
<rect x="99" y="137" width="56" height="10" fill="black"/>
<path d="M109.957 76.7132L119.226 73.5814C119.226 73.5814 119.419 70.8552 119.5 69C119.596 66.7974 119.445 65.1229 119 63C117.743 57 116.312 57.6917 116 54C115.684 50.2574 115.922 47.9084 117.5 44.5C118.387 42.5834 119.041 41.527 120.5 40C122.147 38.2768 125.5 36.5 125.5 36.5V30H122.5V26.5H125.5V24H128L127.97 137H126.951H126.94H105.323C105.323 137 103.492 135.224 103.263 133.868C103.026 132.47 102.814 130.93 103.262 129.562C104.385 126.137 105.391 124.591 107.897 121.733C110.987 118.209 115 113.5 119.226 99.5C121.611 91.6007 120.5 81.5 120.5 81.5L117.5 81V78.5L109.957 76.7132Z" fill="black"/>
<path d="M145.043 76.7132L135.774 73.5814C135.774 73.5814 135.581 70.8552 135.5 69C135.404 66.7974 135.555 65.1229 136 63C137.257 57 138.688 57.6917 139 54C139.316 50.2574 139.078 47.9084 137.5 44.5C136.613 42.5834 135.959 41.527 134.5 40C132.853 38.2768 129.5 36.5 129.5 36.5V30H132.5V26.5H129.5V24H127L127.03 137H128.049H128.06H149.677C149.677 137 151.508 135.224 151.737 133.868C151.974 132.47 152.186 130.93 151.738 129.562C150.615 126.137 149.609 124.591 147.103 121.733C144.013 118.209 140 113.5 135.774 99.5C133.389 91.6007 134.5 81.5 134.5 81.5L137.5 81V78.5L145.043 76.7132Z" fill="black"/>
<rect x="242" y="142" width="56" height="10" fill="black"/>
<path d="M262.51 23H269.5V19.5H264.5V16.5H269.5V13H272V142H270.01H270H249.01C249.01 142 247.233 139.732 247.01 138C246.781 136.214 246.575 134.247 247.01 132.5C248.1 128.126 249.076 126.151 251.51 122.5C254.51 118 259.933 107.647 262.51 96.5C264.841 86.4171 265.01 70 265.01 70H262.51V67.5L253.51 65L262.51 61V46.5L250.5 28.5L256 30L262.51 23Z" fill="black"/>
<path d="M281.245 23H274.255V19.5H279.255V16.5H274.255V13H271.755V142H273.745H273.755H294.745C294.745 142 296.522 139.732 296.745 138C296.974 136.214 297.18 134.247 296.745 132.5C295.655 128.126 294.679 126.151 292.245 122.5C289.245 118 283.822 107.647 281.245 96.5C278.913 86.4171 278.745 70 278.745 70H281.245V67.5L290.245 65L281.245 61V46.5L293.255 28.5L287.755 30L281.245 23Z" fill="black"/>
<rect x="172" y="141.5" width="53" height="10" fill="black"/>
<path d="M195.255 0H200.255V142H179.255C179.255 142 177.478 139.732 177.255 138C177.026 136.214 176.819 134.247 177.255 132.5C178.344 128.126 179.321 126.151 181.755 122.5C184.755 118 190.178 107.647 192.755 96.5C195.086 86.4171 195.255 70 195.255 70H192.755V67.5L183.755 65L192.755 61V46.5L184.755 31L192.755 23H197.255V12H193.755V14H190.255V5.5H193.755V8.5H197.255V3.5H195.255V0Z" fill="black"/>
<path d="M205 0H200V142H221C221 142 222.777 139.732 223 138C223.229 136.214 223.435 134.247 223 132.5C221.91 128.126 220.934 126.151 218.5 122.5C215.5 118 210.077 107.647 207.5 96.5C205.168 86.4171 205 70 205 70H207.5V67.5L216.5 65L207.5 61V46.5L215.5 31L207.5 23H203V12H206.5V14H210V5.5H206.5V8.5H203V3.5H205V0Z" fill="black"/>
<rect x="156" y="99" width="25" height="7" fill="black"/>
<path d="M163.985 103L160.351 131.722C160.351 131.722 153.015 137.856 150.487 143.211C147.928 148.633 149.448 158.356 149.448 158.356H168.918V103H163.985Z" fill="black"/>
<path d="M173.59 103L177.224 131.722C177.224 131.722 184.561 137.856 187.089 143.211C189.647 148.633 188.127 158.356 188.127 158.356H168.658V103H173.59Z" fill="black"/>
<rect x="142" y="158" width="53" height="10" fill="black"/>
<circle cx="168.5" cy="90.5" r="13.5" fill="black"/>
<path d="M297.985 105L294.351 133.722C294.351 133.722 287.015 139.856 284.487 145.211C281.928 150.633 283.448 160.356 283.448 160.356H302.918V105H297.985Z" fill="black"/>
<path d="M307.59 105L311.224 133.722C311.224 133.722 318.561 139.856 321.089 145.211C323.647 150.633 322.127 160.356 322.127 160.356H302.658V105H307.59Z" fill="black"/>
<rect x="276" y="160" width="53" height="10" fill="black"/>
<rect x="290" y="101" width="25" height="7" fill="black"/>
<circle cx="302.5" cy="92.5" r="13.5" fill="black"/>
<path d="M362.985 105L359.351 133.722C359.351 133.722 352.015 139.856 349.487 145.211C346.928 150.633 348.448 160.356 348.448 160.356H367.918V105H362.985Z" fill="black"/>
<path d="M372.59 105L376.224 133.722C376.224 133.722 383.561 139.856 386.089 145.211C388.647 150.633 387.127 160.356 387.127 160.356H367.658V105H372.59Z" fill="black"/>
<rect x="341" y="160" width="53" height="10" fill="black"/>
<rect x="355" y="101" width="25" height="7" fill="black"/>
<circle cx="367.5" cy="92.5" r="13.5" fill="black"/>
<path d="M98.9855 104L95.3512 132.722C95.3512 132.722 88.0145 138.856 85.4868 144.211C82.9279 149.633 84.4484 159.356 84.4484 159.356H103.918V104H98.9855Z" fill="black"/>
<path d="M108.59 104L112.224 132.722C112.224 132.722 119.561 138.856 122.089 144.211C124.647 149.633 123.127 159.356 123.127 159.356H103.658V104H108.59Z" fill="black"/>
<rect x="77" y="159" width="53" height="10" fill="black"/>
<rect x="91" y="100" width="25" height="7" fill="black"/>
<circle cx="103.5" cy="91.5" r="13.5" fill="black"/>
<path d="M59.9855 82L56.3512 110.722C56.3512 110.722 49.0145 116.856 46.4868 122.211C43.9279 127.633 45.4484 137.356 45.4484 137.356H64.9177V82H59.9855Z" fill="black"/>
<path d="M69.5898 82L73.224 110.722C73.224 110.722 80.5608 116.856 83.0885 122.211C85.6475 127.633 84.127 137.356 84.127 137.356H64.6575V82H69.5898Z" fill="black"/>
<rect x="38" y="137" width="53" height="10" fill="black"/>
<rect x="52" y="78" width="25" height="7" fill="black"/>
<circle cx="64.5" cy="69.5" r="13.5" fill="black"/>
<path d="M399.985 87L396.351 115.722C396.351 115.722 389.015 121.856 386.487 127.211C383.928 132.633 385.448 142.356 385.448 142.356H404.918V87H399.985Z" fill="black"/>
<path d="M409.59 87L413.224 115.722C413.224 115.722 420.561 121.856 423.089 127.211C425.647 132.633 424.127 142.356 424.127 142.356H404.658V87H409.59Z" fill="black"/>
<rect x="378" y="142" width="53" height="10" fill="black"/>
<rect x="392" y="83" width="25" height="7" fill="black"/>
<circle cx="404.5" cy="74.5" r="13.5" fill="black"/>
<path d="M33.9855 105L30.3512 133.722C30.3512 133.722 23.0145 139.856 20.4868 145.211C17.9279 150.633 19.4484 160.356 19.4484 160.356H38.9177V105H33.9855Z" fill="black"/>
<path d="M43.5898 105L47.224 133.722C47.224 133.722 54.5608 139.856 57.0885 145.211C59.6475 150.633 58.127 160.356 58.127 160.356H38.6575V105H43.5898Z" fill="black"/>
<rect x="12" y="160" width="53" height="10" fill="black"/>
<rect x="26" y="101" width="25" height="7" fill="black"/>
<circle cx="38.5" cy="92.5" r="13.5" fill="black"/>
<path d="M427.985 105L424.351 133.722C424.351 133.722 417.015 139.856 414.487 145.211C411.928 150.633 413.448 160.356 413.448 160.356H432.918V105H427.985Z" fill="black"/>
<path d="M437.59 105L441.224 133.722C441.224 133.722 448.561 139.856 451.089 145.211C453.647 150.633 452.127 160.356 452.127 160.356H432.658V105H437.59Z" fill="black"/>
<rect x="406" y="160" width="53" height="10" fill="black"/>
<rect x="420" y="101" width="25" height="7" fill="black"/>
<circle cx="432.5" cy="92.5" r="13.5" fill="black"/>
<path d="M230.5 162L227 189.5C227 189.5 219.934 195.372 217.5 200.5C215.036 205.691 216.5 215 216.5 215H235.25V162H230.5Z" fill="black"/>
<path d="M239.75 162L243.25 189.5C243.25 189.5 250.316 195.372 252.75 200.5C255.214 205.691 253.75 215 253.75 215H235V162H239.75Z" fill="black"/>
<rect x="211" y="215" width="47" height="10" fill="black"/>
<rect x="224" y="157" width="22" height="6" fill="black"/>
<ellipse cx="235" cy="147.5" rx="13" ry="12.5" fill="black"/>
</svg>
