<svg width="580" height="145" viewBox="0 0 580 145" fill="none" xmlns="http://www.w3.org/2000/svg">
<ellipse cx="29.0002" cy="78.8835" rx="19.7937" ry="19.6069" fill="white"/>
<rect x="14.73" y="92.1068" width="28.5397" height="35.566" fill="white"/>
<path d="M8.28564 127.673L14.7301 92.5628V127.673H8.28564Z" fill="white"/>
<path d="M49.7144 127.673L43.2699 92.1068V127.673H49.7144Z" fill="white"/>
<rect y="127.673" width="58.9206" height="17.327" fill="white"/>
<rect x="115.08" y="79.3395" width="28.5397" height="48.3333" fill="white"/>
<path d="M108.635 127.673L115.079 80.2515V127.673H108.635Z" fill="white"/>
<path d="M150.063 127.673L143.619 79.3395V127.673H150.063Z" fill="white"/>
<rect x="93.9048" y="127.673" width="70.8889" height="17.327" fill="white"/>
<ellipse cx="129.349" cy="66.1163" rx="19.7937" ry="19.6069" fill="white"/>
<rect x="121.524" y="36.4779" width="15.6508" height="15.5031" fill="white"/>
<rect width="3.51629" height="19.633" transform="matrix(0.619283 0.785168 -0.79083 0.612035 144.306 53.0344)" fill="black"/>
<path d="M273.305 61.4681C257.683 23.1662 218.191 35.3615 218.191 35.3615L252.333 119.07C252.333 119.07 288.927 99.77 273.305 61.4681Z" fill="white"/>
<path d="M208.063 29.1822L219.111 35.5659L255.476 126.761H278.032V144.544H185.968V126.761H208.063V101.226L230.619 78.8835L226.016 74.7797L203.921 96.2105L185.968 82.5313L208.063 47.4212V29.1822Z" fill="white"/>
<path d="M324.462 50.8323L332.232 69.3081H363.311L371.081 50.8323H380.222V32.8301H362.854V50.8323H356.913V32.8301H339.088V51.306H333.146V32.8301H315.778V50.8323H324.462Z" fill="white"/>
<rect x="332.001" y="68.3962" width="31.0765" height="58.3648" fill="white"/>
<path d="M324.984 126.761L332.001 69.4974V126.761H324.984Z" fill="white"/>
<path d="M370.095 126.761L363.078 68.3962V126.761H370.095Z" fill="white"/>
<rect x="312.095" y="126.761" width="70.8889" height="18.239" fill="white"/>
<rect x="429.875" y="73.868" width="32.345" height="51.9811" fill="white"/>
<path d="M422.571 125.849L429.875 74.8488V125.849H422.571Z" fill="white"/>
<path d="M469.524 125.849L462.22 73.868V125.849H469.524Z" fill="white"/>
<rect x="429.875" y="56.5409" width="32.345" height="17.327" fill="white"/>
<path d="M422.571 73.8679L429.875 56.8678V73.8679H422.571Z" fill="white"/>
<path d="M469.524 73.8679L462.22 56.5409V73.8679H469.524Z" fill="white"/>
<rect x="409.683" y="125.849" width="71.8095" height="19.1509" fill="white"/>
<rect x="410.603" y="38.3019" width="70.8889" height="18.239" fill="white"/>
<path d="M422.571 15.5031V38.3019H469.524V15.5031L458.016 26.9025L445.587 15.5031L434.079 26.9025L422.571 15.5031Z" fill="white"/>
<ellipse cx="422.571" cy="8.20755" rx="8.28571" ry="8.20755" fill="white"/>
<ellipse cx="445.587" cy="8.20755" rx="8.28571" ry="8.20755" fill="white"/>
<ellipse cx="469.524" cy="8.20755" rx="8.28571" ry="8.20755" fill="white"/>
<rect x="527.462" y="74.7799" width="32.345" height="52.8931" fill="white"/>
<path d="M520.158 127.673L527.462 75.7779V127.673H520.158Z" fill="white"/>
<path d="M567.11 127.673L559.807 74.7799V127.673H567.11Z" fill="white"/>
<rect x="527.462" y="56.5408" width="32.345" height="18.239" fill="white"/>
<path d="M520.158 74.7798L527.462 56.8849V74.7798H520.158Z" fill="white"/>
<path d="M567.11 74.7798L559.807 56.5408V74.7798H567.11Z" fill="white"/>
<rect width="32.345" height="18.239" transform="matrix(1 0 0 -1 527.462 39.2137)" fill="white"/>
<path d="M520.158 20.9748L527.462 38.8696V20.9748H520.158Z" fill="white"/>
<path d="M567.11 20.9748L559.807 39.2137V20.9748H567.11Z" fill="white"/>
<rect x="508.19" y="38.3018" width="70.8889" height="18.239" fill="white"/>
<rect x="508.19" y="127.673" width="71.8095" height="17.327" fill="white"/>
<rect x="540.413" y="0.911865" width="6.44444" height="20.0629" fill="white"/>
<rect x="533.048" y="8.20747" width="21.1746" height="6.38365" fill="white"/>
</svg>
